<svg width="192" height="192" viewBox="0 0 192 192" fill="none" xmlns="http://www.w3.org/2000/svg">
<circle cx="96.0022" cy="99.428" r="83.1429" fill="#D6EFF8"/>
<path d="M109.141 148.752L113.778 155.141L118.466 150.555L114.756 143.445L109.141 148.752Z" fill="white"/>
<path d="M113.779 155.45C113.676 155.45 113.573 155.399 113.521 155.296L108.884 148.907C108.781 148.753 108.781 148.598 108.936 148.495L114.552 143.24C114.603 143.188 114.706 143.137 114.809 143.137C114.912 143.137 115.015 143.24 115.067 143.291L118.776 150.35C118.828 150.504 118.828 150.659 118.725 150.762L114.036 155.347C113.985 155.45 113.882 155.45 113.779 155.45ZM109.554 148.753L113.83 154.626L118.055 150.453L114.655 143.961L109.554 148.753Z" fill="#231F20"/>
<path d="M57.78 155.863L53.3491 161.273L48.3516 157.873L53.0915 149.887L57.78 155.863Z" fill="white"/>
<path d="M53.3432 161.579C53.2917 161.579 53.2402 161.579 53.1886 161.528L48.2426 158.179C48.088 158.076 48.0365 157.87 48.1395 157.715L52.828 149.678C52.8795 149.575 52.9825 149.523 53.0856 149.523C53.1886 149.523 53.2917 149.575 53.3947 149.626L58.0832 155.603C58.1862 155.706 58.1862 155.912 58.0832 156.015L53.6523 161.425C53.5493 161.528 53.4462 161.579 53.3432 161.579ZM48.8093 157.767L53.2917 160.807L57.3619 155.861L53.1371 150.451L48.8093 157.767Z" fill="#231F20"/>
<path d="M82.5059 94.6058C82.5059 94.6058 79.1055 128.404 76.7355 134.277C73.026 143.448 57.7757 156.947 57.7757 156.947L50.8203 151.949C50.8203 151.949 56.6937 138.605 60.3002 129.898C61.1246 127.889 60.3002 94.0391 60.3002 94.0391L82.5059 94.6058Z" fill="#231F20"/>
<path d="M60.3047 93.9834C60.3047 93.9834 68.1359 100.681 70.815 104.803C73.4941 108.925 108.477 149.729 108.477 149.729L116.669 144.835L87.4564 88.8828L60.3047 93.9834Z" fill="#231F20"/>
<path d="M81.3199 53.0745C79.5167 52.1471 84.6173 51.5803 88.2238 60.3905L94.6124 75.9499L114.757 73.5799L119.6 80.6899C119.6 80.6899 91.2635 86.2542 90.5422 85.6359C81.0108 76.7743 81.3199 53.0745 81.3199 53.0745Z" fill="white"/>
<path d="M90.9032 85.946C90.6972 85.946 90.5426 85.946 90.3365 85.843C86.3178 82.1334 83.5357 75.4872 82.0416 66.0588C81.3718 61.834 81.0627 57.5062 81.0111 53.23C80.7535 53.0239 80.599 52.8178 80.6505 52.6117C80.6505 52.5087 80.7535 52.2511 81.1657 52.1995C82.4537 52.0965 85.9572 53.8482 88.5333 60.2369L94.8189 75.5902L114.758 73.2202C114.861 73.2202 115.015 73.2718 115.067 73.3748L119.91 80.4847C119.961 80.5878 119.961 80.6908 119.961 80.7939C119.91 80.8969 119.807 80.9484 119.704 81C107.854 83.3184 93.8915 85.946 90.9032 85.946ZM90.7487 85.3277C92.1397 85.5338 108.163 82.5971 119.034 80.4332L114.603 73.89L94.6128 76.26C94.4582 76.26 94.3036 76.2085 94.2521 76.0539L87.8635 60.4945C85.545 54.7756 82.7114 53.23 81.5779 52.9724C81.5779 53.0239 81.5779 53.0239 81.5779 53.0754C81.6809 53.2815 81.4748 76.6722 90.7487 85.3277Z" fill="#231F20"/>
<path d="M76.0701 32.2595C74.9881 31.1775 73.7001 30.1986 72.206 29.8895C70.9179 29.6319 70.1966 30.1471 69.0632 30.5593C68.5995 30.7138 68.548 31.3836 68.0843 31.5382C67.6206 31.6927 66.6932 31.1775 66.178 31.126C62.9321 30.8169 59.8409 32.5171 58.2952 35.3507C57.1102 37.5662 56.595 40.0907 55.3585 42.2546C53.9674 44.8822 51.7005 46.943 50.2064 49.5191C48.4547 52.4558 47.7849 56.1138 48.8153 59.4112C50.8246 66.0574 56.8011 65.9029 62.5715 65.9544C66.7447 65.9544 70.8664 65.0785 74.679 63.3268C77.6672 61.9357 83.1285 58.999 83.8498 55.4441C84.5711 52.0952 83.2831 46.84 82.4072 43.5942C81.3768 39.2664 79.1614 35.4023 76.0701 32.2595Z" fill="white"/>
<path d="M62.6731 66.2664H62.2094C56.4906 66.2664 50.5656 66.2664 48.5048 59.4656C47.5258 56.2713 48.0926 52.4587 49.9473 49.3159C50.6686 48.1309 51.5445 46.9459 52.4204 45.864C53.4508 44.679 54.3267 43.3909 55.0995 42.0514C55.6662 40.9694 56.1299 39.836 56.5421 38.651C56.9542 37.4145 57.4695 36.2295 58.0362 35.096C59.6334 32.1078 62.8792 30.3561 66.2796 30.6652C66.5887 30.7167 66.8463 30.7682 67.1039 30.8713C67.4131 31.0258 67.7222 31.0774 68.0313 31.0774C68.1344 31.0258 68.2374 30.9228 68.3405 30.7682C68.495 30.5106 68.7011 30.3045 68.9587 30.15C69.1648 30.0984 69.3709 29.9954 69.577 29.8924C70.4013 29.4287 71.3802 29.2741 72.3076 29.4802C74.0593 29.8408 75.4504 31.0773 76.3263 31.9532C79.4175 35.1475 81.6329 39.1147 82.7149 43.4425C83.6938 46.9974 84.8788 52.1496 84.1575 55.4469C83.4362 58.8989 78.6962 61.7325 74.7806 63.5873C71.0711 65.3905 66.8979 66.2664 62.6731 66.2664ZM65.5068 31.3865C62.6216 31.335 59.994 32.9321 58.6544 35.4567C58.0877 36.5901 57.624 37.7236 57.2119 38.9086C56.7997 40.0936 56.336 41.2786 55.7693 42.412C54.9964 43.8031 54.0691 45.1427 52.9871 46.3792C52.1112 47.4611 51.2869 48.5431 50.5656 49.7281C48.7624 52.7163 48.2471 56.3228 49.1745 59.311C51.0808 65.5451 56.4906 65.5451 62.2094 65.5966H62.6216C66.7433 65.5966 70.8135 64.7208 74.5745 62.969C79.8297 60.496 83.024 57.8169 83.5392 55.3439C84.209 52.2011 83.024 47.152 82.0966 43.6485C81.0662 39.4238 78.9023 35.6112 75.8626 32.5199C74.523 31.1804 73.3895 30.4591 72.153 30.253C71.3802 30.0984 70.5559 30.253 69.8346 30.6652C69.6285 30.7682 69.4224 30.8197 69.2163 30.9228C69.1133 31.0258 69.0102 31.1289 68.9072 31.2834C68.7526 31.5926 68.495 31.7986 68.1859 31.9017C67.7222 31.9532 67.2585 31.9017 66.8463 31.6956C66.6403 31.5926 66.3826 31.541 66.1766 31.4895C65.9705 31.438 65.7129 31.3865 65.5068 31.3865Z" fill="#231F20"/>
<path d="M53.19 59.1582C57.0026 51.2239 76.4777 45.4535 83.7422 51.5846C91.0067 57.7156 94.201 92.8531 94.201 92.8531L58.3937 100.066C58.3937 100.118 49.3775 67.0925 53.19 59.1582Z" fill="#84AFBF"/>
<path d="M77.0498 57.611C78.6985 64.927 84.0567 96.1489 84.0567 96.1489L75.7103 97.3339L67.0547 57.5595C67.0547 57.5079 68.8064 56.0654 77.0498 57.611Z" fill="#231F20"/>
<path d="M75.398 52.252L76.8406 57.9709C76.8406 57.9709 76.7376 60.753 72.7189 60.856C68.7002 60.9591 67.4122 58.4861 67.4122 58.4861L65.0938 47.7696C65.0938 47.7696 70.1944 43.0297 67.7729 37.1562C67.7729 37.1562 71.3278 41.381 76.7891 39.1656C76.7891 39.1656 78.2832 44.6268 78.5923 47.6666C78.9015 50.7063 75.398 52.252 75.398 52.252Z" fill="white"/>
<path d="M72.5141 61.1647C68.4439 61.1647 67.1559 58.6917 67.1044 58.5886L67.0528 58.4856L64.7344 47.7692C64.7344 47.6661 64.7344 47.5116 64.8374 47.4085C64.8889 47.357 69.7319 42.7716 67.465 37.1558C67.4135 36.9497 67.465 36.7436 67.6711 36.6921C67.8257 36.6406 67.9802 36.6921 68.0833 36.7951C70.2472 39.2166 73.6991 39.9379 76.6873 38.7014C76.8934 38.6499 77.0995 38.7014 77.151 38.9075V38.959C77.2025 39.1651 78.6966 44.4718 79.0058 47.5116C79.3149 50.2937 76.6873 51.9424 75.8115 52.4061L77.2025 57.8158C77.2025 57.8673 77.2025 57.8673 77.2025 57.9189C77.2025 57.9704 77.048 61.0617 72.7202 61.1647H72.5141ZM67.7741 58.2795C67.9287 58.5886 69.1652 60.4949 72.7202 60.4434C76.1206 60.3919 76.4297 58.331 76.4812 57.9704L75.0386 52.303C74.9871 52.1485 75.0902 51.9424 75.2447 51.8909C75.2962 51.8909 78.5936 50.3452 78.2845 47.6146C78.0269 45.0901 76.8934 40.8653 76.5843 39.5773C73.8536 40.5562 70.8139 40.0925 68.5469 38.2893C69.7319 43.1838 66.28 47.0479 65.5072 47.8722L67.7741 58.2795Z" fill="#231F20"/>
<path d="M66.8486 46.8949C65.2514 43.9582 60.4084 45.9675 62.8299 49.1103C63.9118 50.5529 65.9212 50.862 67.3638 49.7801" fill="white"/>
<path d="M65.5039 50.8115C65.3493 50.8115 65.2463 50.8115 65.0917 50.76C64.1128 50.6569 63.1854 50.1417 62.5672 49.3174C61.5367 48.0293 61.7944 46.9989 62.0004 46.5352C62.4641 45.6594 63.3915 45.0926 64.3704 45.0926C65.5039 45.0411 66.5858 45.7109 67.1526 46.6898C67.2556 46.8444 67.2041 47.102 66.998 47.1535C66.8434 47.2565 66.6374 47.205 66.4828 47.0504V46.9989C66.0706 46.2261 65.2463 45.7624 64.4219 45.7624C63.7006 45.7624 63.0309 46.1746 62.6702 46.7928C62.4126 47.3596 62.5672 48.0809 63.1339 48.8537C63.6491 49.5235 64.3704 49.9356 65.1948 50.0387C65.9161 50.0902 66.6374 49.8841 67.1526 49.4204C67.3071 49.3174 67.5132 49.3174 67.6678 49.4719C67.7708 49.6265 67.7708 49.8326 67.6163 49.9871C66.998 50.5539 66.2767 50.8115 65.5039 50.8115Z" fill="#231F20"/>
<path d="M73.0312 43.3398C73.0312 43.3398 75.8649 45.7098 75.5558 46.3281C75.2467 46.9463 73.8556 47.0494 73.8556 47.0494" fill="white"/>
<path d="M73.8491 47.4121C73.643 47.4121 73.4884 47.2575 73.4884 47.0514C73.4884 46.8453 73.643 46.6908 73.8491 46.6908C74.3128 46.6908 75.1371 46.4847 75.2917 46.1756C75.2917 45.8664 74.1582 44.6814 72.8186 43.5995C72.6641 43.4449 72.6641 43.2388 72.7671 43.0843C72.8702 42.9297 73.1278 42.9297 73.2823 43.0328C74.6734 44.1662 76.2706 45.7119 75.9099 46.4847C75.5493 47.2575 74.0552 47.4121 73.8491 47.4121Z" fill="#231F20"/>
<path d="M70.1609 42.9326C70.4316 42.845 70.5517 42.4667 70.429 42.0877C70.3063 41.7087 69.9875 41.4725 69.7167 41.5601C69.446 41.6477 69.326 42.026 69.4486 42.405C69.5713 42.784 69.8902 43.0202 70.1609 42.9326Z" fill="#231F20"/>
<path d="M74.6375 42.6357C74.9082 42.5481 75.0282 42.1698 74.9056 41.7908C74.7829 41.4118 74.464 41.1756 74.1933 41.2632C73.9226 41.3509 73.8026 41.7291 73.9252 42.1081C74.0479 42.4871 74.3668 42.7233 74.6375 42.6357Z" fill="#231F20"/>
<path d="M73.749 49.9851C73.5429 49.9851 73.3368 49.9851 73.1823 49.9336C72.0488 49.676 71.1214 48.9547 70.6062 47.9243C70.5032 47.7697 70.5547 47.5121 70.7608 47.4091C70.9153 47.306 71.1214 47.3576 71.2245 47.5121C71.6366 48.3365 72.4095 48.9547 73.2853 49.1608C74.1612 49.2638 74.9855 49.0062 75.7068 48.491C75.8614 48.388 76.119 48.388 76.222 48.5425C76.3251 48.6971 76.3251 48.9547 76.1705 49.0578C75.4492 49.676 74.6249 49.9336 73.749 49.9851Z" fill="#231F20"/>
<path d="M75.4011 52.2539C75.4011 52.2539 72.4128 52.9237 70.8672 52.46C70.8672 52.46 72.7735 55.6028 76.2254 55.7058L75.4011 52.2539Z" fill="#231F20"/>
<path d="M76.2244 56.0137C72.618 55.9107 70.6601 52.7164 70.5571 52.6133C70.4541 52.4588 70.5571 52.2012 70.7117 52.1496C70.8147 52.0981 70.8662 52.0981 70.9693 52.0981C72.4119 52.5618 75.2971 51.892 75.2971 51.892C75.5031 51.8405 75.7092 51.9436 75.7092 52.1496L76.5336 55.6016C76.5851 55.7046 76.5336 55.8077 76.4821 55.9107C76.4305 56.0137 76.3275 56.0137 76.2244 56.0137ZM71.6906 52.9225C72.721 54.159 74.1636 54.9833 75.7608 55.2409L75.1425 52.6133C74.009 52.8709 72.824 52.974 71.6906 52.9225Z" fill="#231F20"/>
<path d="M80.3404 60.1859C79.5161 60.1344 78.7433 60.0314 77.9705 59.7738C77.8159 59.7223 77.6613 59.5677 77.7128 59.4131C77.7644 59.2586 77.9189 59.104 78.0735 59.1555H78.125C78.6918 59.3101 80.4435 59.7222 81.2163 59.3616C81.3193 58.8979 79.2585 56.1673 77.2492 53.9519C77.1461 53.7973 77.1461 53.5912 77.2492 53.4882C77.3522 53.3851 77.5583 53.3336 77.7128 53.4882C78.7433 54.6216 82.0406 58.3827 81.8346 59.5162C81.783 59.7223 81.68 59.8768 81.4739 59.9283C81.1133 60.0829 80.7526 60.1859 80.3404 60.1859Z" fill="#231F20"/>
<path d="M64.4227 60.5492C63.8044 60.6007 63.1862 60.4462 62.6194 60.0855C61.6921 59.4157 62.8255 57.5094 64.1651 55.5001C64.3712 55.2425 64.5257 54.9849 64.6803 54.7273C64.7318 54.5727 64.9379 54.4697 65.0925 54.5212C65.247 54.5727 65.3501 54.7788 65.2985 54.9334C65.144 55.2425 64.9379 55.5516 64.7318 55.8608C62.877 58.5914 62.774 59.3642 62.9801 59.5703C63.7014 60.0855 65.247 59.8794 65.7622 59.7249C65.9168 59.6733 66.1229 59.7764 66.1744 59.9825C66.2259 60.137 66.1229 60.3431 65.9168 60.3946C65.4531 60.4977 64.9379 60.5492 64.4227 60.5492Z" fill="#231F20"/>
<path d="M123.148 100.867C141.65 100.867 156.648 85.8687 156.648 67.3672C156.648 48.8657 141.65 33.8672 123.148 33.8672C104.647 33.8672 89.6484 48.8657 89.6484 67.3672C89.6484 85.8687 104.647 100.867 123.148 100.867Z" fill="#231F20"/>
<path d="M121.148 97.8672C139.65 97.8672 154.648 82.8687 154.648 64.3672C154.648 45.8656 139.65 30.8672 121.148 30.8672C102.647 30.8672 87.6484 45.8656 87.6484 64.3672C87.6484 82.8687 102.647 97.8672 121.148 97.8672Z" fill="white"/>
<path d="M121.21 98.8671C102.71 98.9086 87.6484 83.7052 87.6484 64.9295C87.6484 46.1537 102.587 30.8672 121.087 30.8672C139.587 30.8672 154.648 46.0291 154.648 64.8048C154.648 66.508 154.526 68.2111 154.28 69.8726C151.865 86.4884 137.786 98.8256 121.21 98.8671ZM121.128 31.3657C102.915 31.3657 88.1396 46.3614 88.1396 64.8464C88.1396 83.3314 102.915 98.3271 121.128 98.3271C137.458 98.3271 151.333 86.1976 153.748 69.7896C156.408 51.4707 143.966 34.4396 125.917 31.7395C124.361 31.4903 122.724 31.3657 121.128 31.3657Z" fill="#231F20"/>
<path d="M121.148 90.8671C106.499 90.8671 94.6484 79.0161 94.6484 64.3671C94.6484 49.7181 106.499 37.8672 121.148 37.8672C135.798 37.8672 147.648 49.7181 147.648 64.3671C147.648 65.6839 147.566 67.0007 147.36 68.2763C145.468 81.2793 134.275 90.9082 121.148 90.8671ZM121.066 38.4433C106.705 38.4433 95.0599 50.0884 95.0599 64.4494C95.0599 78.8104 106.705 90.4556 121.066 90.4556C135.427 90.4556 147.072 78.8104 147.072 64.4494C147.072 51.5698 137.649 40.6653 124.934 38.7313C123.659 38.5667 122.383 38.4433 121.066 38.4433Z" fill="#D1D3D4"/>
<path d="M120.148 50.8672L124.635 59.7823L134.648 61.1832L127.366 68.0606L129.122 77.8672L120.148 73.2186L111.175 77.8672L112.931 68.0606L105.648 61.1832L115.662 59.7823L120.148 50.8672Z" fill="#84AFBF"/>
<path d="M60.8723 60.9091C68.8581 64.9278 73.8041 70.8527 77.8743 70.1829C81.9445 69.5132 96.7311 61.8365 96.7311 61.8365C96.7311 61.8365 98.4828 57.0965 99.7193 56.4783C100.956 55.86 100.183 58.7967 99.9769 60.9606C99.9769 60.9606 107.035 57.2511 107.551 59.9302C108.22 63.176 105.438 63.9489 102.244 65.9582C99.0495 67.9675 79.7291 82.2389 75.4013 81.0024C71.0735 79.7659 57.0597 71.471 56.6475 71.2134C51.8045 68.3797 52.8865 56.8904 60.8723 60.9091Z" fill="white"/>
<path d="M76.0179 81.3614C75.7603 81.3614 75.5542 81.3098 75.2966 81.2583C71.4841 80.1248 59.9948 73.5301 56.5944 71.5723L56.4398 71.4693C53.4001 69.7175 52.6273 64.7715 54.1214 61.9378C54.7396 60.8044 56.5944 58.4344 60.9737 60.5983C63.8589 62.1439 66.6926 63.8956 69.3202 65.8535C72.7721 68.275 75.4512 70.2328 77.7697 69.8206C81.5307 69.2023 95.0808 62.247 96.4719 61.5257C96.781 60.6498 98.3267 56.7342 99.5632 56.1159C99.8208 55.9614 100.13 55.9614 100.388 56.1159C100.903 56.4766 100.8 57.507 100.491 59.2587C100.439 59.6194 100.388 59.98 100.336 60.2892C101.779 59.5679 105.437 57.9192 107.085 58.692C107.497 58.8981 107.807 59.2587 107.858 59.7224C108.425 62.6076 106.519 63.6896 104.097 65.0806C103.582 65.3898 103.015 65.6989 102.397 66.1111C101.779 66.5232 100.748 67.2445 99.3571 68.1719C89.465 75.1273 79.882 81.3614 76.0179 81.3614ZM57.7794 60.3922C56.4914 60.3922 55.3064 61.1135 54.7396 62.247C53.3486 64.823 54.0183 69.2539 56.8005 70.851L56.9551 70.9541C60.3555 72.9634 71.7417 79.5066 75.5027 80.5885C78.9031 81.5674 92.9684 71.8299 98.9964 67.7082C100.388 66.7293 101.469 65.9565 102.088 65.5958C102.706 65.2352 103.273 64.8745 103.788 64.5654C106.158 63.2259 107.704 62.2985 107.24 59.877C107.188 59.6194 107.034 59.4133 106.828 59.3102C105.437 58.6405 101.521 60.3922 100.13 61.165C100.027 61.2165 99.8723 61.2165 99.8208 61.165C99.7177 61.1135 99.6662 60.9589 99.6662 60.8559C99.7177 60.3407 99.8208 59.7224 99.8723 59.1557C99.9753 58.2798 100.181 56.8887 100.027 56.6311C100.027 56.6311 99.9753 56.6311 99.8723 56.6827C99.048 57.0948 97.7084 60.0831 97.0386 61.8348C96.9871 61.8863 96.9356 61.9894 96.8841 62.0409C96.2658 62.35 81.9429 69.8206 77.8727 70.4904C75.2966 70.9025 72.5145 68.8932 68.9595 66.4202C66.3319 64.4624 63.6013 62.7107 60.7161 61.2165C59.8402 60.7013 58.8098 60.4437 57.7794 60.3922Z" fill="#231F20"/>
<path d="M55.6149 73.0675L70.8652 81.6201L75.6052 67.4002C75.6052 67.4002 57.9849 57.4051 55.5634 58.2809C53.1419 59.1568 49.793 66.8335 55.6149 73.0675Z" fill="#84AFBF"/>
<path d="M70.86 81.9307C70.8085 81.9307 70.757 81.9307 70.7054 81.8792L55.4551 73.3782C55.3006 73.2751 55.249 73.069 55.3006 72.9145C55.4036 72.7599 55.6097 72.7084 55.7643 72.8114L71.0146 81.364C71.1691 81.467 71.2207 81.6731 71.1691 81.8277C71.0661 81.8792 70.963 81.9307 70.86 81.9307Z" fill="#231F20"/>
<path d="M75.602 67.7103C75.5505 67.7103 75.4989 67.7103 75.4474 67.6587L59.9395 59.9305C59.7849 59.8275 59.7334 59.6729 59.7849 59.4668C59.888 59.3123 60.0426 59.2608 60.2486 59.3123L75.7565 67.0405C75.9111 67.092 76.0142 67.2981 75.9111 67.5042C75.8596 67.6587 75.7566 67.7103 75.602 67.7103Z" fill="#231F20"/>
<path d="M48.3489 156.273L45 162.353C47.8852 164.105 51.0795 165.187 54.3769 165.547C55.3043 165.65 62.0536 165.856 61.7959 164.62C61.5383 163.383 54.4284 160.653 54.4284 160.653L56.3862 158.695L48.3489 156.273Z" fill="#231F20"/>
<path d="M118.466 148.547L111.562 153.647C111.562 153.647 115.736 160.603 116.199 160.448C116.663 160.294 129.492 151.999 128.461 151.381C125.679 149.629 120.527 152.153 120.527 152.153L118.466 148.547Z" fill="#231F20"/>
</svg>
