<svg width="192" height="192" viewBox="0 0 192 192" fill="none" xmlns="http://www.w3.org/2000/svg">
<circle cx="96.0022" cy="99.428" r="83.1429" fill="#D6EFF8"/>
<path d="M148.374 43.9648H74.1484V147.35H148.374V43.9648Z" fill="white"/>
<path d="M133.896 141.405H88.4064C87.935 141.41 87.4675 141.318 87.0334 141.135C86.5994 140.951 86.2083 140.68 85.8846 140.339C85.561 139.998 85.3118 139.593 85.1529 139.151C84.994 138.709 84.9287 138.239 84.9613 137.771L85.5114 128.123C85.5789 127.154 86.0101 126.245 86.7193 125.578C87.4285 124.91 88.3639 124.533 89.3398 124.52H134.829C135.301 124.514 135.768 124.606 136.202 124.79C136.636 124.973 137.027 125.244 137.351 125.586C137.675 125.927 137.924 126.331 138.083 126.773C138.242 127.215 138.307 127.685 138.274 128.154L137.724 137.805C137.656 138.774 137.224 139.681 136.515 140.348C135.806 141.015 134.871 141.392 133.896 141.405ZM89.3398 125.045C88.4991 125.056 87.6935 125.382 87.0827 125.957C86.4719 126.532 86.1006 127.315 86.0426 128.15L85.4925 137.801C85.4646 138.198 85.5196 138.595 85.6539 138.969C85.7882 139.343 85.9989 139.686 86.2727 139.974C86.5465 140.263 86.8774 140.493 87.2447 140.648C87.6119 140.803 88.0075 140.881 88.4064 140.876H133.896C134.737 140.866 135.543 140.541 136.154 139.965C136.765 139.39 137.136 138.606 137.193 137.771L137.762 128.123C137.789 127.726 137.733 127.328 137.599 126.953C137.464 126.578 137.254 126.234 136.981 125.944C136.707 125.656 136.376 125.427 136.009 125.272C135.642 125.117 135.247 125.04 134.848 125.045H89.3398Z" fill="#231F20"/>
<path d="M98.2546 135.85L96.9706 133.647H96.0145V135.85H94.7578V129.504H97.3076C97.8964 129.504 98.3973 129.709 98.8101 130.12C99.2229 130.531 99.4293 131.027 99.4293 131.607C99.4293 132 99.317 132.366 99.0924 132.704C98.8678 133.037 98.5703 133.287 98.2 133.457L99.6114 135.85H98.2546ZM96.0145 130.673V132.55H97.3076C97.5443 132.55 97.7477 132.459 97.9177 132.278C98.0877 132.091 98.1726 131.867 98.1726 131.607C98.1726 131.347 98.0877 131.127 97.9177 130.945C97.7477 130.764 97.5443 130.673 97.3076 130.673H96.0145Z" fill="#16242A"/>
<path d="M102.154 134.653H104.841V135.85H100.898V129.504H104.795V130.701H102.154V132.051H104.568V133.23H102.154V134.653Z" fill="#16242A"/>
<path d="M108.804 129.504C109.679 129.504 110.407 129.809 110.99 130.42C111.579 131.03 111.873 131.782 111.873 132.677C111.873 133.571 111.579 134.324 110.99 134.934C110.407 135.545 109.679 135.85 108.804 135.85H106.273V129.504H108.804ZM108.804 134.653C109.357 134.653 109.806 134.472 110.152 134.109C110.498 133.741 110.671 133.263 110.671 132.677C110.671 132.091 110.498 131.616 110.152 131.254C109.806 130.885 109.357 130.701 108.804 130.701H107.53V134.653H108.804Z" fill="#16242A"/>
<path d="M114.568 134.653H117.254V135.85H113.311V129.504H117.208V130.701H114.568V132.051H116.981V133.23H114.568V134.653Z" fill="#16242A"/>
<path d="M119.943 134.653H122.629V135.85H118.686V129.504H122.584V130.701H119.943V132.051H122.356V133.23H119.943V134.653Z" fill="#16242A"/>
<path d="M130.299 129.504V135.85H129.052V131.734L127.258 134.681H127.112L125.318 131.743V135.85H124.061V129.504H125.354L127.185 132.505L129.006 129.504H130.299Z" fill="#16242A"/>
<path d="M148.992 147.351H74.4137C74.3433 147.351 74.2759 147.315 74.2261 147.25C74.1764 147.185 74.1484 147.098 74.1484 147.006V43.4271C74.1484 43.3356 74.1764 43.2478 74.2261 43.1831C74.2759 43.1184 74.3433 43.082 74.4137 43.082H148.992C149.062 43.082 149.13 43.1184 149.18 43.1831C149.229 43.2478 149.257 43.3356 149.257 43.4271V146.991C149.259 147.038 149.253 147.084 149.24 147.128C149.228 147.171 149.209 147.211 149.184 147.245C149.159 147.279 149.129 147.305 149.096 147.324C149.063 147.342 149.028 147.351 148.992 147.351ZM74.6903 146.661H148.727V43.7722H74.6903V146.661Z" fill="#231F20"/>
<path d="M143.975 48.3359H78.9453V106.6H143.975V48.3359Z" fill="white"/>
<path d="M143.975 106.855H78.9531C78.8827 106.855 78.8151 106.827 78.7653 106.778C78.7155 106.728 78.6875 106.661 78.6875 106.591V48.3386C78.6875 48.2685 78.7155 48.2013 78.7653 48.1517C78.8151 48.1021 78.8827 48.0742 78.9531 48.0742H143.975C144.046 48.0742 144.113 48.1021 144.163 48.1517C144.213 48.2013 144.241 48.2685 144.241 48.3386V106.602C144.238 106.67 144.209 106.735 144.159 106.782C144.11 106.829 144.044 106.855 143.975 106.855ZM79.2111 106.326H143.714V48.6031H79.2111V106.326Z" fill="#D1D3D4"/>
<path d="M131.872 98.3132H89.9134C89.8868 98.3132 89.8605 98.308 89.8359 98.2979C89.8113 98.2877 89.789 98.2729 89.7702 98.2542C89.7514 98.2355 89.7365 98.2132 89.7263 98.1888C89.7162 98.1643 89.7109 98.1381 89.7109 98.1117C89.7109 98.0852 89.7162 98.059 89.7263 98.0346C89.7365 98.0101 89.7514 97.9879 89.7702 97.9692C89.789 97.9505 89.8113 97.9356 89.8359 97.9255C89.8605 97.9154 89.8868 97.9102 89.9134 97.9102H131.872C131.898 97.9102 131.925 97.9154 131.949 97.9255C131.974 97.9356 131.996 97.9505 132.015 97.9692C132.034 97.9879 132.049 98.0101 132.059 98.0346C132.069 98.059 132.074 98.0852 132.074 98.1117C132.074 98.1381 132.069 98.1643 132.059 98.1888C132.049 98.2132 132.034 98.2355 132.015 98.2542C131.996 98.2729 131.974 98.2877 131.949 98.2979C131.925 98.308 131.898 98.3132 131.872 98.3132Z" fill="#D1D3D4"/>
<path d="M121.433 101.45H89.9134C89.8597 101.45 89.8082 101.429 89.7702 101.391C89.7323 101.353 89.7109 101.302 89.7109 101.248C89.7109 101.195 89.7323 101.144 89.7702 101.106C89.8082 101.068 89.8597 101.047 89.9134 101.047H121.433C121.486 101.047 121.538 101.068 121.576 101.106C121.614 101.144 121.635 101.195 121.635 101.248C121.635 101.302 121.614 101.353 121.576 101.391C121.538 101.429 121.486 101.45 121.433 101.45Z" fill="#D1D3D4"/>
<path d="M82.0073 133.999C83.6984 133.999 85.0692 132.634 85.0692 130.951C85.0692 129.267 83.6984 127.902 82.0073 127.902C80.3162 127.902 78.9453 129.267 78.9453 130.951C78.9453 132.634 80.3162 133.999 82.0073 133.999Z" fill="white"/>
<path d="M85.0126 101.452C84.511 101.452 84.0207 101.304 83.6036 101.026C83.1866 100.749 82.8615 100.355 82.6696 99.8933C82.4777 99.432 82.4274 98.9243 82.5253 98.4346C82.6231 97.9448 82.8647 97.4949 83.2193 97.1418C83.574 96.7887 84.0259 96.5483 84.5178 96.4509C85.0098 96.3534 85.5197 96.4034 85.9831 96.5945C86.4465 96.7856 86.8425 97.1092 87.1212 97.5244C87.3999 97.9396 87.5486 98.4278 87.5486 98.9271C87.5486 99.2587 87.483 99.587 87.3555 99.8933C87.2281 100.2 87.0413 100.478 86.8058 100.712C86.5703 100.947 86.2908 101.133 85.9831 101.26C85.6754 101.387 85.3456 101.452 85.0126 101.452ZM85.0126 96.8054C84.5911 96.8054 84.179 96.9298 83.8286 97.163C83.4781 97.3961 83.2049 97.7275 83.0436 98.1152C82.8823 98.5029 82.8401 98.9295 82.9223 99.3411C83.0046 99.7526 83.2076 100.131 83.5056 100.427C83.8037 100.724 84.1834 100.926 84.5968 101.008C85.0102 101.09 85.4387 101.048 85.8281 100.887C86.2176 100.727 86.5504 100.455 86.7846 100.106C87.0188 99.757 87.1438 99.3468 87.1438 98.9271C87.143 98.3647 86.9182 97.8254 86.5187 97.4277C86.1192 97.0299 85.5776 96.8062 85.0126 96.8054Z" fill="#D1D3D4"/>
<path d="M140.168 51.6978L82.4219 52.2617L82.8332 94.0161L140.58 93.4522L140.168 51.6978Z" fill="white"/>
<path d="M140.596 93.5409L82.8373 94.1049C82.7869 94.1054 82.7487 94.0681 82.7482 94.018L82.3368 52.2636C82.3363 52.2134 82.3738 52.1754 82.4242 52.1749L140.17 51.611C140.221 51.6105 140.259 51.6478 140.26 51.6979L140.671 93.4524C140.684 93.5024 140.647 93.5404 140.596 93.5409ZM82.9238 93.9285L140.506 93.3662L140.097 51.7873L82.5141 52.3496L82.9238 93.9285Z" fill="#231F20"/>
<path d="M119.965 54.842C119.928 54.8424 119.902 54.8176 119.889 54.7926C119.864 54.7427 119.888 54.6923 119.939 54.6793L120.73 54.3455C120.767 54.3201 120.83 54.3445 120.843 54.382C120.869 54.4194 120.844 54.4823 120.807 54.4952C120.807 54.4952 120.807 54.4952 120.794 54.4954L120.003 54.8291C119.991 54.8418 119.978 54.8419 119.965 54.842Z" fill="#D1D3D4"/>
<path d="M111.825 75.1505C111.774 75.151 111.736 75.1012 111.748 75.0509C111.748 75.0258 111.76 75.0006 111.785 74.9879L112.312 74.7194C112.35 74.6939 112.413 74.7184 112.426 74.7559C112.451 74.7933 112.427 74.8562 112.389 74.8691L111.862 75.1376C111.85 75.1503 111.837 75.1504 111.825 75.1505Z" fill="#D1D3D4"/>
<path d="M105.201 69.7081C105.15 69.7086 105.112 69.6713 105.112 69.6212C105.111 69.5961 105.124 69.5834 105.136 69.5582L106.072 68.6086C106.11 68.5706 106.16 68.5701 106.199 68.6073C106.237 68.6446 106.237 68.6947 106.2 68.7327L105.264 69.6824C105.251 69.695 105.226 69.7078 105.201 69.7081Z" fill="#D1D3D4"/>
<path d="M84.969 76.5784C84.9312 76.5787 84.8932 76.554 84.8801 76.504C84.867 76.454 84.9044 76.416 84.9547 76.403L85.9615 76.2301C86.0118 76.2171 86.05 76.2543 86.0631 76.3044C86.0762 76.3544 86.0388 76.3924 85.9885 76.4054L84.9943 76.5781L84.969 76.5784Z" fill="#D1D3D4"/>
<path d="M87.9144 92.1745L87.9017 92.1747C87.4217 92.079 86.9299 92.0587 86.4388 92.1137C86.3883 92.1142 86.3503 92.0895 86.3372 92.0395C86.3367 91.9893 86.3615 91.9514 86.4118 91.9384C86.9155 91.8833 87.4326 91.9034 87.9378 91.9987C87.9884 92.0108 88.014 92.0482 88.0145 92.0983C88.0023 92.1486 87.9648 92.174 87.9144 92.1745Z" fill="#D1D3D4"/>
<path d="M96.3437 91.015C96.2933 91.0155 96.2551 90.9783 96.2546 90.9281C96.2542 90.8905 96.2792 90.8652 96.3043 90.8524L97.1955 90.455C97.2458 90.4419 97.2964 90.4665 97.3094 90.504C97.3224 90.5415 97.3103 90.5918 97.2727 90.6172L96.3815 91.0147C96.3689 91.0148 96.3563 91.0149 96.3437 91.015Z" fill="#D1D3D4"/>
<path d="M127.335 69.1661C127.309 69.1663 127.284 69.1541 127.271 69.1416C127.233 69.1044 127.245 69.0541 127.283 69.0161C127.558 68.7877 127.871 68.6091 128.21 68.5055C128.261 68.4924 128.311 68.517 128.325 68.567C128.338 68.6171 128.313 68.6675 128.263 68.6805C127.948 68.7839 127.648 68.9499 127.398 69.1655C127.372 69.1532 127.36 69.1658 127.335 69.1661Z" fill="#D1D3D4"/>
<path d="M120.272 69.3218C120.246 69.322 120.221 69.3097 120.196 69.2849C120.17 69.2475 120.169 69.1848 120.219 69.1593L121.021 68.5746C121.058 68.5491 121.121 68.5485 121.147 68.5984C121.172 68.6358 121.173 68.6985 121.123 68.7241L120.322 69.3087C120.309 69.3214 120.297 69.3215 120.272 69.3218Z" fill="#D1D3D4"/>
<path d="M136.649 54.6427C136.636 54.6428 136.624 54.643 136.611 54.6306C136.573 54.6058 136.547 54.5559 136.572 54.5181C136.708 54.2283 136.92 53.9629 137.183 53.7848C137.22 53.7593 137.271 53.7588 137.309 53.7961C137.334 53.8335 137.335 53.8836 137.297 53.9216C137.297 53.9216 137.285 53.9217 137.285 53.9343C137.047 54.0996 136.848 54.3273 136.737 54.5917C136.712 54.6296 136.687 54.6424 136.649 54.6427Z" fill="#D1D3D4"/>
<path d="M101.772 68.2226C101.76 68.2227 101.734 68.2229 101.722 68.2105C101.684 68.1858 101.671 68.1358 101.695 68.0854C101.819 67.8835 102.071 67.7933 102.298 67.8538C102.349 67.8658 102.374 67.9157 102.362 67.9534C102.35 68.0037 102.3 68.0293 102.262 68.0171C102.262 68.0171 102.262 68.0171 102.249 68.0173C102.098 67.9811 101.934 68.0329 101.847 68.1717C101.835 68.2094 101.81 68.2222 101.772 68.2226Z" fill="#D1D3D4"/>
<path d="M84.6635 54.1849C84.6131 54.1854 84.5749 54.1481 84.5744 54.098C84.5741 54.0604 84.5864 54.0352 84.6241 54.0223L85.2889 53.6772C85.3392 53.6642 85.3897 53.6762 85.4028 53.7262C85.4158 53.7637 85.4037 53.814 85.3661 53.8395L84.7014 54.1845C84.6887 54.1847 84.6761 54.1848 84.6635 54.1849Z" fill="#D1D3D4"/>
<path d="M93.9673 60.0701L84.2344 66.3672L98.3799 88.0002L108.113 81.7032L93.9673 60.0701Z" fill="white"/>
<path d="M93.9786 60.0741L108.122 81.7056L98.3887 87.9954L84.2324 66.3641L93.9786 60.0741ZM93.9642 59.8987C93.9264 59.8991 93.9013 59.9119 93.8636 59.9248L84.1302 66.2272C84.0551 66.2781 84.031 66.3911 84.0822 66.4659L98.2258 88.0973C98.2514 88.1347 98.2895 88.1594 98.34 88.1715L98.3778 88.1711C98.4156 88.1707 98.4407 88.1579 98.4784 88.145L108.212 81.8427C108.3 81.7916 108.311 81.6787 108.26 81.6039L94.1162 59.9725C94.0907 59.9351 94.0526 59.9104 94.0021 59.8983L93.9642 59.8987Z" fill="#231F20"/>
<path d="M89.651 62.8661L88.5625 63.5703L102.708 85.2034L103.796 84.4991L89.651 62.8661Z" fill="#D1D3D4"/>
<path d="M87.065 64.534L85.9766 65.2383L100.122 86.8713L101.211 86.1671L87.065 64.534Z" fill="#D1D3D4"/>
<path d="M92.3072 61.1473L91.2188 61.8516L105.364 83.4846L106.453 82.7804L92.3072 61.1473Z" fill="#D1D3D4"/>
<path d="M85.5655 55.9184C85.5655 55.9184 84.8185 59.437 82.4667 61.2908L92.6092 63.2483L85.5655 55.9184Z" fill="#84AFBF"/>
<path d="M92.6135 63.3381L92.6009 63.3383L82.4583 61.3807C82.4204 61.3686 82.3949 61.3437 82.3947 61.3187C82.3817 61.2812 82.3941 61.256 82.419 61.2306C84.7208 59.4149 85.4807 55.9339 85.4929 55.8962C85.5052 55.8584 85.5175 55.8332 85.5554 55.8329C85.5931 55.8199 85.6184 55.8322 85.6438 55.8571L92.6876 63.1869C92.7131 63.2118 92.7262 63.2618 92.7012 63.2871C92.6763 63.3124 92.6513 63.3378 92.6135 63.3381ZM82.6713 61.2407L92.3591 63.1149L85.621 56.0956C85.4388 56.7996 84.6344 59.6039 82.6713 61.2407Z" fill="#231F20"/>
<path d="M92.6142 63.2491L91.2969 53.6562C91.2969 53.6562 94.3522 55.3946 97.2109 55.0782L92.6142 63.2491Z" fill="#84AFBF"/>
<path d="M92.6104 63.3347L92.5978 63.3348C92.5599 63.3226 92.5344 63.2978 92.5215 63.2603L91.2041 53.6675C91.2037 53.6299 91.2161 53.6047 91.241 53.5793C91.2661 53.5666 91.3039 53.5662 91.3293 53.5785C91.3546 53.5908 94.397 55.2916 97.1928 55.001C97.2307 55.0006 97.256 55.0129 97.2815 55.0377C97.2943 55.0627 97.2947 55.1003 97.2823 55.1255L92.6857 63.2963C92.6733 63.3215 92.6356 63.3344 92.6104 63.3347ZM91.4073 53.816L92.6574 62.9831L97.0434 55.1905C94.6122 55.3773 92.0535 54.1483 91.4073 53.816Z" fill="#231F20"/>
<path d="M92.613 63.2469L101.364 59.6251C101.364 59.6251 100.417 63.2961 101.766 65.8536L92.613 63.2469Z" fill="#84AFBF"/>
<path d="M101.762 65.9303C101.75 65.9304 101.75 65.9304 101.737 65.9305L92.5841 63.3363C92.5461 63.3241 92.5207 63.2993 92.5203 63.2617C92.5199 63.2241 92.5448 63.1862 92.5698 63.1734L101.321 59.5391C101.346 59.5263 101.384 59.526 101.409 59.5508C101.435 59.5756 101.448 59.6131 101.435 59.6383C101.423 59.6761 100.513 63.2965 101.824 65.8043C101.837 65.8292 101.837 65.8668 101.812 65.9047C101.813 65.9298 101.787 65.9426 101.762 65.9303ZM92.873 63.2332L101.596 65.7062C100.54 63.4718 101.091 60.4944 101.248 59.7656L92.873 63.2332Z" fill="#231F20"/>
<path d="M92.6094 63.2461L93.05 73.4243C93.05 73.4243 96.7299 70.7299 98.8258 71.048L92.6094 63.2461Z" fill="#84AFBF"/>
<path d="M93.0541 73.5141C93.0415 73.5142 93.0289 73.5143 93.0162 73.5019C92.9908 73.4896 92.9653 73.4523 92.965 73.4272L92.5244 63.2489C92.524 63.2113 92.5488 63.1735 92.5865 63.1606C92.6242 63.1476 92.6621 63.1598 92.6876 63.1846L98.904 70.9866C98.9294 71.0114 98.9299 71.0616 98.905 71.0869C98.8926 71.1121 98.855 71.1375 98.8171 71.1254C96.797 70.819 93.1543 73.4504 93.1169 73.4884C93.0919 73.5137 93.0667 73.514 93.0541 73.5141ZM92.7162 63.5229L93.14 73.275C93.8035 72.8045 96.709 70.845 98.6264 70.9642L92.7162 63.5229Z" fill="#231F20"/>
<path d="M92.6133 63.246L87.026 71.9533C87.026 71.9533 85.0844 68.0973 83.0482 67.4401L92.6133 63.246Z" fill="#84AFBF"/>
<path d="M87.0221 72.0422C86.9843 72.0426 86.9589 72.0177 86.946 71.9928C86.9204 71.9554 84.9922 68.1746 83.0191 67.5292C82.9812 67.5171 82.9557 67.4922 82.9554 67.4546C82.955 67.417 82.9798 67.3791 83.0049 67.3664L92.57 63.1723C92.6077 63.1594 92.6456 63.1716 92.6711 63.1964C92.6965 63.2213 92.697 63.2714 92.6721 63.2968L87.0848 72.004C87.0724 72.0292 87.0347 72.0421 87.0095 72.0423L87.0221 72.0422ZM83.2704 67.439C85.0427 68.1866 86.6725 71.1051 87.0322 71.7788L92.371 63.4502L83.2704 67.439Z" fill="#231F20"/>
<path d="M83.0462 67.4445C83.0462 67.4445 84.1207 63.8977 82.4688 61.293L92.6113 63.2505L83.0462 67.4445Z" fill="white"/>
<path d="M83.0457 67.5292C83.0205 67.5294 83.0078 67.517 82.9825 67.5047C82.957 67.4799 82.944 67.4424 82.9564 67.4172C82.9686 67.3794 83.993 63.8707 82.3796 61.3409C82.3542 61.316 82.3538 61.2784 82.3787 61.2406C82.4036 61.2152 82.4287 61.2024 82.4665 61.2021L92.6091 63.1596C92.6596 63.1717 92.6852 63.209 92.6857 63.2592C92.6859 63.2843 92.661 63.3096 92.6359 63.3224L83.0836 67.5288C83.0709 67.5289 83.0583 67.529 83.0457 67.5292ZM82.6451 61.4135C83.9531 63.658 83.3638 66.5479 83.1821 67.2896L92.3203 63.2753L82.6451 61.4135Z" fill="#231F20"/>
<path d="M85.5686 55.9178C85.5686 55.9178 88.4716 56.2656 91.295 53.6548L92.6124 63.2476L85.5686 55.9178Z" fill="white"/>
<path d="M92.6121 63.336C92.5869 63.3363 92.5615 63.324 92.5488 63.3116L85.505 55.9817C85.4795 55.9569 85.4792 55.9193 85.4914 55.8815C85.5036 55.8438 85.5413 55.8309 85.5792 55.8305C85.6044 55.8303 88.4692 56.1409 91.2302 53.5933C91.2551 53.568 91.293 53.5677 91.3183 53.5799C91.3436 53.5922 91.3691 53.6171 91.3695 53.6547L92.6868 63.2475C92.6872 63.2851 92.675 63.3229 92.6373 63.3358C92.6373 63.3358 92.6248 63.3484 92.6121 63.336ZM85.7953 56.0165L92.4952 62.986L91.2325 53.8316C90.1455 54.8203 88.8286 55.5103 87.3947 55.8504C86.8664 55.9684 86.3249 56.0239 85.7953 56.0165Z" fill="#231F20"/>
<path d="M97.2079 55.0754C97.2079 55.0754 97.5154 58.1322 101.362 59.612L92.6113 63.2463L97.2079 55.0754Z" fill="white"/>
<path d="M92.6152 63.3386C92.5648 63.3391 92.5266 63.3019 92.5261 63.2517C92.526 63.2392 92.5259 63.2266 92.5383 63.214L97.135 55.0431C97.1598 55.0053 97.2101 54.9922 97.2608 55.0168C97.2861 55.0291 97.299 55.0541 97.2992 55.0791C97.3934 55.6801 97.6134 56.2548 97.9336 56.7658C98.4336 57.6137 99.4412 58.7952 101.403 59.5409C101.453 59.553 101.466 59.6156 101.454 59.6533C101.442 59.6785 101.429 59.6912 101.404 59.704L92.653 63.3382C92.6404 63.3384 92.6278 63.3385 92.6152 63.3386ZM97.1758 55.3437L92.8143 63.0733L101.139 59.6313C98.1008 58.3819 97.347 56.0944 97.1758 55.3437Z" fill="#231F20"/>
<path d="M101.762 65.8434C100.136 67.1383 99.0828 69.0046 98.8258 71.0636L92.6094 63.2617L101.762 65.8434Z" fill="white"/>
<path d="M98.8283 71.1361C98.8031 71.1364 98.7778 71.1241 98.7523 71.0993L92.5359 63.2973C92.5105 63.2725 92.51 63.2223 92.5349 63.197C92.5599 63.1717 92.5975 63.1462 92.6354 63.1584L101.788 65.7652C101.826 65.7773 101.839 65.8023 101.852 65.8398C101.853 65.8774 101.84 65.9026 101.815 65.9279C101.79 65.9407 99.3118 67.7456 98.9159 71.0726C98.9163 71.1102 98.8913 71.1355 98.8536 71.1484C98.841 71.1485 98.8284 71.1487 98.8283 71.1361ZM92.8522 63.4071L98.7623 70.8358C99.1883 68.0101 101.05 66.3116 101.575 65.8801L92.8522 63.4071Z" fill="#231F20"/>
<path d="M93.0507 73.4275C93.0507 73.4275 90.4374 71.7727 87.0227 71.9565L92.61 63.2493L93.0507 73.4275Z" fill="white"/>
<path d="M93.0516 73.5129C93.039 73.513 93.0137 73.5133 93.001 73.5009C92.9757 73.4886 90.3752 71.8587 87.0236 72.0419C86.9858 72.0423 86.9605 72.03 86.9475 71.9925C86.9346 71.9675 86.9343 71.9299 86.9466 71.9047L92.5339 63.1975C92.5588 63.1596 92.6217 63.1465 92.6597 63.1712C92.6851 63.1835 92.6979 63.2084 92.6982 63.2335L93.1388 73.4117C93.1392 73.4494 93.1268 73.4746 93.0891 73.4875C93.0894 73.5125 93.0642 73.5128 93.0516 73.5129ZM87.4756 71.8494C90.2236 71.8225 92.3904 72.9425 92.9609 73.263L92.5371 63.5235L87.1982 71.8521L87.4756 71.8494Z" fill="#231F20"/>
<path d="M120.696 65.2194L110.95 71.5219L100.454 55.4602L100.032 54.8123L98.8672 53.043L112.633 52.9085L120.696 65.2194Z" fill="white"/>
<path d="M112.626 52.9066L120.677 65.2175L110.944 71.5199L100.448 55.4583L100.013 54.7979L98.8609 53.0284L112.626 52.9066ZM112.637 52.7309L98.8593 52.8654C98.7963 52.866 98.7336 52.9043 98.7089 52.9547C98.6716 53.0052 98.6723 53.0804 98.7106 53.1302L99.8627 54.8997L100.298 55.56L110.794 71.6217C110.819 71.6591 110.857 71.6838 110.908 71.6958L110.946 71.6955C110.983 71.6951 111.009 71.6823 111.046 71.6694L120.78 65.367C120.867 65.316 120.879 65.203 120.828 65.1283L112.789 52.8172C112.738 52.755 112.688 52.7304 112.637 52.7309Z" fill="#231F20"/>
<path d="M116.52 67.9055L115.43 68.6184L105.203 52.9805L106.754 52.9653L116.52 67.9055Z" fill="#D1D3D4"/>
<path d="M113.939 69.5729L112.849 70.2858L101.547 53.0156L103.097 53.0005L113.939 69.5729Z" fill="#D1D3D4"/>
<path d="M119.177 66.1843L118.087 66.8972L108.961 52.9414L110.499 52.9264L119.177 66.1843Z" fill="#D1D3D4"/>
<path d="M111.383 54.4761C109.287 54.1579 105.608 56.8524 105.608 56.8524L105.43 52.8789L110.069 52.8336L111.383 54.4761Z" fill="#84AFBF"/>
<path d="M105.619 56.9372C105.607 56.9373 105.594 56.9375 105.581 56.925C105.556 56.9127 105.53 56.8754 105.53 56.8503L105.352 52.8768C105.352 52.8518 105.365 52.8266 105.377 52.8139C105.39 52.8012 105.415 52.7884 105.44 52.7882L110.079 52.7429C110.104 52.7427 110.129 52.7549 110.155 52.7798L111.469 54.4222C111.495 54.4471 111.495 54.4972 111.47 54.5225C111.458 54.5477 111.42 54.5732 111.382 54.561C109.35 54.2548 105.72 56.8861 105.682 56.9115C105.644 56.9244 105.632 56.9371 105.619 56.9372ZM105.53 52.9629L105.693 56.6857C106.356 56.2152 109.262 54.2557 111.179 54.3749L110.03 52.9189L105.53 52.9629Z" fill="#231F20"/>
<path d="M101.168 52.9188L100.026 54.7107L99.5914 55.3795C99.1419 54.5312 98.6296 53.7211 98.0547 52.9492L101.168 52.9188Z" fill="#84AFBF"/>
<path d="M99.5959 55.4682C99.5581 55.4686 99.5327 55.4437 99.5198 55.4188C99.0702 54.5704 98.558 53.7603 97.9832 53.001C97.9577 52.9762 97.9574 52.9386 97.9697 52.9134C97.9821 52.8882 98.0196 52.8627 98.0449 52.8625L101.158 52.8321C101.196 52.8317 101.222 52.844 101.235 52.8815C101.247 52.9064 101.248 52.944 101.235 52.9692L99.6586 55.43C99.6589 55.455 99.6338 55.4678 99.5959 55.4682ZM98.2231 53.0363C98.7341 53.721 99.1952 54.4564 99.606 55.2048L101.009 53.0091L98.2231 53.0363Z" fill="#231F20"/>
<path d="M111.785 52.8153C111.588 53.3564 111.455 53.9095 111.385 54.4745L110.07 52.832L111.785 52.8153Z" fill="white"/>
<path d="M111.389 54.5631C111.364 54.5634 111.339 54.5511 111.313 54.5263L109.999 52.8838C109.973 52.859 109.973 52.8214 109.985 52.7962C109.998 52.771 110.035 52.7455 110.06 52.7453L111.762 52.7287C111.787 52.7284 111.813 52.7407 111.838 52.7655C111.851 52.7905 111.864 52.8154 111.852 52.8406C111.655 53.3692 111.534 53.9222 111.464 54.4872C111.465 54.5248 111.44 54.5501 111.402 54.563C111.402 54.563 111.402 54.563 111.389 54.5631ZM110.264 52.9188L111.336 54.2627C111.407 53.798 111.516 53.3455 111.663 52.9052L110.264 52.9188Z" fill="#231F20"/>
<path d="M105.618 56.8498C104.045 55.9497 102.275 55.4403 100.459 55.3703C100.182 55.3605 99.892 55.3633 99.6022 55.3787L100.024 54.7099L101.166 52.9181L105.44 52.8764L105.618 56.8498Z" fill="white"/>
<path d="M105.623 56.9385C105.611 56.9386 105.585 56.9388 105.573 56.9264C104.013 56.0388 102.256 55.5292 100.452 55.4591C100.175 55.4492 99.8851 55.4521 99.5953 55.4674C99.5575 55.4678 99.5321 55.4555 99.5193 55.4306C99.5064 55.4056 99.5061 55.368 99.5184 55.3428L101.095 52.8695C101.107 52.8443 101.145 52.8314 101.17 52.8312L105.444 52.7895C105.494 52.789 105.532 52.8262 105.533 52.8764L105.711 56.8498C105.711 56.8875 105.699 56.9127 105.661 56.9256C105.648 56.9382 105.636 56.9384 105.623 56.9385ZM100.047 55.2749C100.186 55.2736 100.325 55.2722 100.463 55.2834C102.242 55.3538 103.973 55.8385 105.533 56.7011L105.37 52.9783L101.223 53.0188L99.7574 55.2903C99.8581 55.2768 99.9464 55.2759 100.047 55.2749Z" fill="#231F20"/>
<path d="M100.484 94.2292C100.459 94.2295 100.446 94.2171 100.433 94.2047C100.395 94.18 100.394 94.1173 100.419 94.0794C101.154 93.1819 101.698 92.0981 102.28 90.9638C102.935 89.6783 103.603 88.3551 104.563 87.3175C106.073 85.6725 108.233 84.8488 109.929 84.3056C110.168 84.228 110.42 84.1503 110.658 84.0853C112.104 83.6448 113.6 83.1913 114.763 82.2269C115.988 81.2117 116.97 79.8353 117.928 78.5092C118.264 78.0419 118.612 77.5495 118.96 77.0946L119.122 76.8799C119.645 76.1976 120.13 75.5408 120.958 75.1565C121.849 74.734 122.844 74.5738 123.713 74.4775C123.939 74.4502 124.179 74.4228 124.405 74.4081C125.476 74.2973 126.597 74.186 127.589 73.775C128.97 73.1973 130.104 71.9071 130.664 71.1868C131 70.7196 131.285 70.2152 131.494 69.6865C131.951 68.6788 132.37 67.7217 133.968 67.4176C134.509 67.3246 135.051 67.2817 135.606 67.2762C136.072 67.2717 136.525 67.2296 136.991 67.1749C137.809 67.0415 138.614 66.7829 139.354 66.412C139.404 66.3864 139.455 66.411 139.468 66.461C139.481 66.5111 139.469 66.5614 139.419 66.5744C138.653 66.9455 137.849 67.2167 137.006 67.3504C136.54 67.4051 136.074 67.4472 135.607 67.4518C135.065 67.4571 134.524 67.5 133.995 67.5929C132.498 67.8834 132.103 68.7526 131.659 69.7601C131.437 70.3015 131.152 70.8184 130.804 71.2983C130.232 72.0313 129.072 73.3467 127.666 73.9373C126.649 74.3611 125.515 74.4725 124.432 74.5834C124.206 74.6106 123.966 74.6255 123.74 74.6528C122.896 74.7488 121.914 74.9089 121.048 75.3186C120.27 75.6899 119.785 76.3216 119.275 76.9913L119.113 77.206C118.764 77.6609 118.416 78.1408 118.08 78.608C117.123 79.9466 116.128 81.3232 114.89 82.3511C113.702 83.3408 112.194 83.7944 110.736 84.235C110.497 84.3126 110.245 84.3777 110.007 84.4553C108.322 84.9859 106.2 85.8092 104.716 87.4163C103.768 88.4413 103.112 89.7519 102.457 91.0248C101.9 92.1212 101.319 93.268 100.572 94.1782C100.534 94.2162 100.509 94.229 100.484 94.2292Z" fill="#D1D3D4"/>
<path d="M139.951 67.2228L140.218 94.2942L101.431 94.673C102.281 93.9499 102.991 93.0777 103.511 92.0945C105.715 88.0727 105.63 85.8414 111.683 84.754C117.736 83.6666 118.424 79.2834 120.796 76.84C123.167 74.3966 126.002 76.8142 129.53 74.0711C133.058 71.328 132.105 68.0017 134.491 68.2919C135.841 68.4668 138.056 68.094 139.951 67.2228Z" fill="#84AFBF"/>
<path d="M140.219 94.3805L101.432 94.7592C101.394 94.7596 101.356 94.7349 101.343 94.6974C101.33 94.6599 101.342 94.6222 101.367 94.5968C102.205 93.8864 102.915 93.0142 103.435 92.0436C103.819 91.3376 104.14 90.6823 104.424 90.1027C105.796 87.2803 106.624 85.5668 111.67 84.6648C115.987 83.8953 117.576 81.3969 118.966 79.2013C119.525 78.3181 120.058 77.4727 120.732 76.7889C121.918 75.5735 123.216 75.5358 124.615 75.497C126.052 75.4579 127.69 75.4043 129.479 74.0074C131.193 72.674 131.847 71.1753 132.34 70.0795C132.858 68.9082 133.228 68.0519 134.515 68.2149C135.942 68.389 138.156 67.9536 139.926 67.1463C139.963 67.1208 140.027 67.1453 140.04 67.1828C140.04 67.1953 140.052 67.2078 140.053 67.2203L140.319 94.2792C140.307 94.342 140.27 94.38 140.219 94.3805ZM101.67 94.5813L140.129 94.2058L139.865 67.3601C138.095 68.1423 135.906 68.565 134.479 68.3908C133.331 68.2515 133.023 68.9693 132.492 70.1533C131.999 71.2616 131.333 72.7855 129.582 74.1443C127.742 75.5793 126.079 75.6207 124.617 75.6726C123.205 75.7114 121.995 75.7483 120.86 76.9131C120.198 77.5967 119.677 78.4294 119.118 79.3002C117.703 81.5336 116.102 84.0572 111.697 84.8526C106.739 85.7413 105.923 87.417 104.576 90.189C104.292 90.7686 103.971 91.4364 103.587 92.1424C103.105 93.0625 102.457 93.884 101.67 94.5813Z" fill="#231F20"/>
<path d="M113.967 93.4948C113.954 93.4949 113.929 93.4952 113.916 93.4828C113.878 93.4581 113.865 93.408 113.89 93.3576C114.784 91.9319 116.185 90.8774 117.807 90.4101C118.26 90.2928 118.713 90.2006 119.178 90.1208C119.908 89.9883 120.676 89.8554 121.341 89.5354C122.972 88.742 123.85 86.9778 124.502 85.3538L124.526 85.2783C124.76 84.6991 124.994 84.0949 125.443 83.6391C125.755 83.3351 126.118 83.0808 126.52 82.9138C127.298 82.5551 128.179 82.3709 129.022 82.1871C130.317 81.9111 131.538 81.6484 132.475 80.8242C132.925 80.4436 133.273 79.9386 133.609 79.4713C133.796 79.2187 133.982 78.9535 134.181 78.7008C135.14 77.5252 136.443 76.6848 137.914 76.2817C137.965 76.2687 138.003 76.3059 138.016 76.356C138.029 76.3934 138.004 76.4439 137.954 76.4569C136.52 76.8471 135.255 77.6745 134.308 78.8124C134.109 79.0526 133.923 79.3178 133.736 79.5704C133.388 80.0629 133.04 80.5553 132.577 80.9611C131.59 81.8109 130.294 82.0995 129.036 82.3626C128.206 82.5462 127.338 82.7303 126.572 83.0763C126.183 83.2431 125.845 83.4722 125.545 83.7635C125.133 84.1939 124.9 84.7856 124.666 85.3522L124.641 85.4276C123.977 87.0894 123.074 88.8915 121.393 89.7104C120.703 90.0558 119.935 90.1887 119.18 90.3214C118.727 90.3886 118.274 90.4808 117.821 90.598C116.237 91.0524 114.873 92.0815 114.005 93.4694C114.03 93.4691 114.005 93.4944 113.967 93.4948Z" fill="white"/>
<path d="M129.885 93.2915C129.872 93.2916 129.86 93.2918 129.847 93.2793C129.796 93.2548 129.783 93.2047 129.795 93.167C130.005 92.6884 130.507 92.4954 130.997 92.3025C131.123 92.2511 131.261 92.1996 131.386 92.1482C132.453 91.6613 133.111 90.6015 133.519 89.8451C133.656 89.593 133.792 89.3283 133.915 89.0763C134.274 88.3706 134.632 87.6397 135.156 87.0202C135.853 86.1732 136.793 85.5746 137.695 85.0015C137.733 84.976 137.796 84.988 137.821 85.0253C137.847 85.0627 137.835 85.1255 137.797 85.151C136.908 85.724 135.981 86.3099 135.308 87.1315C134.81 87.7383 134.439 88.4567 134.092 89.1498C133.969 89.4018 133.833 89.6665 133.697 89.9186C133.276 90.7002 132.581 91.798 131.476 92.2978C131.351 92.3618 131.212 92.4133 131.087 92.4647C130.635 92.6446 130.17 92.8247 129.985 93.2278C129.96 93.2657 129.922 93.2786 129.885 93.2915Z" fill="white"/>
<path d="M88.5538 87.2033C88.9518 86.6477 88.5899 85.7483 88.5069 84.9967C88.4238 84.2451 88.281 82.5411 87.9974 81.9043C87.7137 81.2675 86.9679 81.0616 86.3262 81.1933C85.6846 81.325 85.1983 81.8689 85.0421 82.6479C84.8859 83.427 85.8037 84.4588 85.9352 85.0093C86.0667 85.5598 86.3303 86.7234 86.5235 87.1354C86.7806 87.647 88.1684 87.7463 88.5538 87.2033Z" fill="#84AFBF"/>
<path d="M87.6108 87.65C87.5478 87.6506 87.4722 87.6513 87.409 87.6394C87.0431 87.6054 86.5878 87.4593 86.4462 87.1598C86.2532 86.7604 86.0031 85.6969 85.8714 85.1213L85.8451 85.0087C85.7544 84.7588 85.6386 84.5217 85.4977 84.2973C85.1898 83.7611 84.8434 83.15 84.9516 82.6098C85.12 81.793 85.6313 81.2237 86.3108 81.0917C86.9398 80.9601 87.7738 81.1526 88.0832 81.8519C88.3283 82.4138 88.4673 83.7291 88.5515 84.5936C88.5654 84.7314 88.5793 84.8566 88.593 84.9694C88.6202 85.1697 88.6601 85.3825 88.7 85.5953C88.8194 86.1961 88.9389 86.8094 88.6281 87.2513C88.4167 87.5543 88.0017 87.6587 87.6108 87.65ZM86.6652 81.2387C86.5518 81.2398 86.451 81.2533 86.3377 81.267C85.7337 81.3857 85.2724 81.9044 85.1285 82.6582C85.0323 83.1231 85.3658 83.7092 85.6608 84.2205C85.8144 84.4573 85.943 84.7068 86.0213 84.9819L86.0476 85.0945C86.1793 85.6576 86.4293 86.721 86.6094 87.0955C86.6997 87.2952 87.0289 87.4425 87.4326 87.4762C87.8995 87.5218 88.3143 87.3923 88.4884 87.1524C88.7494 86.7736 88.6429 86.1978 88.5239 85.6347C88.484 85.4219 88.4441 85.2091 88.4167 84.9962C88.403 84.8834 88.3892 84.7582 88.3752 84.6204C88.2916 83.8061 88.1523 82.4657 87.9201 81.9287C87.7008 81.4292 87.1694 81.2338 86.6652 81.2387Z" fill="#231F20"/>
<path d="M86.6943 83.0309C86.5808 83.032 86.4665 82.9454 86.4402 82.8328L86.2308 82.0573C86.1917 81.9198 86.2784 81.7684 86.4167 81.7295C86.555 81.6905 86.7071 81.7768 86.7463 81.9143L86.9557 82.6898C86.9948 82.8273 86.9081 82.9787 86.7698 83.0176C86.732 83.018 86.7195 83.0307 86.6943 83.0309Z" fill="#231F20"/>
<path d="M86.2905 85.1185C86.1392 85.12 86.0247 85.0082 86.0232 84.8578C86.0215 84.6822 86.0192 83.1774 86.48 82.5961C86.5672 82.4949 86.7182 82.4684 86.8323 82.53C86.8831 82.5671 88.1644 83.3822 88.2759 84.4596C88.3025 84.5973 88.1904 84.7363 88.052 84.7627C87.9135 84.7892 87.7738 84.6777 87.7472 84.54C87.7471 84.5274 87.7471 84.5274 87.7469 84.5149C87.6907 83.9261 87.1057 83.4051 86.7753 83.145C86.6032 83.5856 86.5479 84.3761 86.5526 84.8526C86.5541 85.0031 86.4418 85.117 86.2905 85.1185Z" fill="#231F20"/>
<path d="M89.3669 89.6144C88.958 89.0666 89.3021 88.1604 89.3703 87.4073C89.4385 86.6543 89.5478 84.9477 89.8188 84.3055C90.0899 83.6634 90.8315 83.4429 91.4756 83.562C92.1197 83.6812 92.6167 84.2155 92.7882 84.9913C92.9597 85.7671 92.0624 86.8167 91.9417 87.3697C91.8211 87.9226 91.5805 89.0912 91.3955 89.5068C91.1484 90.0234 89.7631 90.1623 89.3669 89.6144Z" fill="#84AFBF"/>
<path d="M90.3176 90.0584C89.9394 90.0621 89.5098 89.9659 89.3053 89.6795C88.9859 89.2563 89.0932 88.6282 89.2007 88.0252C89.2365 87.8117 89.2722 87.5982 89.2954 87.3973C89.3069 87.2843 89.3183 87.1588 89.3295 87.0208C89.3965 86.1423 89.5096 84.8245 89.7437 84.2705C90.0393 83.5653 90.8567 83.3567 91.5008 83.4758C92.1827 83.5946 92.6925 84.1539 92.877 84.9672C92.9957 85.4927 92.6614 86.1104 92.3643 86.6651C92.2278 86.8922 92.1167 87.1315 92.0309 87.3831L92.0068 87.4962C91.8865 88.0743 91.6575 89.1424 91.4723 89.5455C91.3242 89.8604 90.8843 90.0027 90.5191 90.0439C90.4561 90.0445 90.3931 90.0451 90.3176 90.0584ZM89.4428 89.5653C89.6091 89.8019 90.0262 89.9107 90.4922 89.8686C90.8952 89.827 91.2215 89.6733 91.3077 89.4719C91.4804 89.0814 91.7095 88.0258 91.83 87.4603L91.8541 87.3472C91.9397 87.0831 92.0506 86.8187 92.1995 86.5789C92.4844 86.062 92.8063 85.4695 92.7009 85.0065C92.5296 84.2558 92.0709 83.7587 91.4646 83.6392C90.8962 83.5319 90.1668 83.7146 89.9082 84.3316C89.6866 84.8729 89.5739 86.2284 89.5061 87.0316C89.4949 87.1696 89.4835 87.2952 89.472 87.4081C89.4488 87.609 89.4132 87.8351 89.3775 88.0486C89.2696 88.614 89.1618 89.1919 89.4428 89.5653Z" fill="#231F20"/>
<path d="M91.1412 85.4085C91.116 85.4088 91.0908 85.409 91.0781 85.3966C90.939 85.3604 90.8494 85.2233 90.8858 85.0725L91.0798 84.2931C91.1037 84.1549 91.2413 84.0532 91.3802 84.077C91.5191 84.1007 91.6213 84.2376 91.5975 84.3758C91.5976 84.3883 91.5977 84.4009 91.5853 84.4135L91.3912 85.1929C91.3673 85.3186 91.2671 85.3948 91.1412 85.4085Z" fill="#231F20"/>
<path d="M91.5967 87.5011C91.4455 87.5026 91.3309 87.3908 91.3294 87.2404C91.3247 86.7639 91.2414 85.9872 91.0731 85.5374C90.748 85.8039 90.1734 86.3488 90.1287 86.926C90.1048 87.0642 89.9799 87.1783 89.8284 87.1547C89.6896 87.1435 89.5875 87.0191 89.5988 86.881C89.689 85.8017 90.954 84.9617 91.004 84.9236C91.1168 84.8473 91.2683 84.8709 91.3576 84.9829C91.8297 85.5551 91.8571 87.0596 91.8589 87.2352C91.8602 87.3731 91.748 87.4996 91.5967 87.5011Z" fill="#231F20"/>
<path d="M132.629 61.7801C132.629 61.7801 132.422 61.2679 132.058 61.4345C131.694 61.6011 130.963 62.8748 131.131 63.2619C131.298 63.649 131.801 63.5187 131.801 63.5187C131.801 63.5187 132.501 65.4054 133.41 65.5595C134.319 65.7137 134.227 65.376 134.227 65.376C134.227 65.376 135.112 65.5554 135.23 64.7267C135.23 64.7267 135.908 64.4567 135.723 63.6434C135.723 63.6434 136.213 63.4129 135.828 62.752C135.828 62.752 136.214 62.2592 135.629 61.7508C135.629 61.7508 135.802 61.423 135.018 61.1423C134.233 60.8615 133.217 61.3229 132.629 61.7801Z" fill="white"/>
<path d="M133.849 65.6814C133.698 65.6829 133.547 65.6593 133.395 65.6357C132.536 65.4811 131.878 63.9576 131.736 63.6079C131.522 63.6351 131.181 63.6008 131.04 63.2886C130.975 63.1388 130.998 62.9128 131.134 62.5855C131.33 62.0945 131.74 61.4635 132.016 61.3479C132.117 61.2968 132.243 61.2956 132.344 61.3447C132.484 61.4061 132.585 61.5179 132.662 61.6426C133.201 61.2611 134.229 60.7495 135.052 61.0549C135.419 61.1893 135.635 61.3502 135.712 61.5376C135.738 61.6 135.739 61.6627 135.739 61.7129C136.21 62.1597 136.025 62.6004 135.938 62.7392C136.066 62.9261 136.106 63.1514 136.045 63.3777C136.009 63.5035 135.934 63.6045 135.834 63.6807C135.939 64.1186 135.717 64.5722 135.315 64.7768C135.292 64.9902 135.168 65.192 134.993 65.3191C134.793 65.4465 134.554 65.499 134.314 65.4763C134.301 65.5015 134.289 65.5392 134.264 65.552C134.139 65.6535 133.988 65.7052 133.849 65.6814ZM131.797 63.4192C131.835 63.4188 131.873 63.4435 131.886 63.481C131.886 63.4936 132.585 65.3176 133.431 65.4723C133.962 65.5675 134.099 65.4784 134.124 65.453C134.137 65.4404 134.149 65.4277 134.137 65.4028C134.136 65.3777 134.136 65.3401 134.161 65.3273C134.186 65.3019 134.211 65.3017 134.236 65.3015C134.451 65.337 134.678 65.2971 134.878 65.1823C135.028 65.068 135.115 64.9041 135.126 64.7159C135.125 64.6908 135.15 64.653 135.175 64.6402C135.2 64.6274 135.778 64.3835 135.62 63.6577C135.607 63.6202 135.631 63.5824 135.669 63.5569C135.757 63.5059 135.819 63.4301 135.856 63.3294C135.905 63.1784 135.853 63.0034 135.737 62.7913C135.712 62.7665 135.711 62.7289 135.736 62.691C135.749 62.6784 136.06 62.249 135.551 61.815C135.526 61.7902 135.512 61.7402 135.537 61.7023C135.55 61.6646 135.549 61.6269 135.524 61.5896C135.485 61.5147 135.37 61.3653 134.978 61.2187C134.282 60.9621 133.29 61.3606 132.677 61.8431C132.652 61.8559 132.627 61.8687 132.601 61.8564C132.576 61.8441 132.551 61.8318 132.538 61.8068C132.486 61.6819 132.397 61.5699 132.27 61.4959C132.207 61.4715 132.144 61.4721 132.081 61.4978C131.868 61.5876 131.482 62.1432 131.298 62.6466C131.2 62.9109 131.164 63.1119 131.203 63.2118C131.345 63.5239 131.747 63.4197 131.772 63.4194L131.797 63.4192Z" fill="#231F20"/>
<path d="M133.624 62.1594C133.573 62.1599 133.535 62.1226 133.535 62.0725C133.534 62.0474 133.547 62.0222 133.572 61.9969C134.198 61.5393 135.587 61.764 135.65 61.7759C135.7 61.788 135.726 61.8253 135.726 61.8755C135.727 61.9256 135.677 61.9512 135.626 61.9517C135.614 61.9518 134.25 61.7269 133.687 62.1462C133.661 62.1465 133.636 62.1592 133.624 62.1594Z" fill="#231F20"/>
<path d="M135.831 62.9541C135.818 62.9543 135.806 62.9544 135.793 62.942C135.78 62.9421 134.717 62.476 133.925 62.7596C133.875 62.7726 133.824 62.7606 133.811 62.7105C133.798 62.6605 133.81 62.6102 133.861 62.5972C133.861 62.5972 133.861 62.5972 133.873 62.5971C134.74 62.2876 135.829 62.7661 135.879 62.7781C135.93 62.8027 135.943 62.8527 135.931 62.8905C135.894 62.9285 135.869 62.9538 135.831 62.9541Z" fill="#231F20"/>
<path d="M135.719 63.8436C135.707 63.8437 135.694 63.8438 135.681 63.8314C135.669 63.8315 134.567 63.3658 133.887 63.41C133.836 63.4105 133.798 63.3733 133.798 63.3231C133.797 63.273 133.835 63.235 133.885 63.2345C134.616 63.2023 135.705 63.6556 135.755 63.6677C135.806 63.6923 135.819 63.7423 135.807 63.78C135.794 63.8178 135.757 63.8432 135.719 63.8436Z" fill="#231F20"/>
<path d="M135.232 64.927C135.206 64.9272 135.194 64.9148 135.168 64.9025C135.156 64.8901 134.177 64.0469 133.697 64.0014C133.647 64.0019 133.608 63.9521 133.62 63.9019C133.62 63.8517 133.67 63.8136 133.72 63.8256C134.263 63.8705 135.242 64.7387 135.293 64.7759C135.331 64.8131 135.332 64.8633 135.307 64.9011C135.282 64.9139 135.257 64.9267 135.232 64.927Z" fill="#231F20"/>
<path d="M134.23 65.5774C134.192 65.5778 134.167 65.5655 134.154 65.528C134.154 65.5155 133.756 64.8171 133.274 64.546C133.236 64.5212 133.223 64.4712 133.248 64.4208C133.273 64.3829 133.323 64.3699 133.374 64.3945C133.881 64.6905 134.291 65.4138 134.317 65.4387C134.342 65.476 134.33 65.5388 134.28 65.5519C134.268 65.5771 134.243 65.5773 134.23 65.5774Z" fill="#231F20"/>
<path d="M128.967 59.7324C128.986 61.701 127.389 63.3218 125.41 63.3411C125.157 63.3435 124.905 63.3209 124.665 63.2731C124.577 63.2614 124.488 63.2372 124.412 63.2129C122.503 62.6798 121.4 60.7092 121.936 58.8104C122.082 58.3199 122.317 57.8536 122.654 57.4616C122.691 57.4236 122.729 57.3731 122.779 57.335C123.328 56.7653 124.042 56.3822 124.823 56.2617C124.949 56.2354 125.087 56.2215 125.213 56.2202L125.352 56.2189C126.575 56.2069 127.728 56.8101 128.394 57.8319C128.445 57.9067 128.496 57.994 128.535 58.0688C128.83 58.5801 128.974 59.143 128.967 59.7324Z" fill="white"/>
<path d="M125.422 63.4296C125.169 63.4321 124.904 63.4096 124.652 63.3619C124.563 63.3502 124.475 63.326 124.386 63.3018C123.312 62.9988 122.422 62.2174 121.983 61.1934C121.905 60.9935 121.84 60.7935 121.788 60.5809C121.537 59.4547 121.828 58.2856 122.576 57.4131C122.613 57.3625 122.651 57.3246 122.701 57.2739C123.262 56.6916 123.99 56.3083 124.795 56.175C124.934 56.1486 125.06 56.1348 125.198 56.1335C125.249 56.133 125.299 56.1325 125.337 56.1321C126.585 56.1199 127.763 56.7354 128.442 57.7822C128.493 57.8569 128.544 57.9442 128.583 58.0316C129.559 59.8027 128.912 62.0286 127.132 62.9991C126.63 63.2799 126.027 63.4362 125.422 63.4296ZM125.351 56.295C125.301 56.2955 125.263 56.2958 125.213 56.2963C125.087 56.2976 124.961 56.3113 124.835 56.3376C124.067 56.458 123.377 56.8284 122.841 57.3854C122.803 57.4234 122.766 57.4739 122.728 57.5119C121.47 58.9788 121.642 61.1717 123.117 62.4238C123.499 62.7461 123.955 62.9925 124.448 63.1256C124.524 63.1499 124.612 63.1742 124.701 63.1858C124.941 63.2337 125.18 63.2564 125.432 63.2539C126.088 63.2475 126.729 63.0532 127.293 62.7091C127.456 62.6072 127.606 62.4928 127.743 62.3661C128.943 61.2885 129.241 59.5174 128.458 58.108C128.419 58.0332 128.368 57.9459 128.317 57.8712C127.664 56.8618 126.549 56.2708 125.351 56.295Z" fill="#231F20"/>
<path d="M124.928 58.4047C124.903 58.4175 124.703 58.595 124.416 58.8611C123.591 59.584 122.816 60.3439 122.068 61.1413C121.99 60.9539 121.925 60.7539 121.873 60.5412C121.82 60.3035 121.792 60.053 121.79 59.8022C121.781 58.937 122.088 58.1064 122.649 57.4488C122.687 57.4108 122.724 57.3603 122.774 57.3222C123.406 57.454 124.001 57.7115 124.534 58.0825C124.674 58.1814 124.801 58.2805 124.928 58.4047Z" fill="#84AFBF"/>
<path d="M122.072 61.2301L122.059 61.2302C122.034 61.2305 122.009 61.2056 121.996 61.1807C121.918 60.9808 121.853 60.7808 121.801 60.5681C121.55 59.442 121.841 58.2729 122.589 57.4003C122.626 57.3498 122.664 57.3118 122.714 57.2612C122.738 57.2358 122.764 57.2356 122.789 57.2353C123.433 57.367 124.041 57.6369 124.587 58.0078C124.726 58.1068 124.866 58.2183 124.993 58.3424C125.006 58.3548 125.019 58.3798 125.019 58.4049C125.019 58.4299 125.007 58.4677 124.982 58.4805C124.945 58.5185 124.745 58.6834 124.47 58.9369C123.657 59.6596 122.871 60.4197 122.135 61.2169C122.122 61.2296 122.097 61.2424 122.072 61.2301ZM122.803 57.4233L122.716 57.5119C122.006 58.3465 121.727 59.4653 121.964 60.5289C121.991 60.6791 122.043 60.8291 122.095 60.9791C122.78 60.22 123.793 59.2946 124.342 58.8002C124.542 58.6227 124.705 58.4832 124.792 58.4071C124.691 58.3203 124.589 58.2335 124.475 58.1594C123.98 57.8006 123.41 57.5428 122.803 57.4233Z" fill="#231F20"/>
<path d="M128.525 58.0565C128.096 58.0231 127.762 58.7161 127.371 58.7324C126.88 58.7372 126.376 58.7923 125.898 58.8847C125.558 58.9633 124.951 58.756 124.951 58.756L124.905 57.9163L124.813 56.2368C124.939 56.2105 125.077 56.1966 125.203 56.1954L125.342 56.194C126.565 56.1821 127.705 56.7854 128.371 57.8072C128.435 57.8944 128.486 57.9691 128.525 58.0565Z" fill="#84AFBF"/>
<path d="M125.73 58.9868C125.453 58.977 125.188 58.9294 124.922 58.8442C124.884 58.832 124.859 58.8072 124.858 58.7696L124.72 56.2504C124.719 56.2002 124.744 56.1624 124.795 56.1619C124.933 56.1354 125.059 56.1217 125.198 56.1203C125.248 56.1198 125.299 56.1193 125.336 56.119C126.584 56.1068 127.763 56.7223 128.441 57.769C128.493 57.8438 128.544 57.931 128.582 58.0184C128.608 58.0558 128.583 58.1188 128.546 58.1317C128.533 58.1443 128.521 58.1444 128.495 58.1447C128.306 58.1215 128.119 58.2989 127.944 58.4761C127.769 58.6534 127.569 58.8184 127.355 58.833C126.863 58.8378 126.372 58.8927 125.894 58.9852C125.856 58.9856 125.793 58.9987 125.73 58.9868ZM125.034 58.6926C125.186 58.7413 125.615 58.85 125.88 58.7972C126.37 58.7047 126.874 58.6496 127.378 58.6447C127.53 58.6432 127.692 58.4911 127.854 58.3391C128.017 58.187 128.192 58.0223 128.393 57.9827C128.367 57.9453 128.342 57.9079 128.316 57.8706C127.638 56.8364 126.46 56.2459 125.212 56.3083C125.111 56.3093 125.011 56.3228 124.91 56.3363L125.034 58.6926Z" fill="#231F20"/>
<path d="M128.964 59.732C128.976 60.9608 128.357 62.108 127.317 62.7702L125.213 59.0789L124.905 58.5427L125.056 58.5036C125.169 58.4774 127.344 57.7916 128.378 57.8066C128.429 57.8813 128.48 57.9686 128.519 58.0434C128.814 58.5672 128.958 59.1427 128.964 59.732Z" fill="#231F20"/>
<path d="M127.321 62.8572C127.308 62.8573 127.308 62.8573 127.296 62.8575C127.27 62.8577 127.258 62.8327 127.245 62.8203L124.833 58.5928C124.82 58.5804 124.82 58.5678 124.82 58.5553C124.82 58.5052 124.857 58.4672 124.908 58.4667L124.92 58.4665L125.046 58.4402L125.184 58.4013C126.705 57.9475 127.787 57.7363 128.392 57.7429C128.418 57.7427 128.443 57.755 128.468 57.7798C128.52 57.8546 128.571 57.9418 128.61 58.0167C129.534 59.7006 129 61.8125 127.371 62.8567C127.359 62.8568 127.333 62.8571 127.321 62.8572ZM125.048 58.6032L127.357 62.6562C127.495 62.5671 127.62 62.4656 127.732 62.3641C128.932 61.2865 129.229 59.5155 128.446 58.1061C128.408 58.0437 128.37 57.9814 128.331 57.9066L128.306 57.9068C127.713 57.9126 126.682 58.1358 125.236 58.5512C125.148 58.5772 125.098 58.5902 125.085 58.5903L125.048 58.6032Z" fill="#231F20"/>
<path d="M124.927 58.4075C124.927 58.42 124.915 58.4703 124.903 58.5456C124.879 58.6713 124.844 58.8723 124.796 59.1361C124.642 60.1533 124.421 61.9989 124.66 63.2756C124.572 63.2639 124.483 63.2397 124.407 63.2154C123.131 62.8642 122.162 61.8328 121.872 60.5566C122.133 60.1151 122.495 59.7354 122.933 59.4552C123.372 59.1625 123.835 58.8947 124.312 58.6517C124.525 58.5493 124.726 58.4721 124.927 58.4075Z" fill="#231F20"/>
<path d="M124.664 63.3596L124.651 63.3598C124.563 63.3481 124.475 63.3239 124.386 63.2997C123.312 62.9966 122.421 62.2153 121.983 61.1913C121.905 60.9914 121.84 60.7914 121.787 60.5788C121.787 60.5537 121.787 60.5411 121.799 60.5159C122.072 60.0618 122.447 59.6694 122.898 59.3891C123.349 59.0963 123.812 58.8159 124.289 58.5855C124.49 58.4833 124.703 58.3934 124.917 58.3286C124.942 58.3284 124.967 58.3281 124.993 58.3529C125.018 58.3652 125.018 58.3903 125.019 58.4154C125.019 58.4405 125.007 58.4907 124.995 58.5661L124.995 58.5786C124.971 58.7043 124.935 58.9053 124.9 59.1564C124.746 60.1486 124.525 61.9941 124.764 63.2583C124.764 63.2834 124.765 63.321 124.739 63.3338C124.727 63.3465 124.702 63.3593 124.664 63.3596ZM121.976 60.5644C122.016 60.7521 122.081 60.9395 122.158 61.1144C122.572 62.101 123.411 62.8327 124.447 63.1235L124.574 63.1599C124.36 61.8829 124.581 60.1 124.736 59.1329C124.771 58.8692 124.807 58.6683 124.843 58.5425C124.743 58.5811 124.605 58.6326 124.392 58.735C123.915 58.9654 123.464 59.2331 123.013 59.526C122.586 59.7809 122.237 60.1355 121.976 60.5644Z" fill="#231F20"/>
<path d="M127.794 62.4179C126.944 63.1786 125.787 63.4909 124.676 63.276C124.587 63.2643 124.499 63.2401 124.423 63.2158C124.34 62.4892 124.321 61.7621 124.351 61.0219C124.395 60.3694 124.515 59.7287 124.698 59.0999C124.771 58.861 124.844 58.6345 124.943 58.4078C124.943 58.4078 124.994 58.445 125.07 58.5194C125.147 58.5939 125.299 58.7179 125.464 58.8667C126.049 59.3877 126.56 59.9846 126.982 60.6451C127.328 61.1935 127.599 61.7928 127.794 62.4179Z" fill="#84AFBF"/>
<path d="M125.421 63.4289C125.169 63.4313 124.904 63.4089 124.652 63.3612C124.563 63.3495 124.475 63.3253 124.386 63.3011C124.348 63.2889 124.323 63.264 124.322 63.2264C124.24 62.4999 124.22 61.7602 124.25 61.0201C124.294 60.3676 124.414 59.7143 124.597 59.0855C124.67 58.834 124.756 58.5824 124.842 58.3934C124.842 58.3809 124.854 58.3682 124.854 58.3557C124.892 58.3177 124.942 58.3172 124.98 58.3419C124.98 58.3419 125.031 58.379 125.107 58.4535C125.184 58.528 125.311 58.6271 125.502 58.8008C126.099 59.3217 126.61 59.9311 127.045 60.5915C127.391 61.165 127.661 61.7643 127.857 62.4019C127.87 62.4394 127.857 62.4646 127.832 62.4899C127.683 62.6293 127.52 62.7438 127.357 62.8582C126.781 63.215 126.115 63.4221 125.421 63.4289ZM124.498 63.1369C124.561 63.1489 124.624 63.1733 124.688 63.1852C124.928 63.2331 125.167 63.2558 125.419 63.2533C126.075 63.2469 126.716 63.0526 127.28 62.7085C127.43 62.6192 127.568 62.5176 127.693 62.4035C127.511 61.8034 127.24 61.2291 126.92 60.6805C126.497 60.0326 125.987 59.4356 125.415 58.9271C125.224 58.7534 125.084 58.6419 125.021 58.5923L124.983 58.5676C124.933 58.6935 124.86 58.8949 124.786 59.1464C124.603 59.7626 124.496 60.4032 124.44 61.0433C124.396 61.7209 124.415 62.4355 124.498 63.1369Z" fill="#231F20"/>
<path d="M125.212 56.2093C125.18 56.7864 125.11 57.3639 125.015 57.9417C124.967 58.2181 124.931 58.4065 124.931 58.4065C124.792 58.3076 124.639 58.2087 124.487 58.135C123.917 57.827 123.297 57.5948 122.653 57.4632C122.69 57.4252 122.728 57.3747 122.778 57.3366C123.327 56.7669 124.041 56.3837 124.822 56.2632C124.948 56.2369 125.086 56.2105 125.212 56.2093Z" fill="#231F20"/>
<path d="M124.933 58.4952C124.92 58.4953 124.895 58.4956 124.882 58.4832C124.742 58.3842 124.59 58.2979 124.438 58.2116C123.868 57.9037 123.261 57.6839 122.629 57.5521C122.604 57.5398 122.578 57.5275 122.565 57.49C122.552 57.4651 122.565 57.4274 122.577 57.4022C122.614 57.3516 122.652 57.3136 122.702 57.263C123.263 56.6807 123.991 56.2974 124.796 56.1641C124.935 56.1377 125.061 56.1239 125.199 56.1225C125.224 56.1223 125.25 56.1346 125.263 56.147C125.275 56.1594 125.288 56.1844 125.288 56.2094C125.256 56.7866 125.186 57.3767 125.091 57.9419C125.043 58.2183 125.007 58.4067 125.007 58.4067C125.008 58.4318 124.983 58.4571 124.958 58.4699C124.958 58.4824 124.945 58.4951 124.933 58.4952ZM122.829 57.3997C123.423 57.5318 124.005 57.7519 124.537 58.0476C124.652 58.1092 124.766 58.1833 124.88 58.2575C124.892 58.1821 124.916 58.069 124.94 57.9308C125.011 57.4662 125.105 56.8257 125.125 56.3114C125.025 56.3249 124.937 56.3257 124.848 56.3391C124.081 56.4595 123.391 56.8299 122.854 57.3869L122.829 57.3997Z" fill="#231F20"/>
<path d="M124.942 59.1564C125.283 59.153 125.557 58.8753 125.554 58.5359C125.551 58.1966 125.271 57.9242 124.93 57.9276C124.589 57.9309 124.315 58.2087 124.319 58.548C124.322 58.8873 124.601 59.1597 124.942 59.1564Z" fill="white"/>
<path d="M124.939 59.2334C124.548 59.2372 124.229 58.9268 124.226 58.5381C124.222 58.1494 124.534 57.8329 124.925 57.829C125.315 57.8252 125.634 58.1356 125.637 58.5243C125.641 58.913 125.329 59.2296 124.939 59.2334ZM124.927 58.0171C124.637 58.02 124.399 58.2605 124.402 58.5489C124.405 58.8373 124.647 59.0732 124.937 59.0704C125.227 59.0676 125.464 58.827 125.461 58.5386C125.458 58.2502 125.216 58.0143 124.927 58.0171Z" fill="#231F20"/>
<path d="M117.282 80.8623C117.282 80.8623 117.003 80.7145 116.768 81.1933C116.533 81.6721 116.03 83.0564 115.691 83.2228C115.353 83.3891 113.458 81.7899 113.108 82.0567C112.758 82.3235 112.961 82.5346 113.433 83.0066C113.904 83.4785 114.753 83.9718 114.833 84.4099C114.913 84.848 113.496 85.5641 113.086 86.2453C112.677 86.9265 113.131 86.9471 113.482 86.7806C113.834 86.6142 115.136 85.7487 115.616 85.7691C116.095 85.7895 116.545 88.0298 116.988 88.1258C117.43 88.2218 117.555 88.1077 117.538 87.7317C117.522 87.3557 117.075 85.5041 117.199 85.2646C117.323 85.0252 119.807 85.1514 119.955 84.7361C120.052 84.4217 119.885 84.0847 119.569 83.9875C119.531 83.9753 119.493 83.9631 119.443 83.9636C119.153 83.9539 117.502 84.0578 117.31 83.7086C117.117 83.3593 117.939 81.0189 117.282 80.8623Z" fill="white"/>
<path d="M117.264 88.2594C117.163 88.2604 117.074 88.2487 116.986 88.2245C116.746 88.1642 116.552 87.7271 116.281 87.0276C116.087 86.5404 115.828 85.8657 115.626 85.8677C115.299 85.8584 114.459 86.3431 113.957 86.6364C113.769 86.7511 113.619 86.8278 113.531 86.8788C113.33 86.9811 113.053 87.034 112.926 86.8847C112.798 86.7355 112.847 86.5344 113.033 86.2191C113.219 85.9038 113.619 85.5738 114.007 85.2691C114.395 84.9643 114.795 84.6344 114.768 84.4465C114.727 84.1836 114.334 83.8865 113.965 83.5766C113.762 83.4281 113.571 83.2544 113.393 83.0806L113.38 83.0681C113.062 82.7452 112.858 82.5465 112.869 82.3333C112.892 82.1951 112.967 82.0815 113.08 82.0177C113.305 81.8525 113.799 82.1361 114.586 82.63C114.979 82.877 115.563 83.2349 115.676 83.1837C115.901 83.0686 116.259 82.2124 116.48 81.6961C116.567 81.4946 116.64 81.3058 116.702 81.1798C116.764 81.0036 116.901 80.8643 117.077 80.7999C117.165 80.774 117.253 80.7731 117.329 80.81C117.822 80.9431 117.655 81.9103 117.512 82.7644C117.44 83.1664 117.369 83.6186 117.421 83.7184C117.549 83.9554 118.734 83.9313 119.175 83.927C119.314 83.9256 119.427 83.9245 119.478 83.924C119.679 83.9471 119.87 84.0581 119.985 84.2326C120.1 84.407 120.127 84.6199 120.054 84.8087C119.955 85.073 119.313 85.142 118.33 85.2143C117.927 85.2433 117.36 85.2865 117.285 85.3499C117.224 85.4759 117.41 86.4397 117.503 86.9655C117.57 87.3159 117.636 87.6288 117.637 87.7667C117.638 87.9046 117.64 88.1053 117.515 88.2068C117.44 88.2326 117.352 88.2586 117.264 88.2594ZM115.612 85.6798L115.625 85.6796C115.94 85.6891 116.16 86.2763 116.431 86.9508C116.612 87.4256 116.845 88.0002 117.009 88.0487C117.199 88.097 117.325 88.0958 117.388 88.045C117.45 87.9943 117.462 87.9064 117.448 87.7435C117.446 87.6181 117.38 87.3178 117.314 86.9673C117.141 86.0285 117.021 85.4027 117.12 85.2261C117.195 85.0875 117.497 85.0594 118.303 85.0014C118.87 84.9582 119.802 84.8864 119.876 84.7227C119.925 84.5843 119.911 84.4214 119.822 84.2969C119.732 84.1723 119.605 84.0858 119.441 84.0623C119.391 84.0628 119.277 84.0639 119.139 84.0653C118.256 84.0739 117.399 84.0697 117.232 83.7578C117.155 83.6081 117.202 83.2691 117.297 82.6913C117.404 82.0256 117.583 81.0081 117.242 80.9362C117.229 80.9364 117.229 80.9364 117.229 80.9238C117.217 80.9239 117.027 80.838 116.829 81.2161C116.767 81.3422 116.693 81.5184 116.607 81.7199C116.262 82.5259 115.978 83.1556 115.727 83.2835C115.539 83.3856 115.146 83.1512 114.461 82.7315C114.017 82.46 113.294 82.0031 113.156 82.1173C113.019 82.2315 113.019 82.2691 113.02 82.3067C113.008 82.4448 113.212 82.6434 113.479 82.9167L113.492 82.9291C113.67 83.1029 113.861 83.2641 114.052 83.4127C114.471 83.7472 114.865 84.0568 114.918 84.3824C114.972 84.6703 114.571 85.0002 114.096 85.3685C113.746 85.6478 113.346 85.9778 113.16 86.2805C112.998 86.5455 112.987 86.6961 113.038 86.7332C113.089 86.7703 113.253 86.7812 113.441 86.6791C113.529 86.6406 113.679 86.5514 113.855 86.4493C114.582 86.066 115.246 85.6959 115.612 85.6798Z" fill="#231F20"/>
<path d="M141.322 120.163H93.8384C93.8084 120.163 93.7786 120.157 93.7508 120.146C93.723 120.134 93.6977 120.118 93.6765 120.096C93.6552 120.075 93.6383 120.05 93.6268 120.022C93.6153 119.995 93.6094 119.965 93.6094 119.935C93.6094 119.905 93.6153 119.875 93.6268 119.848C93.6383 119.82 93.6552 119.795 93.6765 119.774C93.6977 119.753 93.723 119.736 93.7508 119.724C93.7786 119.713 93.8084 119.707 93.8384 119.707H141.322C141.352 119.707 141.382 119.713 141.41 119.724C141.438 119.736 141.463 119.753 141.484 119.774C141.506 119.795 141.522 119.82 141.534 119.848C141.545 119.875 141.551 119.905 141.551 119.935C141.551 119.965 141.545 119.995 141.534 120.022C141.522 120.05 141.506 120.075 141.484 120.096C141.463 120.118 141.438 120.134 141.41 120.146C141.382 120.157 141.352 120.163 141.322 120.163Z" fill="#D1D3D4"/>
<path d="M141.322 128.163H93.8384C93.8084 128.163 93.7786 128.157 93.7508 128.146C93.723 128.134 93.6977 128.118 93.6765 128.096C93.6552 128.075 93.6383 128.05 93.6268 128.022C93.6153 127.995 93.6094 127.965 93.6094 127.935C93.6094 127.905 93.6153 127.875 93.6268 127.848C93.6383 127.82 93.6552 127.795 93.6765 127.774C93.6977 127.753 93.723 127.736 93.7508 127.724C93.7786 127.713 93.8084 127.707 93.8384 127.707H141.322C141.352 127.707 141.382 127.713 141.41 127.724C141.438 127.736 141.463 127.753 141.484 127.774C141.506 127.795 141.522 127.82 141.534 127.848C141.545 127.875 141.551 127.905 141.551 127.935C141.551 127.965 141.545 127.995 141.534 128.022C141.522 128.05 141.506 128.075 141.484 128.096C141.463 128.118 141.438 128.134 141.41 128.146C141.382 128.157 141.352 128.163 141.322 128.163Z" fill="#D1D3D4"/>
<path d="M129.509 123.714H93.8384C93.7777 123.714 93.7194 123.69 93.6765 123.647C93.6335 123.604 93.6094 123.546 93.6094 123.486C93.6094 123.425 93.6335 123.367 93.6765 123.325C93.7194 123.282 93.7777 123.258 93.8384 123.258H129.509C129.569 123.258 129.628 123.282 129.671 123.325C129.714 123.367 129.738 123.425 129.738 123.486C129.738 123.546 129.714 123.604 129.671 123.647C129.628 123.69 129.569 123.714 129.509 123.714Z" fill="#D1D3D4"/>
<path d="M88.2919 123.715C87.7242 123.715 87.1693 123.547 86.6974 123.233C86.2254 122.919 85.8576 122.473 85.6403 121.951C85.4231 121.429 85.3663 120.854 85.477 120.3C85.5878 119.746 85.8611 119.236 86.2625 118.837C86.6638 118.437 87.1752 118.165 87.7319 118.055C88.2887 117.945 88.8657 118.001 89.3901 118.217C89.9146 118.434 90.3628 118.8 90.6781 119.27C90.9935 119.74 91.1618 120.292 91.1618 120.857C91.1618 121.232 91.0876 121.604 90.9434 121.951C90.7991 122.297 90.5877 122.612 90.3212 122.878C90.0547 123.143 89.7383 123.353 89.3901 123.497C89.0419 123.641 88.6687 123.715 88.2919 123.715ZM88.2919 118.456C87.8148 118.456 87.3485 118.597 86.9519 118.861C86.5553 119.125 86.2462 119.5 86.0636 119.938C85.8811 120.377 85.8333 120.86 85.9264 121.326C86.0194 121.791 86.2491 122.219 86.5864 122.555C86.9237 122.891 87.3535 123.12 87.8213 123.212C88.2892 123.305 88.7741 123.257 89.2148 123.076C89.6555 122.894 90.0322 122.586 90.2972 122.191C90.5622 121.796 90.7037 121.332 90.7037 120.857C90.7028 120.221 90.4484 119.61 89.9963 119.16C89.5442 118.71 88.9312 118.457 88.2919 118.456Z" fill="#D1D3D4"/>
<path d="M47.9231 50.1863L53.9141 62.1016L52.6196 62.7524L46.6287 50.8371L47.9231 50.1863Z" fill="#231F20"/>
<path d="M52.656 62.9915C52.6931 62.9915 52.7303 62.9915 52.7674 62.9544L54.0305 62.3228C54.142 62.2485 54.2163 62.0999 54.142 61.9884L48.1608 50.0632C48.1236 49.9889 48.0865 49.9517 48.0122 49.9146C47.9379 49.8774 47.8636 49.8774 47.8264 49.9146L46.5633 50.5461C46.4518 50.6204 46.3775 50.769 46.4518 50.8805L52.4331 62.8058C52.4702 62.8801 52.5074 62.9172 52.5817 62.9172C52.6188 62.9915 52.6188 62.9915 52.656 62.9915ZM53.5847 61.9884L52.7674 62.3971L47.0091 50.9176L47.8264 50.509L53.5847 61.9884Z" fill="#231F20"/>
<path d="M57.4141 67.2283C57.2655 66.7825 54.182 63.0303 54.0705 62.213C53.9591 61.3957 54.6278 58.0521 53.9591 57.6063C53.2904 57.1605 52.0273 60.2812 52.0273 60.2812C52.0273 60.2812 49.3524 55.3773 48.5723 55.7117C47.7921 56.046 48.0522 58.7208 48.4608 60.3926C48.8695 62.0644 53.7733 70.1632 53.7733 70.1632L57.4141 67.2283Z" fill="white"/>
<path d="M53.7702 70.3879C53.8445 70.3879 53.8817 70.3507 53.9188 70.3136L57.5596 67.4158C57.6339 67.3415 57.671 67.2301 57.6339 67.1186C57.5596 66.9329 57.2252 66.4499 56.445 65.3726C55.6649 64.2952 54.3646 62.5491 54.2903 62.1405C54.2903 61.6575 54.2903 61.1746 54.3646 60.7288C54.5132 58.9827 54.5875 57.7196 54.0674 57.3481C53.9188 57.2366 53.7702 57.2366 53.6216 57.2738C53.0272 57.4595 52.3214 58.8341 51.9499 59.6514C50.7239 57.4595 49.2007 55.1191 48.4206 55.4163C47.2689 55.8992 47.9376 59.4656 48.1605 60.3944C48.6063 62.0662 53.2873 69.9049 53.5102 70.2393C53.5473 70.3136 53.6216 70.3507 53.6959 70.3507L53.7702 70.3879ZM57.0766 67.1558L53.8445 69.7563C53.0272 68.3817 49.0893 61.7318 48.7178 60.3201C48.1977 58.3883 48.1977 56.1593 48.6806 55.9364C49.0893 55.9735 50.6496 58.2768 51.8013 60.3944C51.8384 60.4687 51.9499 60.543 52.0613 60.543C52.1728 60.543 52.2471 60.4687 52.2842 60.3944C52.8786 58.9455 53.5845 57.831 53.8445 57.831C54.1789 58.0539 54.0303 59.8 53.9188 60.7288C53.8445 61.2489 53.8074 61.769 53.8445 62.2891C53.9188 62.8092 54.8104 64.0723 56.0735 65.7812C56.445 66.2642 56.8909 66.8586 57.0766 67.1558Z" fill="#231F20"/>
<path d="M44.0708 135.062C44.0708 135.062 40.2443 141.861 40.5044 141.898C40.7644 141.935 46.8942 143.756 46.8942 143.756C46.8942 143.756 50.4978 138.257 50.4607 138.109C50.4235 137.96 44.0708 135.062 44.0708 135.062Z" fill="white"/>
<path d="M46.9005 143.981C46.9748 143.981 47.0862 143.944 47.1234 143.87C50.8012 138.26 50.7641 138.149 50.7269 138C50.6898 137.852 50.6526 137.777 44.1885 134.842C44.077 134.768 43.9284 134.842 43.8541 134.954C40.0648 141.641 40.1762 141.864 40.2505 142.012C40.2877 142.087 40.362 142.161 40.4734 142.161C40.7335 142.198 44.4114 143.276 46.8262 143.981H46.9005ZM50.1325 138.186C49.7239 138.929 47.9778 141.641 46.789 143.424C45.3773 143.015 41.848 141.975 40.8078 141.715C41.1793 140.824 42.9625 137.592 44.1885 135.437C46.2689 136.366 49.3524 137.777 50.1325 138.186Z" fill="#231F20"/>
<path d="M40.4714 141.899C40.4714 141.899 30.0693 141.341 29.5492 143.199C29.0291 145.056 44.4094 149.775 44.4094 149.775L46.8984 143.756L40.4714 141.899Z" fill="#231F20"/>
<path d="M44.4086 149.998C44.5201 149.998 44.5944 149.924 44.6315 149.849L47.1206 143.831C47.1577 143.757 47.1577 143.682 47.1206 143.608C47.0834 143.534 47.0463 143.497 46.972 143.459L40.5821 141.602H40.545C38.7618 141.49 29.92 141.119 29.3627 143.088C28.8055 145.057 40.6936 148.846 44.3715 149.961C44.3343 149.998 44.3715 149.998 44.4086 149.998ZM46.5262 143.905L44.2229 149.441C37.0157 147.212 29.5113 144.24 29.7714 143.274C30.1057 142.159 36.1612 141.936 40.3964 142.159L46.5262 143.905Z" fill="#231F20"/>
<path d="M65.8453 136.331L68.5201 139.266L73.3125 134.176L69.4489 130.164L65.8453 136.331Z" fill="white"/>
<path d="M68.5164 139.52C68.5907 139.52 68.665 139.483 68.7021 139.446L73.4945 134.394C73.606 134.282 73.606 134.134 73.4945 134.022L69.6309 129.973C69.5566 129.898 69.4823 129.898 69.408 129.898C69.3337 129.898 69.2594 129.973 69.2222 130.01L65.6187 136.177C65.5815 136.288 65.5815 136.4 65.6558 136.474L68.2935 139.409C68.3678 139.446 68.4421 139.483 68.5164 139.52ZM72.9744 134.208L68.5164 138.889L66.1759 136.288L69.5195 130.567L72.9744 134.208Z" fill="#231F20"/>
<path d="M68.5157 139.263C68.5157 139.263 65.0607 149.74 66.8811 149.591C68.7014 149.443 77.3203 138.558 77.3203 138.558L73.3081 134.211L68.5157 139.263Z" fill="#231F20"/>
<path d="M66.8134 149.85H66.8505C68.708 149.701 76.5839 139.819 77.4755 138.704C77.5498 138.593 77.5498 138.482 77.4755 138.37L73.4633 134.024C73.4261 133.986 73.3518 133.949 73.2775 133.949C73.2032 133.949 73.1289 133.986 73.0918 134.024L68.2994 139.076C68.2622 139.113 68.2622 139.15 68.2251 139.187C67.705 140.711 65.2531 148.326 66.2933 149.627C66.4419 149.738 66.6276 149.85 66.8134 149.85ZM76.9554 138.556C73.6119 142.754 68.0393 149.255 66.8134 149.329C66.7762 149.329 66.7391 149.329 66.7019 149.292C66.0704 148.475 67.5935 142.791 68.708 139.41L73.2775 134.581L76.9554 138.556Z" fill="#231F20"/>
<path d="M62.8687 86.5078C62.8687 86.5078 41.8788 109.244 41.5444 111.473C40.9128 115.819 65.4692 138.073 65.4692 138.073L71.0789 130.42L56.4417 113.33L75.6484 87.0651L62.8687 86.5078Z" fill="#231F20"/>
<path d="M65.4752 138.333C65.5867 138.333 65.6238 138.296 65.6981 138.221L71.3078 130.531C71.3821 130.42 71.3821 130.308 71.3078 130.197L56.8192 113.294L75.9145 87.1768C75.9888 87.0654 75.9516 86.8796 75.8402 86.8053C75.803 86.7682 75.7659 86.7682 75.6916 86.7682L62.8747 86.2109C62.8004 86.2109 62.7261 86.2481 62.6889 86.2852C60.5342 88.6257 41.6247 109.133 41.2903 111.399C40.9931 113.294 44.9682 118.383 53.1041 126.556C59.0854 132.612 65.2523 138.184 65.3266 138.259C65.3638 138.296 65.4009 138.333 65.4752 138.333ZM70.7506 130.42L65.4009 137.701C58.4538 131.386 41.2532 114.928 41.7733 111.51C41.9962 109.95 54.5159 95.9072 62.949 86.7682L75.1715 87.2883L56.2248 113.182C56.1505 113.294 56.1505 113.405 56.2248 113.516L70.7506 130.42Z" fill="#231F20"/>
<path d="M80.1484 91.5598L49.4251 141.713L40.8062 136.735L66.2542 86.8789L80.1484 91.5598Z" fill="#231F20"/>
<path d="M49.4229 141.975C49.4972 141.975 49.6086 141.938 49.6458 141.863L80.3691 91.7104C80.4062 91.6361 80.4062 91.5618 80.4062 91.4875C80.3691 91.4132 80.332 91.3389 80.2577 91.3389L66.3263 86.6579C66.2148 86.6208 66.0662 86.6579 66.0291 86.8065L40.5811 136.699C40.5068 136.811 40.5811 136.96 40.6925 137.034L49.3114 141.938C49.3485 141.975 49.3857 141.975 49.4229 141.975ZM79.7747 91.6732L49.3485 141.343L41.1383 136.625L66.3634 87.178L79.7747 91.6732Z" fill="#231F20"/>
<path d="M48.829 120.575C48.9404 120.575 49.0147 120.537 49.0519 120.426L63.5034 92.8604C63.5405 92.7861 63.5405 92.6747 63.5034 92.6004L61.9802 89.8512C61.9059 89.7398 61.7573 89.7026 61.6087 89.7769C61.4973 89.8512 61.4601 89.9998 61.4973 90.1113L62.9461 92.7118L48.5689 120.166C48.4946 120.277 48.5689 120.463 48.6804 120.537C48.7547 120.537 48.7918 120.537 48.829 120.575Z" fill="white"/>
<path d="M78.2858 55.2305C79.6232 55.0076 80.9607 54.6732 82.2609 54.3389C83.2268 54.0788 84.2299 53.7073 84.75 52.89C83.8955 52.5185 83.524 51.5154 83.2268 50.6238L81.2579 44.5683C80.7006 42.8965 80.1805 41.2248 79.1774 39.7759C78.4716 38.7729 75.4996 35.8008 74.385 37.6583C73.1219 36.6924 70.4843 35.9866 68.9611 36.6924C67.2522 37.584 65.9891 39.2187 65.5804 41.1133C65.2461 42.6736 65.469 44.2711 65.8033 45.7943C65.8405 46.0915 65.9519 46.4258 66.1005 46.6859C66.3606 47.0574 66.6949 47.3917 67.1036 47.6146C69.8527 49.5836 72.0446 52.2213 73.5306 55.2305C73.6049 55.4534 73.7535 55.602 73.9392 55.7134C74.0878 55.7506 74.2364 55.7877 74.4222 55.7506C75.7225 55.6391 76.9856 55.4534 78.2858 55.2305Z" fill="white"/>
<path d="M74.242 56.008C74.3163 56.008 74.3906 56.008 74.4649 56.008C75.7652 55.8966 77.0654 55.7108 78.3286 55.4879C79.666 55.265 81.0405 54.9307 82.3408 54.5592C83.381 54.262 84.4584 53.8905 84.9785 52.9989C85.0156 52.9246 85.0156 52.8503 85.0156 52.776C84.9785 52.7017 84.9413 52.6645 84.867 52.6274C84.124 52.293 83.7897 51.4014 83.4925 50.5098L81.5235 44.4543C80.9662 42.7825 80.409 41.0736 79.4059 39.5876C78.8115 38.7331 76.8425 36.7642 75.3937 36.7642H75.3565C74.9479 36.7642 74.6135 36.9499 74.3535 37.2471C73.0161 36.3555 70.4898 35.6496 68.8924 36.4298C67.1092 37.3586 65.8089 39.0303 65.3631 41.0364C65.0287 42.6339 65.2516 44.3057 65.586 45.8288C65.6231 46.1632 65.7346 46.4975 65.9203 46.7947C66.1804 47.1663 66.5148 47.5006 66.9234 47.7607L66.9977 47.7978C69.7097 49.7296 71.8644 52.3301 73.3504 55.3393C73.4619 55.5994 73.6476 55.8223 73.8705 55.9709C73.982 55.9709 74.0934 56.008 74.242 56.008ZM84.3841 52.9246C83.864 53.5561 82.9724 53.8162 82.1922 54.0391C80.8919 54.4106 79.5545 54.7078 78.2171 54.9307C76.954 55.1536 75.6537 55.3393 74.3906 55.4508C74.2792 55.4879 74.1677 55.4879 74.0563 55.4508C73.9448 55.4136 73.8705 55.2279 73.7962 55.0793C72.3102 51.9958 70.044 49.3581 67.2949 47.352L67.2206 47.3149C66.8863 47.092 66.5891 46.8319 66.3662 46.4975C66.2547 46.2375 66.1432 45.9774 66.1061 45.6802C65.8089 44.1942 65.5488 42.6339 65.8832 41.1107C66.2918 39.2904 67.4807 37.7301 69.1153 36.8756C70.4527 36.2069 73.0161 36.8384 74.242 37.8044C74.3163 37.8415 74.3906 37.8787 74.4649 37.8415C74.5392 37.8415 74.6135 37.8044 74.6507 37.7301C74.7993 37.4329 75.0965 37.2843 75.3937 37.2471C76.6196 37.2471 78.4772 39.1418 78.9601 39.8476C79.926 41.2593 80.4833 42.9311 81.0034 44.5657L82.9724 50.6212C83.2696 51.5128 83.6411 52.4416 84.3841 52.9246Z" fill="#231F20"/>
<path d="M65.8096 47.9844C65.8096 47.9844 64.175 51.5508 64.7322 52.1452C65.2895 52.7396 66.6641 52.0709 66.6641 52.0709" fill="white"/>
<path d="M65.3987 52.6641C65.8817 52.627 66.3275 52.5155 66.7733 52.3298C66.9219 52.2555 66.959 52.1069 66.8847 51.9954C66.8104 51.8468 66.6618 51.8097 66.5504 51.884C66.216 52.0326 65.2501 52.4041 64.9158 52.0326C64.6928 51.7725 65.213 49.9522 66.0303 48.1689C66.1046 48.0203 66.0303 47.8717 65.9188 47.8346C65.8074 47.7603 65.6216 47.8346 65.5845 47.946C65.0644 49.0606 63.9498 51.7354 64.5442 52.4041C64.7671 52.5898 65.1015 52.7013 65.3987 52.6641Z" fill="#231F20"/>
<path d="M65.5836 43.6369C64.3948 44.9743 65.175 47.2404 65.435 48.7636C65.8066 50.9183 66.2152 53.0359 66.661 55.1535C66.9582 56.4909 70.4875 55.9708 71.0447 55.4507L71.4162 59.983C71.4162 59.983 72.6422 62.3235 75.2799 60.5774C77.9176 58.8314 78.2891 56.8995 78.2891 56.8995L77.0631 50.7326C77.0631 50.7326 74.7598 51.1041 72.9394 48.5779C71.119 46.0516 70.4875 41.7422 70.4875 41.7422C70.4875 41.7422 66.7353 42.3737 65.5836 43.6369Z" fill="white"/>
<path d="M73.4201 61.5453C74.126 61.5082 74.8318 61.2853 75.4262 60.8395C78.1011 59.0191 78.5469 57.0501 78.5469 56.9758C78.5469 56.9387 78.5469 56.9015 78.5469 56.8644L77.3209 50.6974C77.2838 50.5488 77.1723 50.4745 77.0237 50.4745C76.9494 50.4745 74.8318 50.8089 73.1229 48.3941C71.3769 45.9422 70.7453 41.7442 70.7453 41.707C70.7453 41.6327 70.7082 41.5956 70.6339 41.5213C70.5596 41.4841 70.5224 41.447 70.4481 41.4841C70.2995 41.5213 66.6216 42.0785 65.3957 43.416C64.3183 44.6048 64.6898 46.4623 65.0241 47.9483C65.0984 48.2455 65.1356 48.5056 65.1727 48.7656C65.5443 50.8832 65.9529 53.0751 66.3987 55.1926C66.5102 55.6384 66.8817 56.0099 67.3275 56.0842C68.3305 56.4186 69.9651 56.1957 70.7825 55.8613L71.154 60.0222C71.154 60.0593 71.154 60.0965 71.1911 60.1336C71.5626 60.7652 72.1199 61.2481 72.8257 61.4339C73.0115 61.5453 73.2344 61.5453 73.4201 61.5453ZM77.9896 56.9387C77.9153 57.2359 77.3952 58.8705 75.0919 60.4308C74.3117 60.9509 73.5687 61.1367 72.9372 60.9881C72.3799 60.8395 71.9341 60.468 71.6369 59.985L71.2654 55.4898C71.2654 55.3784 71.1911 55.3041 71.1168 55.2669C71.0054 55.2298 70.931 55.2669 70.8567 55.3041C70.5595 55.5641 68.6277 56.0099 67.5132 55.6384C67.1789 55.527 66.956 55.3412 66.9188 55.1183C66.473 53.0008 66.0644 50.846 65.6928 48.7285C65.6557 48.4684 65.5814 48.1712 65.5443 47.874C65.247 46.4994 64.9127 44.7905 65.8043 43.7875C66.7331 42.7473 69.445 42.19 70.2624 42.0414C70.4481 43.0073 71.1168 46.4623 72.7143 48.7285C74.3117 50.9946 76.1693 51.0689 76.838 51.0318L77.9896 56.9387Z" fill="#231F20"/>
<path d="M66.4387 53.595C66.4387 53.595 68.2591 54.338 68.8906 52.4805L66.4387 53.595Z" fill="white"/>
<path d="M67.2578 54.0038C68.1494 54.041 68.9296 53.4094 69.1153 52.555C69.1525 52.4064 69.0782 52.2578 68.9667 52.2206C68.8181 52.1835 68.6695 52.2577 68.6324 52.3692C68.5209 52.7779 68.2609 53.1122 67.8894 53.3351C67.4436 53.4837 66.9978 53.4837 66.552 53.3351C66.4405 53.2608 66.2548 53.3351 66.2176 53.4466C66.1433 53.558 66.2176 53.7438 66.3291 53.7809H66.3662C66.6634 53.9295 66.9606 54.0038 67.2578 54.0038Z" fill="#231F20"/>
<path d="M70.1548 48.7262C70.1176 48.1689 70.2662 47.6488 70.5263 47.1659C70.6749 46.7572 70.8978 46.3857 71.1578 46.0514C71.4179 45.717 71.8265 45.5312 72.2723 45.5312C72.6438 45.5684 72.9782 45.7542 73.2011 46.0514C73.424 46.3486 73.5726 46.7201 73.6469 47.0916C73.9812 48.7262 73.424 50.3979 72.1609 51.5125L72.2723 51.3639" fill="white"/>
<path d="M72.1233 51.7357C72.1976 51.7357 72.2347 51.6985 72.309 51.6614C73.6093 50.5097 74.2037 48.7265 73.8693 46.9804C73.795 46.5718 73.6093 46.2003 73.3864 45.8659C73.1263 45.4944 72.7177 45.2715 72.2347 45.2344C71.7146 45.2344 71.2316 45.4573 70.9344 45.8659C70.6372 46.2003 70.4143 46.6089 70.2657 47.0176C69.9685 47.5377 69.8571 48.1321 69.8942 48.7265C69.9314 48.8751 70.0428 48.9494 70.1914 48.9494C70.34 48.9123 70.4515 48.8008 70.4143 48.6522C70.4143 48.1693 70.5258 47.6491 70.7487 47.2405C70.8973 46.869 71.083 46.5346 71.3431 46.2003C71.566 45.9402 71.9004 45.7545 72.2347 45.7545C72.5319 45.7916 72.792 45.9402 72.9777 46.2003C73.1635 46.4603 73.3121 46.7947 73.3492 47.129C73.6464 48.5779 73.2006 50.0639 72.1976 51.1041C72.1233 51.1041 72.0861 51.1413 72.0118 51.2156L71.9004 51.3642C71.8261 51.4756 71.8632 51.6614 71.9746 51.7357C72.0118 51.7357 72.0861 51.7728 72.1233 51.7357Z" fill="#231F20"/>
<path d="M71.0058 55.4907C71.0058 55.4907 72.7518 54.6363 73.3834 53.2617C73.3834 53.2617 73.792 56.5681 71.1544 57.9427L71.0058 55.4907Z" fill="#231F20"/>
<path d="M71.154 58.2004C71.1911 58.2004 71.2283 58.2004 71.2654 58.1633C74.0517 56.7144 73.643 53.2594 73.643 53.2223C73.643 53.0737 73.4944 52.9622 73.3458 52.9994C73.2715 52.9994 73.1972 53.0737 73.1229 53.148C72.5285 54.4482 70.8568 55.2656 70.8568 55.2656C70.7825 55.3027 70.7082 55.4142 70.7082 55.5256L70.8568 57.9775C70.8568 58.0518 70.8939 58.1633 71.0054 58.2004C71.0425 58.1633 71.1168 58.2004 71.154 58.2004ZM73.1229 54.151C73.0486 55.0798 72.7143 56.603 71.3769 57.4946L71.2654 55.6742C71.9713 55.2656 72.6028 54.7455 73.1229 54.151Z" fill="#231F20"/>
<path d="M66.5156 46.4194C66.3779 46.0111 66.3924 45.6376 66.548 45.5851C66.7035 45.5327 66.9412 45.8212 67.0789 46.2295C67.2165 46.6378 67.202 47.0113 67.0465 47.0637C66.891 47.1161 66.6533 46.8277 66.5156 46.4194Z" fill="#231F20"/>
<path d="M79.8157 55.7461C79.8157 55.7461 72.6085 56.6006 70.008 60.6871C67.4074 64.7736 66.1072 79.7824 64.7698 80.8969C63.4323 82.0114 59.7916 87.7697 59.8659 88.0298C59.9402 88.2898 80.9673 93.3794 80.9673 93.3794C80.9673 93.3794 81.8589 88.5127 83.6793 82.1971C85.4997 75.8816 85.834 55.7461 79.8157 55.7461Z" fill="#84AFBF"/>
<path d="M74.3547 62.2097C74.2061 62.4326 66.9989 76.0296 66.9989 76.0296L57.4513 65.1446L52.436 69.3426C52.436 69.3426 60.9805 83.6083 66.4045 84.9829C71.8285 86.3574 82.7878 66.4077 82.4535 64.3273C82.1191 62.2469 76.4723 59.1262 74.3547 62.2097Z" fill="#84AFBF"/>
<path d="M66.9595 76.2898C67.0709 76.2898 67.1452 76.2154 67.1824 76.1411L73.7209 63.8444C73.7952 63.6958 73.7209 63.5472 73.5723 63.51C73.4608 63.4729 73.3122 63.51 73.2379 63.6215C73.1636 63.7701 67.9254 73.6149 66.8852 75.5839L62.9472 71.0515C62.8729 70.9401 62.6872 70.903 62.5757 71.0144C62.4643 71.0887 62.4271 71.2745 62.5386 71.3859C62.5386 71.3859 62.5386 71.4231 62.5757 71.4231L66.7737 76.2155C66.8109 76.2526 66.8852 76.2898 66.9595 76.2898Z" fill="#231F20"/>
<path d="M66.3674 84.985C69.8967 84.985 73.5374 81.8272 77.141 75.5859C77.2153 75.4745 77.1782 75.2887 77.0667 75.2144C77.0667 75.2144 77.0667 75.2144 77.0296 75.2144C76.9181 75.1401 76.7324 75.1773 76.6952 75.2887C72.9059 81.8272 69.1909 84.8735 65.5873 84.3906C61.9837 83.9076 58.0457 77.1091 58.0086 77.0348C57.9343 76.9234 57.7485 76.8862 57.6371 76.9605C57.5256 77.0348 57.4885 77.1834 57.5628 77.2949C57.7485 77.5921 61.7236 84.3906 65.513 84.9107C65.8102 84.9478 66.0702 84.985 66.3674 84.985Z" fill="#231F20"/>
<path d="M71.6007 99.8448C71.6378 99.8448 71.7121 99.8448 71.7493 99.8076C71.8607 99.7333 71.935 99.5847 71.8607 99.4733C71.8607 99.4733 71.8607 99.4361 71.8236 99.4361C69.4088 95.4239 71.1177 93.6778 71.2292 93.6035C71.3406 93.4921 71.3406 93.3435 71.2292 93.232C71.1177 93.1206 70.9691 93.1206 70.8577 93.232C70.7834 93.3063 68.7401 95.3124 71.3778 99.6962C71.4149 99.8076 71.4892 99.8448 71.6007 99.8448Z" fill="white"/>
<path d="M84.1961 55.375C86.388 55.375 88.8399 55.858 90.0287 57.7155C90.7717 58.9414 90.7717 60.4646 90.0287 61.6906C89.2114 62.8794 87.7997 63.4738 86.3508 63.2137C85.3106 62.9908 84.419 62.285 83.4531 61.8763C82.0414 61.2819 80.4439 61.2819 78.9579 60.9104C78.4749 60.8361 78.0291 60.6504 77.6576 60.316C77.2861 59.9445 77.1004 59.4615 77.1004 58.9414C76.8775 55.2636 81.7442 55.4122 84.1961 55.375Z" fill="#84AFBF"/>
<path d="M84.1209 62.4707C84.2324 62.4707 84.3438 62.3964 84.381 62.2849C84.4181 62.1363 84.3438 61.9877 84.2324 61.9506C84.0466 61.8763 80.1087 60.4274 77.3595 60.6875C77.2109 60.6875 77.0995 60.8361 77.1366 60.9847C77.1366 61.1333 77.2852 61.2447 77.4338 61.2076C80.0715 60.9847 84.0466 62.4335 84.0838 62.4707C84.0466 62.4707 84.0838 62.4707 84.1209 62.4707Z" fill="#231F20"/>
</svg>
