<svg width="192" height="192" viewBox="0 0 192 192" fill="none" xmlns="http://www.w3.org/2000/svg">
<circle cx="96.0022" cy="99.428" r="83.1429" fill="#D6EFF8"/>
<path d="M124.104 93.8438C126.035 94.7388 127.496 96.3404 128.249 98.3188C130.134 103.218 132.583 116.313 132.583 116.313C138.094 116.879 143.653 117.491 149.164 118.198C151.755 118.527 154.346 118.857 156.937 119.328C157.973 119.564 159.01 119.705 160.093 119.752C161.176 119.705 162.59 119.328 163.626 119.752C163.767 119.799 163.862 119.893 163.909 119.988C163.909 120.129 163.909 120.223 163.814 120.317C163.579 120.694 163.343 121.071 163.155 121.401C163.626 121.589 164.097 121.825 164.568 122.107C165.463 122.814 165.652 124.086 164.945 124.981C164.757 125.216 164.521 125.405 164.285 125.546C163.579 125.923 162.825 125.782 162.071 125.829C161.176 125.876 160.281 125.97 159.386 125.923C157.549 125.876 155.759 125.735 153.922 125.64C150.86 125.499 147.798 125.358 144.784 125.169C138.047 124.745 131.17 124.416 124.528 123.097C123.35 122.861 121.136 122.626 120.335 121.542C118.074 118.574 124.104 93.8438 124.104 93.8438Z" fill="white"/>
<path d="M159.531 126.298H159.249C158.118 126.298 156.941 126.203 155.857 126.109C155.15 126.062 154.491 126.015 153.784 125.968C150.346 125.826 147.378 125.638 144.599 125.497L142.997 125.403C136.826 125.026 130.42 124.649 124.296 123.424L123.731 123.33C122.412 123.094 120.669 122.812 119.915 121.775C117.748 118.713 123.165 96.2909 123.778 93.7472C123.778 93.653 123.872 93.5588 123.966 93.5588C124.06 93.5117 124.155 93.5117 124.249 93.5588C126.274 94.4538 127.829 96.1496 128.536 98.2223C130.278 102.744 132.492 114.144 132.822 116.028C138.475 116.594 143.986 117.253 149.121 117.913C151.57 118.242 154.255 118.572 156.893 119.043C157.176 119.09 157.412 119.137 157.694 119.185C158.448 119.373 159.202 119.467 160.002 119.467C160.285 119.467 160.662 119.42 160.992 119.373C161.887 119.279 162.876 119.185 163.677 119.467C163.912 119.514 164.101 119.703 164.148 119.938C164.195 120.127 164.148 120.362 164.006 120.551L163.535 121.351L163.677 121.399C164.006 121.54 164.336 121.681 164.619 121.917C165.655 122.67 165.891 124.178 165.09 125.214C164.854 125.497 164.572 125.732 164.289 125.921C163.724 126.156 163.111 126.298 162.546 126.25C162.358 126.25 162.169 126.25 161.981 126.25C161.086 126.25 160.332 126.298 159.531 126.298ZM124.343 94.3125C122.647 101.425 118.832 119.043 120.48 121.399C121.046 122.199 122.741 122.482 123.825 122.717L124.437 122.812C130.514 124.036 136.92 124.413 143.044 124.79L144.646 124.884C147.378 125.073 150.393 125.214 153.784 125.355C154.491 125.403 155.15 125.45 155.857 125.497C156.988 125.544 158.118 125.638 159.249 125.638C160.097 125.638 160.945 125.591 161.887 125.544C162.075 125.544 162.311 125.544 162.499 125.544C163.017 125.591 163.488 125.497 163.959 125.308C164.477 125.026 164.807 124.508 164.854 123.942C164.901 123.377 164.666 122.812 164.195 122.435C163.959 122.246 163.677 122.105 163.394 122.011C163.206 121.917 163.017 121.87 162.876 121.775C162.735 121.681 162.64 121.493 162.735 121.351V121.304L163.394 120.268L163.441 120.221H163.394C162.735 119.938 161.887 120.032 161.039 120.127C160.662 120.174 160.332 120.221 160.002 120.221C159.202 120.221 158.354 120.127 157.553 119.938C157.317 119.891 157.035 119.844 156.752 119.797C154.114 119.373 151.476 118.996 149.027 118.666C143.798 118.007 138.192 117.347 132.492 116.782C132.351 116.782 132.21 116.641 132.21 116.499C132.21 116.358 129.713 103.357 127.876 98.5991C127.217 96.8562 125.945 95.3488 124.296 94.4538L124.343 94.3125Z" fill="#231F20"/>
<path d="M141.023 111.994C139.361 114.734 141.203 120.843 141.203 120.843L143.673 122.639C147.401 124.751 152.118 123.493 154.274 119.765C156.34 116.171 155.217 111.545 151.669 109.344L148.929 107.996C148.973 107.996 142.685 109.209 141.023 111.994Z" fill="#84AFBF"/>
<path d="M147.674 124.028C146.237 124.028 144.799 123.624 143.541 122.86L141.071 121.063C141.026 121.018 140.981 120.974 140.936 120.884C140.846 120.614 139.05 114.595 140.756 111.765C142.463 108.935 148.617 107.678 148.887 107.633C148.932 107.633 149.021 107.633 149.066 107.678L151.806 109.025C155.624 111.316 156.882 116.257 154.591 120.075C153.154 122.546 150.549 124.028 147.674 124.028ZM141.52 120.659L143.901 122.366C147.494 124.387 152.031 123.13 154.052 119.536C155.984 116.077 154.906 111.72 151.537 109.609L148.932 108.351C148.123 108.531 142.778 109.744 141.34 112.17C139.903 114.595 141.296 119.851 141.52 120.659Z" fill="#231F20"/>
<path d="M146.013 122.729C150.305 122.729 153.784 119.25 153.784 114.958C153.784 110.667 150.305 107.188 146.013 107.188C141.721 107.188 138.242 110.667 138.242 114.958C138.242 119.25 141.721 122.729 146.013 122.729Z" fill="#84AFBF"/>
<path d="M146.007 122.999C141.56 122.999 137.922 119.36 137.922 114.913C137.922 110.467 141.56 106.828 146.007 106.828C150.454 106.828 154.092 110.467 154.092 114.913C154.092 116.396 153.688 117.833 152.925 119.091C151.442 121.561 148.837 123.044 146.007 122.999ZM146.007 107.502C141.92 107.502 138.551 110.826 138.551 114.913C138.551 119.001 141.875 122.37 145.962 122.37C150.05 122.37 153.419 119.046 153.419 114.958C153.419 112.353 152.071 109.927 149.825 108.58C148.657 107.861 147.355 107.502 146.007 107.502Z" fill="#231F20"/>
<path d="M125.93 121.828V125.826C125.93 127.353 129.613 128.566 134.195 128.566C138.776 128.566 142.46 127.353 142.46 125.826V121.828H125.93Z" fill="#84AFBF"/>
<path d="M134.152 128.835C130.019 128.835 125.617 127.757 125.617 125.781V121.783C125.617 121.604 125.752 121.469 125.932 121.469H142.417C142.596 121.469 142.731 121.604 142.731 121.783V125.781C142.731 127.757 138.329 128.835 134.152 128.835ZM126.246 122.098V125.781C126.246 126.904 129.48 128.206 134.152 128.206C138.823 128.206 142.057 126.949 142.057 125.781V122.098H126.246Z" fill="#231F20"/>
<path d="M134.148 124.566C138.712 124.566 142.413 123.339 142.413 121.826C142.413 120.313 138.712 119.086 134.148 119.086C129.583 119.086 125.883 120.313 125.883 121.826C125.883 123.339 129.583 124.566 134.148 124.566Z" fill="#231F20"/>
<path d="M134.152 124.835C130.019 124.835 125.617 123.757 125.617 121.781C125.617 119.805 130.019 118.727 134.152 118.727C138.284 118.727 142.686 119.805 142.686 121.781C142.686 123.757 138.329 124.835 134.152 124.835ZM134.152 119.4C129.48 119.4 126.246 120.658 126.246 121.826C126.246 122.994 129.48 124.252 134.152 124.252C138.823 124.252 142.057 122.994 142.057 121.826C142.057 120.658 138.823 119.4 134.152 119.4Z" fill="#231F20"/>
<path d="M127.859 116.352V120.349C127.859 121.877 131.543 123.089 136.124 123.089C140.706 123.089 144.389 121.877 144.389 120.349V116.352H127.859Z" fill="#84AFBF"/>
<path d="M136.128 123.398C131.996 123.398 127.594 122.32 127.594 120.343V116.346C127.594 116.166 127.729 116.031 127.908 116.031H144.393C144.573 116.031 144.708 116.166 144.708 116.346V120.343C144.663 122.32 140.261 123.398 136.128 123.398ZM128.178 116.66V120.343C128.178 121.511 131.412 122.769 136.083 122.769C140.755 122.769 143.989 121.511 143.989 120.343V116.66H128.178Z" fill="#231F20"/>
<path d="M136.124 119.089C140.689 119.089 144.389 117.863 144.389 116.349C144.389 114.836 140.689 113.609 136.124 113.609C131.56 113.609 127.859 114.836 127.859 116.349C127.859 117.863 131.56 119.089 136.124 119.089Z" fill="#231F20"/>
<path d="M136.128 119.398C131.996 119.398 127.594 118.32 127.594 116.344C127.594 114.367 131.996 113.289 136.128 113.289C140.261 113.289 144.663 114.367 144.663 116.344C144.663 118.32 140.261 119.398 136.128 119.398ZM136.128 113.918C131.457 113.918 128.223 115.176 128.223 116.344C128.223 117.511 131.457 118.769 136.128 118.769C140.8 118.769 144.034 117.511 144.034 116.344C144.034 115.176 140.8 113.918 136.128 113.918Z" fill="#231F20"/>
<path d="M126.203 110.238V114.236C126.203 115.763 129.886 116.976 134.468 116.976C139.05 116.976 142.733 115.763 142.733 114.236V110.238H126.203Z" fill="#84AFBF"/>
<path d="M134.417 117.292C130.285 117.292 125.883 116.214 125.883 114.238V110.24C125.883 110.061 126.018 109.926 126.197 109.926H142.682C142.862 109.926 142.997 110.061 142.997 110.24V114.238C142.997 116.214 138.595 117.292 134.417 117.292ZM126.512 110.555V114.238C126.512 115.406 129.746 116.664 134.417 116.664C139.089 116.664 142.323 115.406 142.323 114.238V110.555H126.512Z" fill="#231F20"/>
<path d="M134.421 112.98C138.986 112.98 142.686 111.753 142.686 110.24C142.686 108.727 138.986 107.5 134.421 107.5C129.857 107.5 126.156 108.727 126.156 110.24C126.156 111.753 129.857 112.98 134.421 112.98Z" fill="#231F20"/>
<path d="M134.417 113.296C130.285 113.296 125.883 112.218 125.883 110.242C125.883 108.266 130.285 107.188 134.417 107.188C138.55 107.188 142.952 108.266 142.952 110.242C142.952 112.218 138.595 113.296 134.417 113.296ZM134.417 107.816C129.746 107.816 126.512 109.074 126.512 110.242C126.512 111.41 129.746 112.668 134.417 112.668C139.089 112.668 142.323 111.41 142.323 110.242C142.323 109.074 139.089 107.816 134.417 107.816Z" fill="#231F20"/>
<path d="M147.625 121.105V125.103C147.625 126.63 151.308 127.843 155.89 127.843C160.472 127.843 164.155 126.63 164.155 125.103V121.105H147.625Z" fill="#84AFBF"/>
<path d="M155.847 128.163C151.714 128.163 147.312 127.085 147.312 125.109V121.111C147.312 120.932 147.447 120.797 147.627 120.797H164.112C164.292 120.797 164.426 120.932 164.426 121.111V125.109C164.426 127.085 160.024 128.163 155.847 128.163ZM147.941 121.426V125.109C147.941 126.232 151.175 127.535 155.847 127.535C160.518 127.535 163.753 126.277 163.753 125.109V121.426H147.941Z" fill="#231F20"/>
<path d="M155.851 123.847C160.415 123.847 164.116 122.62 164.116 121.107C164.116 119.594 160.415 118.367 155.851 118.367C151.286 118.367 147.586 119.594 147.586 121.107C147.586 122.62 151.286 123.847 155.851 123.847Z" fill="#231F20"/>
<path d="M155.847 124.164C151.714 124.164 147.312 123.086 147.312 121.109C147.312 119.133 151.714 118.055 155.847 118.055C159.979 118.055 164.381 119.133 164.381 121.109C164.381 123.086 160.024 124.164 155.847 124.164ZM155.847 118.684C151.175 118.684 147.941 119.941 147.941 121.109C147.941 122.277 151.175 123.535 155.847 123.535C160.518 123.535 163.753 122.277 163.753 121.109C163.753 119.941 160.518 118.684 155.847 118.684Z" fill="#231F20"/>
<path d="M146.547 116.395V120.392C146.547 121.919 150.23 123.132 154.812 123.132C159.393 123.132 163.077 121.919 163.077 120.392V116.395H146.547Z" fill="#84AFBF"/>
<path d="M154.769 123.445C150.636 123.445 146.234 122.367 146.234 120.39V116.393C146.234 116.213 146.369 116.078 146.549 116.078H163.034C163.213 116.078 163.348 116.213 163.348 116.393V120.39C163.348 122.367 158.946 123.445 154.769 123.445ZM146.863 116.707V120.39C146.863 121.558 150.097 122.816 154.769 122.816C159.44 122.816 162.674 121.558 162.674 120.39V116.707H146.863Z" fill="#231F20"/>
<path d="M154.773 119.136C159.337 119.136 163.038 117.91 163.038 116.396C163.038 114.883 159.337 113.656 154.773 113.656C150.208 113.656 146.508 114.883 146.508 116.396C146.508 117.91 150.208 119.136 154.773 119.136Z" fill="#231F20"/>
<path d="M154.769 119.449C150.636 119.449 146.234 118.371 146.234 116.394C146.234 114.418 150.636 113.34 154.769 113.34C158.901 113.34 163.303 114.418 163.303 116.394C163.303 118.371 158.946 119.449 154.769 119.449ZM154.769 113.969C150.097 113.969 146.863 115.226 146.863 116.394C146.863 117.562 150.097 118.82 154.769 118.82C159.44 118.82 162.674 117.562 162.674 116.394C162.674 115.226 159.485 113.969 154.769 113.969Z" fill="#231F20"/>
<path d="M147.898 110.641V114.638C147.898 116.166 151.582 117.378 156.163 117.378C160.745 117.378 164.428 116.166 164.428 114.638V110.641H147.898Z" fill="#84AFBF"/>
<path d="M156.12 117.648C151.988 117.648 147.586 116.57 147.586 114.593V110.596C147.586 110.416 147.721 110.281 147.9 110.281H164.385C164.565 110.281 164.7 110.416 164.7 110.596V114.593C164.655 116.615 160.253 117.648 156.12 117.648ZM148.215 110.91V114.593C148.215 115.761 151.449 117.019 156.12 117.019C160.792 117.019 164.026 115.761 164.026 114.593V110.91H148.215Z" fill="#231F20"/>
<path d="M156.117 113.382C160.681 113.382 164.381 112.156 164.381 110.642C164.381 109.129 160.681 107.902 156.117 107.902C151.552 107.902 147.852 109.129 147.852 110.642C147.852 112.156 151.552 113.382 156.117 113.382Z" fill="#231F20"/>
<path d="M156.12 113.699C151.988 113.699 147.586 112.621 147.586 110.644C147.586 108.668 151.988 107.59 156.12 107.59C160.253 107.59 164.655 108.668 164.655 110.644C164.655 112.621 160.253 113.699 156.12 113.699ZM156.12 108.219C151.449 108.219 148.215 109.476 148.215 110.644C148.215 111.812 151.449 113.07 156.12 113.07C160.792 113.07 164.026 111.812 164.026 110.644C164.026 109.476 160.792 108.219 156.12 108.219Z" fill="#231F20"/>
<path d="M146.547 104.848V108.845C146.547 110.373 150.23 111.585 154.812 111.585C159.393 111.585 163.077 110.373 163.077 108.845V104.848H146.547Z" fill="#84AFBF"/>
<path d="M154.769 111.902C150.636 111.902 146.234 110.824 146.234 108.847V104.85C146.234 104.67 146.369 104.535 146.549 104.535H163.034C163.213 104.535 163.348 104.67 163.348 104.85V108.847C163.348 110.824 158.946 111.902 154.769 111.902ZM146.863 105.164V108.847C146.863 110.015 150.097 111.273 154.769 111.273C159.44 111.273 162.674 110.015 162.674 108.847V105.164H146.863Z" fill="#231F20"/>
<path d="M154.773 107.589C159.337 107.589 163.038 106.363 163.038 104.849C163.038 103.336 159.337 102.109 154.773 102.109C150.208 102.109 146.508 103.336 146.508 104.849C146.508 106.363 150.208 107.589 154.773 107.589Z" fill="#231F20"/>
<path d="M154.769 107.906C150.636 107.906 146.234 106.828 146.234 104.851C146.234 102.875 150.636 101.797 154.769 101.797C158.901 101.797 163.303 102.875 163.303 104.851C163.303 106.828 158.946 107.906 154.769 107.906ZM154.769 102.426C150.097 102.426 146.863 103.683 146.863 104.851C146.863 106.019 150.097 107.277 154.769 107.277C159.44 107.277 162.674 106.019 162.674 104.851C162.674 103.683 159.485 102.426 154.769 102.426Z" fill="#231F20"/>
<path d="M149.203 100.133V104.131C149.203 105.658 152.886 106.871 157.468 106.871C162.05 106.871 165.733 105.658 165.733 104.131V100.133H149.203Z" fill="#84AFBF"/>
<path d="M157.464 107.14C153.332 107.14 148.93 106.062 148.93 104.086V100.088C148.93 99.9082 149.064 99.7734 149.244 99.7734H165.684C165.864 99.7734 165.999 99.9082 165.999 100.088V104.086C165.999 106.062 161.597 107.14 157.464 107.14ZM149.559 100.402V104.086C149.559 105.253 152.793 106.511 157.464 106.511C162.136 106.511 165.37 105.253 165.37 104.086V100.402H149.559Z" fill="#231F20"/>
<path d="M157.468 102.871C162.033 102.871 165.733 101.644 165.733 100.131C165.733 98.6174 162.033 97.3906 157.468 97.3906C152.903 97.3906 149.203 98.6174 149.203 100.131C149.203 101.644 152.903 102.871 157.468 102.871Z" fill="#231F20"/>
<path d="M157.464 103.187C153.332 103.187 148.93 102.109 148.93 100.133C148.93 98.1562 153.332 97.0781 157.464 97.0781C161.597 97.0781 165.999 98.1562 165.999 100.133C165.999 102.109 161.597 103.187 157.464 103.187ZM157.464 97.707C152.793 97.707 149.559 98.9647 149.559 100.133C149.559 101.3 152.793 102.558 157.464 102.558C162.136 102.558 165.37 101.3 165.37 100.133C165.37 98.9647 162.136 97.707 157.464 97.707Z" fill="#231F20"/>
<path d="M147.406 95.375V99.3727C147.406 100.9 151.09 102.113 155.671 102.113C160.253 102.113 163.936 100.9 163.936 99.3727V95.375H147.406Z" fill="#84AFBF"/>
<path d="M155.62 102.421C151.488 102.421 147.086 101.343 147.086 99.3668V95.3691C147.086 95.1894 147.221 95.0547 147.4 95.0547H163.885C164.065 95.0547 164.2 95.1894 164.2 95.3691V99.3668C164.2 101.343 159.798 102.421 155.62 102.421ZM147.715 95.6835V99.3668C147.715 100.535 150.949 101.792 155.62 101.792C160.292 101.792 163.526 100.535 163.526 99.3668V95.6835H147.715Z" fill="#231F20"/>
<path d="M155.624 98.1089C160.189 98.1089 163.889 96.8822 163.889 95.3689C163.889 93.8557 160.189 92.6289 155.624 92.6289C151.06 92.6289 147.359 93.8557 147.359 95.3689C147.359 96.8822 151.06 98.1089 155.624 98.1089Z" fill="#84AFBF"/>
<path d="M155.62 98.4253C151.488 98.4253 147.086 97.3472 147.086 95.3708C147.086 93.3944 151.488 92.3164 155.62 92.3164C159.753 92.3164 164.2 93.3944 164.2 95.3708C164.2 97.3472 159.798 98.4253 155.62 98.4253ZM155.62 92.9902C150.949 92.9902 147.715 94.2479 147.715 95.4158C147.715 96.5836 150.949 97.8413 155.62 97.8413C160.292 97.8413 163.526 96.5836 163.526 95.4158C163.526 94.2479 160.292 92.9902 155.62 92.9902Z" fill="#231F20"/>
<path d="M138.328 126.139L138.508 129.103C138.553 131.08 142.326 132.652 146.997 132.562C151.669 132.472 155.397 130.765 155.352 128.789L155.172 125.824L138.328 126.139Z" fill="#84AFBF"/>
<path d="M146.642 132.878C144.71 132.923 142.734 132.564 140.937 131.89C139.185 131.171 138.242 130.183 138.242 129.105L138.062 126.141C138.062 126.051 138.107 125.961 138.152 125.916C138.197 125.871 138.287 125.826 138.377 125.826L155.221 125.512C155.401 125.512 155.536 125.602 155.536 125.781C155.536 125.781 155.536 125.781 155.536 125.826L155.715 128.791C155.715 129.914 154.817 130.947 153.11 131.71C151.179 132.519 149.112 132.923 147.046 132.923L146.642 132.878ZM138.646 126.455L138.826 129.105C138.826 129.959 139.68 130.722 141.162 131.351C144.98 132.654 149.112 132.564 152.841 131.126C154.278 130.498 155.087 129.644 155.087 128.836L154.907 126.185L138.646 126.455Z" fill="#231F20"/>
<path d="M146.788 129.551C151.451 129.464 155.201 127.785 155.164 125.801C155.127 123.817 151.317 122.279 146.654 122.366C141.991 122.453 138.241 124.132 138.278 126.116C138.315 128.1 142.125 129.638 146.788 129.551Z" fill="#84AFBF"/>
<path d="M146.462 129.911C144.531 129.956 142.554 129.597 140.758 128.923C139.006 128.204 138.062 127.216 138.062 126.138C138.062 125.06 138.961 124.027 140.668 123.263C142.599 122.455 144.665 122.05 146.732 122.05C151.628 121.961 155.491 123.622 155.536 125.823C155.581 128.024 151.763 129.821 146.866 129.911H146.462ZM147.046 122.679H146.687C144.71 122.679 142.734 123.083 140.847 123.802C139.41 124.431 138.602 125.284 138.602 126.093C138.602 126.902 139.455 127.71 140.937 128.339C142.824 129.013 144.8 129.327 146.777 129.237C151.179 129.147 154.862 127.575 154.817 125.779C154.817 124.072 151.224 122.679 147.046 122.679Z" fill="#231F20"/>
<path d="M126.062 105.521L126.242 108.486C126.287 110.462 130.06 112.035 134.732 111.945C139.403 111.855 143.131 110.193 143.087 108.172L142.907 105.207L126.062 105.521Z" fill="#84AFBF"/>
<path d="M134.374 112.257C129.658 112.257 125.975 110.64 125.93 108.484L125.75 105.519C125.75 105.43 125.795 105.34 125.84 105.295C125.885 105.25 125.975 105.205 126.064 105.205L142.909 104.891C143.088 104.891 143.223 105.025 143.223 105.16L143.403 108.125C143.403 109.248 142.504 110.281 140.798 111.044C138.866 111.853 136.8 112.257 134.734 112.257H134.374ZM126.424 105.834L126.603 108.484C126.648 110.281 130.377 111.718 134.779 111.628C136.755 111.628 138.731 111.224 140.618 110.505C142.055 109.877 142.864 109.023 142.864 108.215L142.684 105.564L126.424 105.834Z" fill="#231F20"/>
<path d="M134.577 108.981C139.24 108.894 142.99 107.215 142.953 105.23C142.916 103.246 139.106 101.708 134.443 101.795C129.78 101.883 126.03 103.562 126.067 105.546C126.104 107.53 129.914 109.068 134.577 108.981Z" fill="#84AFBF"/>
<path d="M134.195 109.296C129.478 109.296 125.795 107.679 125.75 105.523C125.75 104.445 126.648 103.411 128.355 102.648C132.263 101.121 136.575 101.031 140.528 102.423C142.28 103.142 143.223 104.13 143.223 105.208C143.223 106.286 142.325 107.319 140.618 108.083C138.686 108.891 136.62 109.296 134.554 109.296H134.195ZM134.823 102.064H134.464C132.488 102.064 130.511 102.468 128.625 103.187C127.187 103.816 126.379 104.669 126.379 105.478C126.424 107.274 130.152 108.712 134.554 108.622C136.575 108.622 138.552 108.263 140.393 107.499C141.831 106.87 142.639 106.017 142.639 105.208C142.639 104.4 141.786 103.591 140.304 103.007C138.552 102.333 136.71 102.019 134.823 102.064Z" fill="#231F20"/>
<path d="M47.2783 112.757C47.2783 112.757 48.3114 86.0752 49.0301 84.1437C49.7488 82.2122 52.3091 80.0561 51.3658 78.0348C50.4225 76.0135 47.0986 71.4318 46.4697 69.9046C45.8409 68.3774 45.0323 63.7508 41.9779 62.4931C38.9235 61.2354 40.0464 64.4695 40.6753 66.5357C41.3041 68.602 41.7982 79.562 41.4838 85.2666C41.1694 90.9713 34.4766 116.844 34.4766 116.844" fill="white"/>
<path d="M34.4352 117.154C34.3903 117.154 34.3903 117.154 34.3454 117.154C34.1657 117.109 34.0759 116.929 34.1208 116.749C34.2107 116.48 40.8136 90.8316 41.1281 85.2168C41.4425 79.3775 40.9035 68.4624 40.3195 66.5758L40.2297 66.2614C39.7356 64.6443 39.1966 62.8476 40.0051 62.1289C40.4094 61.7695 41.0831 61.7695 42.0713 62.1289C44.6766 63.2069 45.7546 66.5758 46.3386 68.5971C46.4733 69.0463 46.6081 69.4506 46.6979 69.7201C47.3717 71.0227 48.0904 72.2804 48.9438 73.4932C49.8871 74.8857 50.7855 76.368 51.594 77.8952C52.2678 79.4224 51.2796 80.9047 50.3363 82.2972C49.8871 82.8811 49.5278 83.5549 49.2583 84.2286C48.7192 85.7109 47.9107 103.543 47.5514 112.752C47.5514 112.931 47.4166 113.066 47.2369 113.066C47.0573 113.066 46.9225 112.931 46.9225 112.752C46.9674 111.674 47.9556 85.9805 48.6743 84.049C48.9888 83.3303 49.393 82.6565 49.8422 81.9827C50.6956 80.6801 51.594 79.3775 51.0101 78.1647C50.2465 76.6824 49.393 75.245 48.4048 73.8525C47.5514 72.6397 46.7878 71.3371 46.114 69.9896C45.9792 69.6751 45.8894 69.3158 45.7097 68.8217C45.1258 66.9351 44.1376 63.701 41.8018 62.7577C41.1281 62.4882 40.634 62.4433 40.4094 62.623C39.9153 63.0722 40.4543 65.0036 40.8136 66.1266L40.9035 66.441C41.5323 68.5971 42.0264 79.6919 41.712 85.3067C41.3976 90.9215 34.9293 115.896 34.6598 116.929C34.7048 117.064 34.57 117.154 34.4352 117.154Z" fill="#231F20"/>
<path d="M49.6163 99.3273C49.796 98.923 49.9757 98.5187 50.1104 98.1145C52.8504 91.6462 55.4108 88.3223 57.5219 85.9865C59.6331 83.6508 63.4062 80.5964 63.8554 78.6649C64.3046 76.7334 62.957 73.8586 63.0918 72.4662C63.2265 71.0737 63.4511 61.2815 61.6993 60.7874C58.1957 59.7992 56.9829 72.9153 55.5904 75.2062C54.198 77.497 49.6163 86.2561 45.2143 91.6013C43.732 93.3531 41.3514 96.1381 38.8359 99.2823L49.6163 99.3273Z" fill="white"/>
<path d="M49.6126 99.5933H38.8771C38.7424 99.5933 38.6525 99.5035 38.6076 99.4137C38.5627 99.3238 38.5627 99.1891 38.6525 99.0992C40.5391 96.7186 42.3358 94.5625 43.8181 92.8556L45.0309 91.3733C48.5795 87.151 52.2628 80.5929 54.2392 77.0444C54.7333 76.146 55.1375 75.4722 55.407 75.0231C55.8113 74.3044 56.2605 72.3729 56.7546 70.3516C57.6979 66.3089 58.731 61.7273 60.5726 60.6492C60.9769 60.4246 61.4261 60.3348 61.8753 60.4696C64.1212 61.0984 63.4923 72.3729 63.4923 72.5076C63.4923 73.2713 63.6271 74.0349 63.8517 74.7536C64.1661 76.0562 64.5254 77.5385 64.2559 78.7064C63.8966 80.1887 61.8753 82.1651 59.8539 84.1415C59.1353 84.8602 58.4166 85.5339 57.8326 86.2077C55.9011 88.3189 53.2959 91.553 50.466 98.2458L49.9719 99.4586C49.8821 99.5484 49.7473 99.5933 49.6126 99.5933ZM39.506 99.0094H49.388L49.8372 97.9763C52.712 91.1936 55.3172 87.9146 57.2936 85.7585C57.8775 85.1297 58.5962 84.411 59.3599 83.6923C61.2015 81.8956 63.2677 79.8742 63.5822 78.5716C63.8517 77.5385 63.4923 76.146 63.1779 74.8883C62.9084 74.0798 62.8186 73.2713 62.8186 72.4178C63.0431 70.3067 62.9533 61.4128 61.6507 61.0535C61.3812 60.9637 61.0667 61.0086 60.7972 61.1883C59.1802 62.1315 58.0572 66.9827 57.2936 70.4863C56.7995 72.6873 56.3503 74.5739 55.9011 75.3375C55.6316 75.7867 55.2274 76.5054 54.7333 77.3588C52.7569 80.9074 49.0287 87.4654 45.4801 91.7776L44.2673 93.2599C42.9198 94.832 41.3027 96.8084 39.506 99.0094Z" fill="#231F20"/>
<path d="M81.3699 102.827C81.3699 102.827 76.3391 100.402 66.502 103.501C56.6649 106.601 46.5583 110.598 46.5583 110.598L52.5324 94.5625H42.4258C42.4258 94.5625 24.2789 108.487 27.9622 117.561C31.6455 126.634 81.3699 125.017 81.3699 125.017V102.827Z" fill="#231F20"/>
<path d="M72.4782 125.423C57.9247 125.423 30.4797 124.48 27.6948 117.652C26.1226 113.789 28.099 108.624 33.579 102.425C36.2292 99.4605 39.1489 96.7654 42.2483 94.2949C42.2932 94.25 42.383 94.25 42.4279 94.25H52.5345C52.6244 94.25 52.7142 94.2949 52.804 94.3848C52.849 94.4746 52.8939 94.5644 52.849 94.6543L47.0994 110.016C49.525 109.073 58.1044 105.749 66.4143 103.144C76.2514 100.044 81.2822 102.38 81.5068 102.47C81.5966 102.515 81.6865 102.65 81.6865 102.74V124.929C81.6865 125.109 81.5517 125.244 81.372 125.244C80.8779 125.333 77.4192 125.423 72.4782 125.423ZM42.5627 94.8789C41.2601 95.912 24.8649 108.983 28.2787 117.428C29.761 121.021 39.3735 123.402 56.0831 124.345C67.7169 125.019 79.0812 124.749 81.0576 124.66V102.964C80.0694 102.605 75.1733 101.033 66.6389 103.728C56.9365 106.782 46.8299 110.78 46.6952 110.825C46.5155 110.87 46.3358 110.825 46.2909 110.645C46.246 110.555 46.246 110.465 46.2909 110.421L52.1303 94.789L42.5627 94.8789Z" fill="#231F20"/>
<path d="M112.773 93.0781C112.773 93.0781 96.737 108.44 93.5029 109.069C90.718 109.608 88.517 104.308 81.375 102.825V125.015C88.1577 124.97 101.274 124.701 108.551 123.802C118.702 122.589 127.237 121.152 130.156 109.024C133.076 96.8962 120.409 93.168 112.773 93.0781Z" fill="#84AFBF"/>
<path d="M81.3691 125.333C81.2793 125.333 81.1894 125.288 81.1445 125.243C81.0996 125.199 81.0547 125.109 81.0547 125.019V102.829C81.0547 102.739 81.0996 102.65 81.1894 102.605C81.2793 102.56 81.3691 102.515 81.459 102.56C85.5016 103.413 88.017 105.435 89.8587 106.962C91.341 108.13 92.3741 109.028 93.497 108.803C95.9675 108.309 107.062 98.2027 112.587 92.9023C112.632 92.8574 112.722 92.8125 112.812 92.8125C117.933 92.9023 125.209 94.6092 128.758 99.1909C130.869 101.886 131.453 105.255 130.51 109.208C127.455 121.964 117.888 123.087 108.634 124.21C101.358 124.974 88.4213 125.243 81.3691 125.333ZM81.6835 103.189V124.66C88.7806 124.57 101.403 124.345 108.545 123.492C119.639 122.144 127.141 120.437 129.881 108.983C130.779 105.255 130.24 102.066 128.264 99.5053C124.85 95.1482 117.933 93.4863 112.902 93.3964C111.464 94.7889 96.7311 108.758 93.5869 109.387C92.1944 109.657 90.9816 108.669 89.4544 107.411C87.6128 105.884 85.3219 104.042 81.6835 103.189Z" fill="#231F20"/>
<path d="M134.648 75.5637C134.289 73.183 133.885 70.982 131.998 69.0955C130.156 67.3886 127.776 66.3106 125.26 66.086C121.308 65.6817 117.31 66.9394 114.345 69.5896C111.605 72.0601 109.719 75.8332 109.719 79.5614C109.764 83.5592 108.865 87.6467 108.775 91.7343C108.73 93.8903 108.551 96.6753 110.482 98.1576C111.021 98.5618 110.392 97.6185 111.066 97.6635C113.402 97.8431 115.917 98.1127 118.253 97.8431C120.454 97.5736 122.43 96.5854 124.542 96.271C125.979 96.0464 127.237 96.4507 128.584 96.81C128.854 96.8999 129.123 96.9448 129.393 97.0346C131.459 97.5287 133.705 97.5287 135.592 96.6304C137.478 95.732 138.96 93.7556 138.96 91.6444C138.915 89.8926 137.927 88.3205 137.164 86.7483C135.681 83.649 135.412 80.1454 134.873 76.7765C134.783 76.3273 134.693 75.968 134.648 75.5637Z" fill="white"/>
<path d="M110.661 98.5599C110.526 98.5599 110.391 98.4701 110.257 98.3802C108.28 96.853 108.37 94.1579 108.415 91.9569V91.6874C108.46 89.8008 108.684 87.9143 108.909 86.0277C109.223 83.8716 109.358 81.7156 109.403 79.5146C109.358 75.8762 111.155 71.9683 114.119 69.3181C117.174 66.623 121.217 65.3204 125.304 65.7247C127.909 65.9493 130.335 67.0722 132.222 68.824C134.243 70.8004 134.602 73.1811 134.962 75.4719L135.006 75.6516C135.051 75.966 135.096 76.3254 135.186 76.6398C135.321 77.3136 135.411 78.0323 135.501 78.706C135.905 81.3562 136.309 84.0962 137.477 86.5218C137.612 86.8362 137.746 87.1058 137.926 87.3753C138.6 88.6779 139.274 90.0254 139.319 91.5527C139.364 93.6638 137.926 95.775 135.77 96.8081C133.479 97.8861 131.009 97.6615 129.347 97.2573C129.077 97.2124 128.808 97.1225 128.538 97.0327L128.359 96.9878C127.101 96.6284 125.933 96.314 124.63 96.5386C123.642 96.7183 122.654 96.9428 121.711 97.3022C120.588 97.6615 119.465 97.976 118.297 98.1107C116.276 98.2904 114.209 98.2455 112.188 98.0209L111.065 97.931V98.0209C111.11 98.2006 111.02 98.3802 110.84 98.4701C110.796 98.5599 110.751 98.5599 110.661 98.5599ZM123.777 66.3086C120.363 66.3086 117.084 67.5663 114.524 69.8572C111.694 72.3726 109.987 76.1008 110.032 79.5595C109.987 81.7605 109.852 83.9615 109.538 86.1176C109.313 87.9592 109.089 89.8458 109.044 91.6874V91.9569C108.999 93.9333 108.909 96.3589 110.436 97.7065C110.481 97.6166 110.526 97.5717 110.571 97.4819C110.706 97.3471 110.885 97.3022 111.065 97.3022L112.188 97.392C114.164 97.6166 116.186 97.6166 118.207 97.4819C119.33 97.3022 120.408 97.0327 121.486 96.6733C122.474 96.3589 123.462 96.0894 124.496 95.9097C125.933 95.6851 127.236 96.0445 128.493 96.4038L128.673 96.4487L129.482 96.6733C131.054 97.0776 133.344 97.3022 135.456 96.2691C137.387 95.3258 138.645 93.4392 138.645 91.5976C138.645 90.25 137.971 88.9474 137.342 87.6897C137.207 87.4202 137.028 87.1058 136.893 86.8362C135.68 84.3208 135.276 81.5359 134.872 78.8408C134.782 78.1221 134.647 77.4483 134.557 76.7746C134.512 76.4152 134.467 76.1008 134.378 75.7864L134.333 75.6067C133.973 73.4057 133.659 71.1598 131.772 69.3181C129.976 67.6562 127.64 66.623 125.214 66.3985C124.72 66.3535 124.271 66.3086 123.777 66.3086Z" fill="#231F20"/>
<path d="M132.397 77.537C132.397 77.537 134.149 83.4213 132.936 87.7334C132.307 90.2039 130.241 92.0905 127.726 92.4947L127.321 100.266C127.321 100.266 127.142 104.218 122.335 103.365C119.506 102.871 117.125 100.894 116.047 98.1994L116.227 83.9154C116.227 83.9154 121.886 81.0406 121.707 75.875C121.707 75.875 128.085 79.3786 132.397 77.537Z" fill="white"/>
<path d="M123.642 103.817C123.193 103.817 122.744 103.772 122.294 103.682C119.33 103.143 116.859 101.121 115.781 98.3365C115.781 98.2916 115.781 98.2467 115.781 98.2467L115.961 83.9627C115.961 83.8279 116.006 83.7381 116.141 83.6932C116.186 83.6483 121.621 80.8184 121.441 75.9673C121.441 75.8325 121.486 75.7427 121.576 75.6978C121.666 75.6528 121.8 75.6528 121.89 75.6978C121.935 75.7427 128.179 79.1115 132.311 77.3597C132.401 77.3148 132.491 77.3148 132.581 77.3597C132.67 77.4046 132.715 77.4496 132.76 77.5394C132.85 77.764 134.557 83.5584 133.299 87.9155C132.626 90.4309 130.649 92.3175 128.089 92.8565L127.685 100.358C127.595 101.391 127.101 102.379 126.292 103.053C125.529 103.547 124.585 103.861 123.642 103.817ZM116.365 98.1569C117.398 100.717 119.689 102.559 122.384 103.053C123.911 103.322 125.079 103.143 125.888 102.469C126.562 101.885 126.966 101.077 127.011 100.223L127.415 92.4522C127.415 92.3175 127.55 92.1827 127.685 92.1378C130.11 91.7785 132.042 89.9817 132.626 87.6011C133.659 83.9627 132.536 79.2014 132.176 77.8987C128.448 79.2463 123.552 77.0902 122.025 76.3266C121.89 80.8633 117.488 83.5135 116.545 84.0076L116.365 98.1569Z" fill="#231F20"/>
<path d="M118.966 83.063C118.966 83.063 116.855 77.538 113.98 80.817C111.105 84.0961 114.833 88.004 117.259 87.8243" fill="white"/>
<path d="M117.084 88.0932C115.647 88.0932 113.94 86.8804 113.087 85.2633C112.278 83.7361 112.503 81.8495 113.716 80.5918C114.479 79.6934 115.288 79.3341 116.141 79.4689C118.028 79.8282 119.196 82.7928 119.24 82.9276C119.285 83.1072 119.24 83.2869 119.061 83.3318C118.881 83.3767 118.701 83.3318 118.657 83.1522C118.657 83.1072 117.578 80.3672 116.006 80.0977C115.422 80.0079 114.794 80.2774 114.165 80.9961C113.132 82.0741 112.907 83.6912 113.626 84.9938C114.344 86.4761 115.961 87.5541 117.219 87.4643C117.399 87.4643 117.534 87.5991 117.534 87.7787C117.534 87.9135 117.444 88.0482 117.264 88.0932H117.084Z" fill="#231F20"/>
<path d="M127.185 88.4975C126.601 88.4975 126.017 88.4076 125.478 88.228C125.299 88.1831 125.209 88.0034 125.254 87.8237C125.299 87.644 125.478 87.5542 125.658 87.5991H125.703C126.107 87.7339 127.32 88.0034 127.949 87.7339C128.083 87.4194 127.14 85.5329 125.927 83.6912C125.838 83.5565 125.882 83.3319 126.017 83.2421C126.152 83.1522 126.332 83.1971 126.422 83.3319C126.961 84.1404 128.802 86.9253 128.488 87.9135C128.443 88.0932 128.308 88.228 128.173 88.3178C127.859 88.4526 127.5 88.4975 127.185 88.4975Z" fill="#231F20"/>
<path d="M127.724 92.4961C127.724 92.4961 123.547 92.8105 121.211 92.0469C121.211 92.0469 123.502 98.2905 127.455 98.4702L127.724 92.4961Z" fill="#231F20"/>
<path d="M127.461 98.7846C123.374 98.605 121.038 92.4062 120.948 92.1367C120.903 92.0469 120.948 91.9121 120.993 91.8223C121.083 91.7325 121.218 91.6875 121.308 91.7325C123.554 92.4512 127.686 92.1367 127.731 92.1367C127.821 92.1367 127.911 92.1817 127.956 92.2266C128 92.2715 128.045 92.3613 128.045 92.4512L127.731 98.4253C127.776 98.6499 127.641 98.7846 127.461 98.7846ZM121.757 92.541C122.386 93.9784 124.317 97.7515 127.147 98.1558L127.417 92.8554C126.428 92.9003 123.733 92.9902 121.757 92.541Z" fill="#231F20"/>
<path d="M122.611 83.2013C122.958 83.2004 123.239 82.717 123.237 82.1216C123.236 81.5262 122.953 81.0443 122.605 81.0452C122.258 81.0461 121.978 81.5295 121.979 82.1249C121.981 82.7203 122.264 83.2022 122.611 83.2013Z" fill="#231F20"/>
<path d="M128.408 82.9279C128.755 82.927 129.036 82.4436 129.034 81.8482C129.032 81.2528 128.75 80.7709 128.402 80.7718C128.055 80.7727 127.775 81.2561 127.776 81.8515C127.778 82.4469 128.061 82.9288 128.408 82.9279Z" fill="#231F20"/>
<path d="M108.905 88.9022C108.635 91.6872 108.321 94.9213 109.444 97.6164C110.971 101.21 115.418 100.446 118.337 99.0987C119.55 98.5147 120.898 97.796 121.212 96.4934C121.482 95.4154 120.988 94.2924 120.404 93.3042C119.101 91.1032 117.439 89.1717 115.508 87.5547" fill="white"/>
<path d="M113.715 100.536C112.997 100.536 112.278 100.446 111.604 100.177C110.481 99.7276 109.583 98.8742 109.134 97.7512C108.011 95.1011 108.28 92.0017 108.55 89.2617L108.595 88.9023C108.595 88.7227 108.774 88.5879 108.954 88.6328C109.134 88.6328 109.268 88.8125 109.223 88.9922L109.178 89.3515C108.954 92.0466 108.684 95.0561 109.718 97.5716C110.077 98.5598 110.885 99.3234 111.829 99.6827C113.446 100.312 115.781 99.9971 118.162 98.9191C119.42 98.3352 120.588 97.6614 120.857 96.5384C121.127 95.5502 120.588 94.4273 120.094 93.6187C118.791 91.4627 117.174 89.5761 115.242 87.9591C115.108 87.8692 115.108 87.6446 115.198 87.5099C115.287 87.3751 115.512 87.3751 115.647 87.465C117.623 89.1269 119.33 91.1033 120.633 93.3043C121.172 94.2476 121.801 95.5053 121.486 96.7181C121.127 98.1106 119.779 98.8742 118.432 99.503C116.949 100.087 115.332 100.491 113.715 100.536Z" fill="#231F20"/>
<path d="M123.236 86.3412C121.305 86.3412 119.688 84.7691 119.688 82.8376C119.688 80.9061 121.26 79.2891 123.191 79.2891C125.123 79.2891 126.74 80.8612 126.74 82.7927C126.74 84.5445 125.482 86.0268 123.73 86.2963C123.595 86.2963 123.416 86.3412 123.236 86.3412ZM123.236 79.9179C123.101 79.9179 122.922 79.9179 122.787 79.9628C121.215 80.1874 120.092 81.6697 120.361 83.2868C120.631 84.9038 122.068 85.9819 123.685 85.7124C125.302 85.4429 126.38 84.0055 126.111 82.3884C125.886 80.951 124.673 79.9179 123.236 79.9179Z" fill="#231F20"/>
<path d="M129.435 86.3441C127.459 86.3441 125.842 84.7719 125.797 82.7955C125.797 80.8191 127.369 79.2021 129.345 79.1572C131.322 79.1122 132.939 80.7293 132.984 82.7057C132.984 84.5024 131.726 85.9847 129.974 86.2992C129.795 86.2992 129.615 86.3441 129.435 86.3441ZM129.435 79.9208C129.3 79.9208 129.121 79.9208 128.986 79.9657C127.414 80.1903 126.291 81.6726 126.56 83.2896C126.83 84.9067 128.267 85.9847 129.884 85.7152C131.501 85.4457 132.58 84.0083 132.31 82.3913C132.085 80.9539 130.873 79.9208 129.435 79.9208Z" fill="#231F20"/>
<path d="M124.67 90.0252C123.816 90.0701 122.963 89.8006 122.289 89.2615C121.795 88.8124 121.48 88.1835 121.391 87.5097C121.391 87.3301 121.525 87.1953 121.705 87.1953C121.885 87.1953 122.019 87.2851 122.019 87.4648C122.064 88.0038 122.334 88.453 122.693 88.8124C123.367 89.3065 124.22 89.5311 125.074 89.3963C125.254 89.3963 125.388 89.5311 125.433 89.6658C125.478 89.8006 125.299 89.9802 125.164 90.0252C124.984 90.0252 124.804 90.0252 124.67 90.0252Z" fill="#231F20"/>
<path d="M120.047 82.4354C120.002 82.4354 120.002 82.4354 119.957 82.4354L118.16 81.8964C117.981 81.8515 117.891 81.6718 117.981 81.4921C118.025 81.3574 118.205 81.2675 118.34 81.3125L120.137 81.8515C120.316 81.8964 120.406 82.0761 120.361 82.2558C120.316 82.3456 120.182 82.4354 120.047 82.4354Z" fill="#231F20"/>
<path d="M133.385 83.332H132.486C132.307 83.332 132.172 83.1972 132.172 83.0176C132.172 82.8379 132.307 82.7031 132.486 82.7031H133.385C133.564 82.7031 133.699 82.8379 133.699 83.0176C133.699 83.1972 133.564 83.332 133.385 83.332Z" fill="#231F20"/>
<path d="M109.086 107.543C109.086 107.543 113.623 135.077 118.743 135.751C128.176 136.964 146.772 125.016 146.772 125.016C146.772 125.016 156.25 124.162 156.295 123.354C156.34 122.545 153.106 122.411 153.106 122.411C153.106 122.411 158.81 122.141 158.586 121.198C158.361 120.254 154.184 120.524 154.184 120.524C154.184 120.524 159.844 120.075 159.394 118.997C158.945 117.919 154.184 118.503 154.184 118.503C154.184 118.503 159.08 117.559 158.496 116.481C157.912 115.403 148.794 118.143 148.794 118.143C148.794 118.143 152.207 116.167 151.129 114.954C150.051 113.741 145.47 118.907 145.47 118.907L124.044 126.723L121.214 107.767C121.214 107.767 120.046 102.871 114.746 102.871C109.445 102.871 109.086 107.588 109.086 107.543Z" fill="white"/>
<path d="M120.183 136.155C119.689 136.155 119.194 136.111 118.7 136.066C116.454 135.796 114.074 130.855 111.693 121.467C109.941 114.55 108.773 107.632 108.773 107.587C108.773 107.543 108.773 107.543 108.773 107.498C108.773 107.453 109.268 102.422 114.792 102.422C120.317 102.422 121.53 107.498 121.53 107.543L124.27 126.139L145.292 118.503C145.876 117.874 149.11 114.37 150.682 114.37C150.952 114.37 151.176 114.46 151.356 114.685C151.58 114.954 151.67 115.268 151.625 115.628C151.536 116.212 150.997 116.796 150.458 117.29C153.916 116.347 158.318 115.358 158.812 116.302C158.902 116.481 158.902 116.751 158.812 116.93C158.588 117.335 157.914 117.739 157.105 118.008C158.318 118.053 159.441 118.233 159.711 118.862C159.801 119.042 159.756 119.266 159.666 119.446C159.441 119.85 158.678 120.12 157.734 120.344C158.363 120.479 158.812 120.749 158.902 121.153C158.947 121.332 158.902 121.512 158.767 121.647C158.408 122.096 157.061 122.41 155.713 122.545C155.982 122.635 156.207 122.77 156.432 122.95C156.566 123.084 156.611 123.264 156.611 123.444C156.611 123.713 156.566 124.522 146.864 125.42C145.517 126.184 129.66 136.2 120.183 136.155ZM109.402 107.543C110.66 115.179 114.792 134.943 118.79 135.437C127.998 136.65 146.415 124.836 146.639 124.746C146.684 124.701 146.729 124.701 146.774 124.701C150.817 124.342 155.264 123.713 155.982 123.264C155.758 122.994 154.455 122.725 153.108 122.68C152.928 122.68 152.793 122.545 152.793 122.366C152.793 122.186 152.928 122.051 153.108 122.051C155.713 121.916 158.094 121.512 158.318 121.153C158.228 120.838 156.252 120.659 154.276 120.793C154.096 120.793 153.961 120.659 153.916 120.524C153.916 120.344 154.051 120.209 154.186 120.165C156.656 119.985 158.992 119.446 159.127 119.087C158.902 118.592 156.432 118.503 154.276 118.772C154.096 118.817 153.961 118.682 153.916 118.503C153.871 118.323 154.006 118.188 154.186 118.143C155.758 117.829 158.049 117.155 158.273 116.616C157.779 116.122 153.018 117.155 148.93 118.368C148.796 118.413 148.616 118.323 148.571 118.188C148.526 118.053 148.571 117.874 148.706 117.784C149.335 117.425 150.952 116.302 151.086 115.493C151.131 115.358 151.086 115.179 150.952 115.089C150.907 115.044 150.817 114.999 150.727 114.999C149.694 114.999 147.134 117.469 145.741 118.997C145.696 119.042 145.651 119.087 145.606 119.087L124.18 126.902C124.001 126.947 123.821 126.857 123.776 126.723V126.678L120.946 107.722C120.901 107.543 119.778 103.096 114.792 103.096C109.807 103.096 109.447 107.093 109.402 107.543Z" fill="#231F20"/>
<path d="M40.6738 113.067C40.4941 113.067 40.3594 112.932 40.3594 112.752C40.3594 112.618 40.4492 112.528 40.539 112.438L44.0876 111.001C44.2673 110.956 44.4469 111.001 44.4918 111.18C44.5368 111.36 44.4919 111.54 44.3122 111.585L40.7636 113.022C40.7636 113.067 40.7187 113.067 40.6738 113.067Z" fill="#231F20"/>
<path d="M99.8343 112.442C97.5435 112.442 91.9736 109.433 91.749 109.298C91.6143 109.208 91.5245 109.028 91.6143 108.894C91.7041 108.759 91.8838 108.669 92.0186 108.759C92.0186 108.759 92.0186 108.759 92.0635 108.759C92.1084 108.804 97.7232 111.813 99.8792 111.813C100.059 111.813 100.194 111.948 100.194 112.128C100.194 112.307 100.059 112.442 99.8343 112.442C99.8792 112.442 99.8792 112.442 99.8343 112.442Z" fill="#231F20"/>
</svg>
