<svg width="192" height="192" viewBox="0 0 192 192" fill="none" xmlns="http://www.w3.org/2000/svg">
<circle cx="96.0022" cy="99.428" r="83.1429" fill="#D6EFF8"/>
<path d="M86.6664 86.0529C86.6664 86.0529 68.6952 79.0256 62.628 83.864C56.5608 88.7025 38.2824 140.888 41.6232 149.643C44.964 158.398 70.1544 153.982 70.1544 153.982C70.1544 153.982 140.849 158.168 148.03 155.48C158.743 151.448 135.012 88.5105 131.441 85.1313C127.87 81.7521 111.55 87.5505 111.55 87.5505" fill="#84AFBF"/>
<path d="M71.8459 139.543C71.8075 139.543 71.7307 139.543 71.6923 139.505C63.2827 133.745 52.4923 135.242 52.3771 135.242C52.2235 135.281 52.1083 135.165 52.0699 135.012C52.0315 134.858 52.1467 134.743 52.3003 134.705C52.4155 134.705 63.4363 133.169 71.9995 139.044C72.1147 139.121 72.1531 139.274 72.0763 139.428C71.9995 139.505 71.9227 139.543 71.8459 139.543Z" fill="#231F20"/>
<path d="M123.917 139.544C123.84 139.544 123.763 139.506 123.686 139.429C123.61 139.314 123.61 139.16 123.725 139.045C132.326 133.17 143.309 134.668 143.424 134.706C143.578 134.744 143.693 134.86 143.654 135.013C143.616 135.167 143.501 135.282 143.347 135.244C143.232 135.244 132.442 133.746 124.032 139.506C124.032 139.506 123.994 139.544 123.917 139.544Z" fill="#231F20"/>
<path d="M66.3938 131.787C66.2402 131.787 66.125 131.633 66.125 131.518L68.0066 99.5305C68.0066 99.3769 68.1602 99.2617 68.2754 99.2617C68.429 99.2617 68.5442 99.4153 68.5442 99.5305L66.6626 131.518C66.6626 131.671 66.5474 131.787 66.3938 131.787Z" fill="#231F20"/>
<path d="M123.917 131.786C123.764 131.786 123.648 131.671 123.648 131.517V100.874C123.648 100.721 123.764 100.605 123.917 100.605C124.071 100.605 124.186 100.721 124.186 100.874V131.517C124.186 131.671 124.071 131.786 123.917 131.786Z" fill="#231F20"/>
<path d="M80.4453 84.0547C80.4453 84.0547 86.5893 116.272 98.1861 131.517C98.1861 131.517 113.892 103.408 116.925 85.8979C116.925 85.8979 105.021 88.1635 100.605 88.2403C96.1893 88.3171 80.4453 84.0547 80.4453 84.0547Z" fill="#231F20"/>
<path d="M98.1503 131.785C98.0735 131.785 97.9967 131.747 97.9199 131.67C86.4767 116.54 80.2559 84.3996 80.1791 84.0924C80.1407 84.0156 80.1791 83.9004 80.2559 83.862C80.3327 83.7852 80.4095 83.7852 80.5247 83.7852C80.6783 83.8236 96.1151 87.9708 100.531 87.9708H100.608C104.947 87.9324 116.736 85.6668 116.89 85.6284C116.966 85.6284 117.082 85.6284 117.12 85.7052C117.197 85.782 117.197 85.8588 117.197 85.9356C114.163 103.292 98.5727 131.363 98.4191 131.632C98.3807 131.708 98.2655 131.785 98.1503 131.785ZM80.7935 84.3996C81.5615 88.2012 87.6287 116.809 98.1503 131.017C99.9551 127.676 113.626 102.448 116.582 86.2428C114.47 86.6268 104.602 88.47 100.608 88.5084H100.531C96.4223 88.5084 83.3663 85.0908 80.7935 84.3996Z" fill="#231F20"/>
<path d="M98.1481 131.784C98.0713 131.784 97.9561 131.746 97.9177 131.669L90.4681 118.997C90.4297 118.92 90.4297 118.843 90.4297 118.767L96.6505 100.335L94.2313 96.1107C94.1545 95.9955 94.1929 95.8803 94.2697 95.8035L98.3017 91.733C98.3401 91.6562 98.4169 91.6562 98.4937 91.6562C98.5705 91.6562 98.6473 91.6946 98.6857 91.733L102.794 95.8035C102.871 95.8803 102.91 96.0338 102.833 96.149L100.298 100.45L105.214 118.229C105.214 118.306 105.214 118.383 105.214 118.421L98.3785 131.669C98.3401 131.707 98.2633 131.784 98.1481 131.784ZM91.0057 118.805L98.1481 130.939L104.714 118.191L99.7993 100.411C99.7993 100.335 99.7993 100.258 99.8377 100.219L102.334 95.9955L98.5321 92.2323L94.8073 95.9955L97.1881 100.143C97.2265 100.219 97.2265 100.296 97.2265 100.373L91.0057 118.805Z" fill="#231F20"/>
<path d="M85.7463 82.8672L109.362 82.944L108.94 91.968H92.2743L84.1719 88.0896L85.7463 82.8672Z" fill="#231F20"/>
<path d="M108.937 92.2321H92.2718C92.2334 92.2321 92.195 92.2322 92.1566 92.1938L84.0542 88.3153C83.939 88.2385 83.8622 88.1233 83.9006 88.0081L85.475 82.7858C85.5134 82.6705 85.6286 82.5938 85.7438 82.5938L109.36 82.6705C109.513 82.6705 109.629 82.7857 109.629 82.9393L109.206 91.9633C109.206 92.1169 109.091 92.2321 108.937 92.2321ZM92.3102 91.6945H108.669L109.053 83.2081L85.9358 83.1313L84.4766 87.9313L92.3102 91.6945Z" fill="#231F20"/>
<path d="M115.508 59.9393C116.775 57.1361 117.121 53.4113 117.62 50.4161C117.851 49.0721 118.542 47.3057 118.35 45.9233C118.196 44.9633 117.582 44.1953 117.505 43.1201C117.467 42.1601 117.467 41.1233 116.929 40.3553C116.391 39.5873 115.086 39.2033 114.51 39.9713C115.278 37.5905 115.739 35.0945 115.854 32.5985C113.819 33.5201 111.553 33.9041 109.326 33.6737C110.209 32.9441 110.977 32.0609 111.591 31.0625C109.633 32.5217 106.907 32.0609 104.487 31.7537C98.9195 31.0625 93.0827 31.7537 88.2443 34.5569C86.6699 35.4401 85.1339 36.7841 84.9419 38.5889C83.7515 38.2817 82.4075 38.8577 81.5627 39.7793C80.7563 40.7393 80.2187 41.8913 79.9883 43.1201C78.3371 50.2241 81.0251 56.3297 81.7547 63.3569C87.0155 63.6641 92.2763 64.1249 97.5755 64.0481C101.799 63.9713 113.243 64.9313 115.508 59.9393Z" fill="white"/>
<path d="M101.914 64.3556C101.108 64.3556 100.34 64.3556 99.6484 64.3172C98.8804 64.3172 98.1508 64.3172 97.6132 64.3172C93.3124 64.394 88.9732 64.0868 84.7492 63.818L81.754 63.626C81.6388 63.626 81.5236 63.5108 81.5236 63.3956C81.2932 61.13 80.8708 58.9412 80.41 56.8292C79.4884 52.2596 78.6436 47.9588 79.7572 43.082C80.1028 41.546 80.6404 40.4324 81.4084 39.5876C82.2532 38.6276 83.482 38.1284 84.7492 38.282C85.018 36.8228 86.1316 35.5172 88.1284 34.3652C92.6212 31.754 98.458 30.7556 104.525 31.5236L105.063 31.6004C107.367 31.9076 109.709 32.2148 111.437 30.9092C111.552 30.8324 111.668 30.8324 111.783 30.9092C111.898 30.986 111.898 31.1396 111.821 31.2548C111.322 32.0996 110.708 32.8676 110.016 33.5204C111.975 33.6356 113.972 33.2516 115.738 32.4068C115.892 32.33 116.045 32.4068 116.084 32.5604C116.084 32.5988 116.122 32.6372 116.122 32.6756C116.007 34.9412 115.623 37.2068 114.97 39.3956C115.124 39.3572 115.316 39.3188 115.469 39.3188C116.122 39.3572 116.736 39.7028 117.12 40.2404C117.658 41.0084 117.696 41.9684 117.735 42.89V43.1588C117.773 43.658 117.927 44.1956 118.157 44.6564C118.349 45.0788 118.503 45.5012 118.58 45.962C118.733 46.922 118.426 48.0356 118.157 49.1492C118.042 49.6484 117.927 50.1092 117.85 50.5316C117.773 51.0692 117.658 51.6836 117.581 52.2596C117.197 54.8708 116.775 57.8276 115.738 60.1316C114.01 63.9332 107.136 64.3556 101.914 64.3556ZM98.074 63.7796C98.5348 63.7796 99.034 63.7796 99.61 63.7796C104.41 63.8564 113.357 63.9716 115.239 59.8244C116.237 57.5972 116.698 54.6788 117.044 52.106C117.12 51.4916 117.236 50.9156 117.312 50.378C117.389 49.9172 117.504 49.4564 117.62 48.9572C117.888 47.9204 118.157 46.8452 118.004 46.0004C117.927 45.6164 117.812 45.2324 117.62 44.8484C117.351 44.3108 117.197 43.7732 117.159 43.1972V42.9284C117.12 42.0836 117.082 41.2388 116.621 40.5476C116.352 40.1252 115.892 39.8948 115.392 39.8564C115.085 39.818 114.816 39.9332 114.624 40.1636C114.548 40.2788 114.356 40.3172 114.24 40.202C114.164 40.1252 114.125 40.01 114.164 39.8948C114.855 37.6676 115.316 35.3636 115.469 33.0212C113.511 33.8276 111.36 34.1732 109.21 33.9428C109.056 33.9428 108.941 33.7892 108.98 33.6356C108.98 33.5588 109.018 33.5204 109.095 33.4436C109.671 32.9828 110.17 32.4452 110.631 31.8308C108.903 32.5604 106.791 32.2916 104.871 32.0228L104.333 31.946C98.3812 31.178 92.6596 32.1764 88.282 34.7108C86.3236 35.8628 85.2484 37.13 85.1332 38.5124C85.1332 38.666 84.9796 38.7812 84.826 38.7428H84.7876C83.6356 38.5124 82.4452 38.9348 81.6772 39.818C80.986 40.586 80.4868 41.6228 80.1796 43.0436C79.1044 47.7668 79.9492 52.0292 80.8324 56.5604C81.2548 58.634 81.6772 60.746 81.9076 62.9732L84.6724 63.1652C88.858 63.434 93.1972 63.7412 97.498 63.6644L98.074 63.7796Z" fill="#231F20"/>
<path d="M86.6641 89.3554C86.6641 89.3554 91.0417 91.5826 98.5297 91.8514C106.018 92.1202 107.285 90.085 107.285 90.085L107.093 86.053L106.67 76.7218L106.286 68.005L89.1601 67.3906L88.3537 74.4946L88.0849 76.7986L86.6641 89.3554Z" fill="white"/>
<path d="M99.8 92.1579C99.416 92.1579 98.9552 92.1579 98.5328 92.1195C91.0448 91.8507 86.5904 89.6235 86.552 89.5851C86.4368 89.5467 86.3984 89.4315 86.3984 89.3163L88.8944 67.3515C88.8944 67.1979 89.048 67.1211 89.1632 67.1211L106.29 67.6971C106.443 67.6971 106.558 67.8123 106.558 67.9659L107.557 90.0459C107.557 90.0843 107.557 90.1611 107.518 90.1995C107.442 90.3147 106.251 92.1579 99.8 92.1579ZM86.936 89.2011C87.7808 89.5851 91.9664 91.3515 98.5328 91.5819C104.984 91.8123 106.712 90.3147 107.019 89.9691L106.059 68.2347L89.432 67.6587L86.936 89.2011Z" fill="#231F20"/>
<path d="M88.0859 76.8359C89.3147 78.9479 91.3883 80.6759 93.5387 81.9815C97.1483 84.1319 102.601 86.6279 107.094 86.1287L106.672 76.7975C103.369 77.1047 100.067 76.9895 96.8027 76.5287C93.9227 76.1831 90.9659 75.7991 88.3547 74.5703L88.0859 76.8359Z" fill="#231F20"/>
<path d="M105.831 86.3982C101.223 86.3982 96.1538 83.787 93.4274 82.1742C90.8546 80.5998 88.973 78.8718 87.8978 76.9518C87.8594 76.9134 87.8594 76.8366 87.8594 76.7982L88.1282 74.4942C88.1282 74.4174 88.205 74.3406 88.2818 74.3022C88.3586 74.2638 88.4354 74.2638 88.5122 74.3022C91.1618 75.531 94.1954 75.915 96.8834 76.2222C100.8 76.7214 103.834 76.7982 106.714 76.491C106.867 76.491 106.983 76.6062 107.021 76.7598L107.443 86.091C107.443 86.2446 107.328 86.3598 107.213 86.3598C106.675 86.3982 106.253 86.3982 105.831 86.3982ZM88.3586 76.7598C89.4338 78.5646 91.2002 80.2158 93.6962 81.7134C96.5762 83.4414 102.106 86.283 106.829 85.8222L106.445 77.0286C103.603 77.2974 100.608 77.2206 96.8066 76.7214C94.1954 76.4142 91.2386 76.0302 88.589 74.9166L88.3586 76.7598Z" fill="#231F20"/>
<path d="M111.316 48.4202C112.16 48.497 111.93 50.8778 111.93 52.145V58.481C111.93 60.977 112.007 63.473 111.93 65.969C111.892 66.8522 111.776 67.7354 111.584 68.6186C110.125 74.6858 104.596 78.8714 98.3747 78.641L96.8387 78.6026C91.0019 78.4106 86.0099 74.3786 84.5507 68.7338C84.2435 67.505 84.1283 66.2762 84.1667 65.009C84.2051 63.5498 84.1667 62.0906 84.1667 60.6314C84.1667 58.7882 83.2067 54.2954 85.3571 53.4506C86.0483 53.1818 86.8163 53.2202 87.5459 53.105C89.6963 52.8362 91.6547 51.7226 92.9603 49.9946L92.6147 52.0298C96.3779 52.3754 100.141 51.8378 103.674 50.5322C105.402 49.8794 107.168 48.881 107.898 47.1914L107.821 50.9546C108.704 50.8394 109.319 50.033 109.933 49.3418C110.548 48.6506 111.008 48.3818 111.316 48.4202Z" fill="white"/>
<path d="M98.8357 78.9073H98.3749L96.8389 78.8689C90.8869 78.6385 85.8181 74.5681 84.3205 68.8081C84.0133 67.5793 83.8597 66.3121 83.8981 65.0065C83.9365 64.0465 83.8981 63.0481 83.8981 62.0881C83.8981 61.5889 83.8981 61.1281 83.8981 60.6289C83.8981 60.2449 83.8597 59.7841 83.8213 59.2081C83.6293 56.9809 83.3605 53.9089 85.2805 53.1793C85.8181 52.9873 86.3941 52.9105 86.9701 52.8721C87.1621 52.8721 87.3541 52.8337 87.5461 52.8337C89.6197 52.6033 91.5013 51.5281 92.7685 49.8385C92.8453 49.7233 92.9605 49.7233 93.0757 49.7617C93.1909 49.8001 93.2677 49.9153 93.2293 50.0689L92.9221 51.7969C96.5317 52.0657 100.141 51.5281 103.52 50.2609C105.748 49.4161 107.015 48.4177 107.552 47.0737C107.591 46.9201 107.783 46.8817 107.898 46.9201C108.013 46.9585 108.052 47.0737 108.052 47.1889L108.013 50.5681C108.589 50.3377 109.05 49.8385 109.511 49.3009L109.664 49.1089C110.356 48.3409 110.855 47.9953 111.277 48.0721C112.237 48.1873 112.199 49.8769 112.16 51.3745C112.16 51.6049 112.16 51.8353 112.16 52.0657V58.4017C112.16 59.2465 112.16 60.0529 112.199 60.8977C112.199 62.5489 112.237 64.2385 112.199 65.8897C112.007 73.1857 106.055 78.9073 98.8357 78.9073ZM92.5765 50.9521C91.2709 52.2961 89.5045 53.1793 87.6229 53.4097C87.4309 53.4481 87.2389 53.4481 87.0085 53.4481C86.4709 53.4481 85.9717 53.5633 85.4725 53.7169C83.9365 54.2929 84.1669 57.1345 84.3589 59.1697C84.3973 59.7457 84.4357 60.2449 84.4357 60.6289C84.4357 61.0897 84.4357 61.5889 84.4357 62.0881C84.4357 63.0481 84.4741 64.0465 84.4357 65.0065C84.1669 72.0721 89.6965 78.0625 96.7621 78.3313C96.8005 78.3313 96.8005 78.3313 96.8389 78.3313L98.3749 78.3697C104.48 78.5617 109.895 74.4529 111.354 68.5393C111.546 67.6945 111.661 66.8113 111.7 65.9665C111.738 64.3153 111.738 62.6257 111.7 60.9745C111.7 60.1297 111.7 59.3233 111.661 58.4785V52.1041C111.661 51.9121 111.661 51.6817 111.661 51.4129C111.661 50.5297 111.738 48.6865 111.277 48.6481C111.162 48.6481 110.855 48.6865 110.125 49.5313L109.972 49.6849C109.396 50.3377 108.781 51.0673 107.86 51.1825C107.706 51.1825 107.591 51.1057 107.552 50.9521V50.9137L107.591 48.2257C106.823 49.2625 105.594 50.0689 103.751 50.7601C100.218 52.1041 96.3781 52.6417 92.6149 52.2961C92.5381 52.2961 92.4613 52.2577 92.4229 52.1809C92.3845 52.1041 92.3461 52.0657 92.3845 51.9889L92.5765 50.9521Z" fill="#231F20"/>
<path d="M98.2272 56.8281C98.2272 56.8281 102.528 66.3513 100.608 66.5433C98.688 66.7353 96 65.2761 96 65.2761" fill="white"/>
<path d="M100.257 66.8124C98.3374 66.8124 95.9566 65.5836 95.8414 65.5068C95.7262 65.43 95.6494 65.2764 95.7262 65.1612C95.803 65.046 95.9566 64.9692 96.0718 65.046C96.1102 65.046 98.7214 66.4284 100.526 66.2748C100.603 66.2748 100.641 66.2364 100.68 66.198C101.256 65.1996 99.2974 60.0156 97.915 56.982C97.8382 56.8284 97.915 56.6748 98.0686 56.6364C98.2222 56.5596 98.3758 56.6364 98.4142 56.7516C98.7982 57.5964 102.062 64.8924 101.179 66.4668C101.064 66.6588 100.833 66.8124 100.603 66.8124C100.526 66.8124 100.411 66.8124 100.257 66.8124Z" fill="#231F20"/>
<path d="M93.195 61.4365C93.704 61.4365 94.1166 60.6628 94.1166 59.7085C94.1166 58.7541 93.704 57.9805 93.195 57.9805C92.686 57.9805 92.2734 58.7541 92.2734 59.7085C92.2734 60.6628 92.686 61.4365 93.195 61.4365Z" fill="#231F20"/>
<path d="M104.601 61.4365C105.11 61.4365 105.523 60.6628 105.523 59.7085C105.523 58.7541 105.11 57.9805 104.601 57.9805C104.092 57.9805 103.68 58.7541 103.68 59.7085C103.68 60.6628 104.092 61.4365 104.601 61.4365Z" fill="#231F20"/>
<path d="M109.358 82.9414C109.012 82.9414 98.4141 91.8502 98.4141 91.8502L104.98 99.4918L111.969 86.1286L109.358 82.9414Z" fill="white"/>
<path d="M104.984 99.7989C104.907 99.7989 104.83 99.7605 104.792 99.7221L98.2252 92.0805C98.1868 92.0421 98.1484 91.9653 98.1484 91.8885C98.1484 91.8117 98.1868 91.7349 98.2252 91.6965C108.9 82.7109 109.208 82.7109 109.323 82.7109C109.4 82.7109 109.476 82.7493 109.515 82.7877L112.164 86.0133C112.241 86.0901 112.241 86.2053 112.203 86.3205L105.214 99.6453C105.176 99.7221 105.099 99.7605 104.984 99.7989ZM98.8012 91.8885L104.945 99.0309L111.665 86.1669L109.284 83.2869C108.248 84.0165 102.641 88.6629 98.8012 91.8885Z" fill="#231F20"/>
<path d="M85.748 82.8672C86.0936 82.8672 98.5352 91.8528 98.5352 91.8528L90.932 99.4944L83.3672 84.9024L85.748 82.8672Z" fill="white"/>
<path d="M90.9275 99.7969H90.8891C90.8123 99.7969 90.7355 99.7201 90.6971 99.6433L83.1323 85.0513C83.0939 84.9361 83.0939 84.821 83.2091 84.7057L85.5899 82.6705C85.6283 82.6321 85.7051 82.5938 85.7819 82.5938C85.8971 82.5938 86.2043 82.5937 98.7227 91.6561C98.7995 91.6945 98.8379 91.7713 98.8379 91.8481C98.8379 91.9249 98.7995 92.0017 98.7611 92.0785L91.1579 99.7202C91.0811 99.7586 91.0043 99.7969 90.9275 99.7969ZM83.7083 84.9745L91.0043 99.0673L98.1083 91.8865C93.5003 88.5841 86.8571 83.7842 85.7819 83.1697L83.7083 84.9745Z" fill="#231F20"/>
<path d="M98.4173 74.8C98.3021 74.8 98.1485 74.8 98.0333 74.8C92.9261 74.4544 91.8509 68.6176 91.8125 68.5408C91.8125 68.464 91.8125 68.3872 91.8509 68.3104C91.8893 68.2336 91.9661 68.1952 92.0429 68.1952L105.713 67.7344C105.79 67.7344 105.905 67.7728 105.944 67.8496C105.982 67.9264 106.02 68.0032 105.982 68.1184C105.867 68.3872 103.256 74.8 98.4173 74.8ZM92.3885 68.7328C92.6957 69.8848 94.0013 73.9552 98.0333 74.2624C102.065 74.5696 104.638 69.7312 105.291 68.3104L92.3885 68.7328Z" fill="#231F20"/>
<path d="M80.2131 50.2266H84.1683V67.4298H80.2131C78.2931 67.4298 76.7188 65.8554 76.7188 63.9354V53.7594C76.7188 51.801 78.2547 50.2266 80.2131 50.2266Z" fill="white"/>
<path d="M84.1709 67.6939H81.5981C78.7565 67.6939 76.4141 65.3899 76.4141 62.5099V55.1371C76.4141 52.2955 78.7181 49.9531 81.5981 49.9531H84.1709C84.3245 49.9531 84.4397 50.0683 84.4397 50.2219V67.4251C84.4397 67.5787 84.3245 67.6939 84.1709 67.6939ZM81.5981 50.4907C79.0253 50.4907 76.9517 52.5643 76.9517 55.1371V62.5099C76.9517 65.0827 79.0253 67.1563 81.5981 67.1563H83.9021V50.4907H81.5981Z" fill="#231F20"/>
<path d="M115.963 66.9649H112.008V49.7617H115.963C117.883 49.7617 119.457 51.3361 119.457 53.2561V63.4705C119.457 65.3905 117.883 66.9649 115.963 66.9649Z" fill="white"/>
<path d="M114.545 67.233H111.972C111.818 67.233 111.703 67.1178 111.703 66.9642V49.761C111.703 49.6074 111.818 49.4922 111.972 49.4922H114.545C117.386 49.4922 119.729 51.7962 119.729 54.6762V62.049C119.729 64.929 117.425 67.233 114.545 67.233ZM112.241 66.6954H114.545C117.118 66.6954 119.191 64.6218 119.191 62.049V54.6762C119.191 52.1034 117.118 50.0298 114.545 50.0298H112.241V66.6954Z" fill="#231F20"/>
<path d="M114.702 54.5233C114.394 54.5233 114.164 54.2929 114.164 53.9857C114.164 45.0001 108.558 37.7041 101.646 37.7041H94.6952C87.7832 37.7041 82.1768 45.0001 82.1768 53.9857C82.1768 54.2929 81.9464 54.5233 81.6392 54.5233C81.332 54.5233 81.1016 54.2929 81.1016 53.9857C81.1016 44.4241 87.2072 36.6289 94.6952 36.6289H101.646C109.134 36.6289 115.239 44.4241 115.239 53.9857C115.239 54.2929 115.009 54.5233 114.702 54.5233Z" fill="#231F20"/>
<path d="M94.9256 61.9758H89.0888C87.1688 61.9758 85.6328 60.4014 85.6328 58.4814V55.4094C85.6328 55.2558 85.748 55.1406 85.9016 55.1406H98.1896C98.3432 55.1406 98.4584 55.2558 98.4584 55.4094V58.4814C98.4584 60.4014 96.884 61.9758 94.9256 61.9758C94.964 61.9758 94.964 61.9758 94.9256 61.9758ZM86.1704 55.7166V58.4814C86.1704 60.0942 87.476 61.4382 89.0888 61.4382H94.9256C96.5384 61.4382 97.8824 60.1326 97.8824 58.4814V55.7166H86.1704Z" fill="#231F20"/>
<path d="M109.206 61.9758H103.369C101.449 61.9758 99.875 60.4014 99.875 58.4814V55.4094C99.875 55.2558 99.9902 55.1406 100.144 55.1406H112.432C112.585 55.1406 112.701 55.2558 112.701 55.4094V58.4814C112.701 60.4014 111.126 61.9758 109.206 61.9758ZM100.413 55.7166V58.4814C100.413 60.0942 101.718 61.4382 103.369 61.4382H109.206C110.819 61.4382 112.163 60.1326 112.163 58.4814V55.7166H100.413Z" fill="#231F20"/>
<path d="M100.149 57.0957C100.11 57.0957 100.033 57.0957 99.995 57.0573C99.4574 56.7117 99.035 56.5581 98.7278 56.6733C98.6126 56.7117 98.4974 56.8269 98.459 56.9421C98.4206 57.0957 98.267 57.1725 98.1134 57.0957C97.9598 57.0573 97.883 56.9037 97.9598 56.7501C98.075 56.4813 98.267 56.2509 98.5742 56.1357C99.035 55.9821 99.611 56.1357 100.302 56.5965C100.417 56.6733 100.456 56.8653 100.379 56.9805C100.341 57.0957 100.225 57.1341 100.149 57.0957Z" fill="#231F20"/>
<path d="M85.8952 57.0962H84.1672C84.0136 57.0962 83.8984 56.981 83.8984 56.8274C83.8984 56.6738 84.0136 56.5586 84.1672 56.5586H85.8952C86.0488 56.5586 86.164 56.6738 86.164 56.8274C86.164 56.981 86.0104 57.0962 85.8952 57.0962Z" fill="#231F20"/>
<path d="M79.444 59.9751H77.3704C77.2168 59.9751 77.1016 59.8599 77.1016 59.7063C77.1016 59.5527 77.2168 59.4375 77.3704 59.4375H79.444C79.5976 59.4375 79.7128 59.5527 79.7128 59.7063C79.7128 59.8215 79.5976 59.9751 79.444 59.9751Z" fill="#D1D3D4"/>
<path d="M79.444 61.9751H77.3704C77.2168 61.9751 77.1016 61.8599 77.1016 61.7063C77.1016 61.5527 77.2168 61.4375 77.3704 61.4375H79.444C79.5976 61.4375 79.7128 61.5527 79.7128 61.7063C79.7128 61.8599 79.5976 61.9751 79.444 61.9751Z" fill="#D1D3D4"/>
<path d="M130.826 157.557H61.7826L55.5234 112.438H137.047L130.826 157.557Z" fill="#231F20"/>
<path d="M130.829 157.825H61.7861C61.6325 157.825 61.5557 157.71 61.5173 157.595L55.2965 112.436C55.2581 112.283 55.3733 112.167 55.5269 112.129H55.5653H137.05C137.127 112.129 137.204 112.167 137.242 112.206C137.281 112.283 137.319 112.359 137.319 112.398L131.098 157.518C131.06 157.71 130.945 157.825 130.829 157.825ZM62.0165 157.287H130.599L136.743 112.705H55.8341L62.0165 157.287Z" fill="#231F20"/>
<path d="M60.5185 157.555H131.943C132.595 157.555 133.133 158.092 133.133 158.745V159.705C133.133 160.358 132.595 160.895 131.943 160.895H60.5185C59.8657 160.895 59.3281 160.358 59.3281 159.705V158.745C59.3281 158.092 59.8657 157.555 60.5185 157.555Z" fill="#231F20"/>
<path d="M131.446 161.167H61.0209C59.9457 161.167 59.0625 160.284 59.0625 159.208C59.0625 158.133 59.9457 157.25 61.0209 157.25H131.485C132.56 157.25 133.443 158.133 133.443 159.208C133.443 160.284 132.522 161.167 131.446 161.167ZM61.0209 157.826C60.2529 157.826 59.6001 158.44 59.6001 159.247C59.6001 160.053 60.2145 160.668 61.0209 160.668H131.485C132.253 160.668 132.906 160.053 132.906 159.247C132.906 158.44 132.291 157.826 131.485 157.826H61.0209Z" fill="#231F20"/>
<path d="M128.296 157.827H61.0188C60.8652 157.827 60.75 157.711 60.75 157.558C60.75 157.404 60.8652 157.289 61.0188 157.289H128.334C128.488 157.289 128.603 157.404 128.603 157.558C128.564 157.711 128.449 157.827 128.296 157.827Z" fill="white"/>
</svg>
