<svg width="24" height="24" viewBox="0 0 24 24" fill="none" xmlns="http://www.w3.org/2000/svg">
<path d="M8.39844 4.7998H5.69844C4.82322 4.7998 3.98386 5.14748 3.36499 5.76635C2.74612 6.38522 2.39844 7.22459 2.39844 8.0998V10.7998H5.12004C4.85592 10.3423 4.75015 9.81037 4.81913 9.2866C4.8881 8.76283 5.12797 8.27645 5.50153 7.90289C5.87509 7.52933 6.36146 7.28947 6.88524 7.22049C7.40901 7.15152 7.9409 7.25729 8.39844 7.5214V4.7998ZM9.59844 9.5998V10.7998H10.7984C11.0358 10.7998 11.2678 10.7294 11.4651 10.5976C11.6625 10.4657 11.8163 10.2783 11.9071 10.059C11.9979 9.83975 12.0217 9.59847 11.9754 9.3657C11.9291 9.13292 11.8148 8.9191 11.647 8.75128C11.4791 8.58345 11.2653 8.46916 11.0325 8.42286C10.7998 8.37656 10.5585 8.40032 10.3392 8.49115C10.1199 8.58197 9.93253 8.73578 9.80067 8.93312C9.66882 9.13046 9.59844 9.36247 9.59844 9.5998ZM12.8768 10.7998C13.141 10.3423 13.2467 9.81037 13.1778 9.2866C13.1088 8.76283 12.8689 8.27645 12.4953 7.90289C12.1218 7.52933 11.6354 7.28947 11.1116 7.22049C10.5879 7.15152 10.056 7.25729 9.59844 7.5214V4.7998H18.2984C19.1737 4.7998 20.013 5.14748 20.6319 5.76635C21.2508 6.38522 21.5984 7.22459 21.5984 8.0998V10.7998H12.8768ZM10.4468 11.9998L12.4232 13.975C12.5359 14.0877 12.5992 14.2405 12.5992 14.3998C12.5992 14.5591 12.5359 14.7119 12.4232 14.8246C12.3106 14.9373 12.1578 15.0006 11.9984 15.0006C11.8391 15.0006 11.6863 14.9373 11.5736 14.8246L9.59844 12.8482V19.1998H18.2984C19.1737 19.1998 20.013 18.8521 20.6319 18.2333C21.2508 17.6144 21.5984 16.775 21.5984 15.8998V11.9998H10.4468ZM8.39844 19.1998V12.8482L6.42324 14.8246C6.31057 14.9373 6.15777 15.0006 5.99844 15.0006C5.83911 15.0006 5.6863 14.9373 5.57364 14.8246C5.46097 14.7119 5.39768 14.5591 5.39768 14.3998C5.39768 14.2405 5.46097 14.0877 5.57364 13.975L7.55004 11.9998H2.39844V15.8998C2.39844 16.775 2.74612 17.6144 3.36499 18.2333C3.98386 18.8521 4.82322 19.1998 5.69844 19.1998H8.39844ZM8.39844 9.5998C8.39844 9.36247 8.32806 9.13046 8.1962 8.93312C8.06434 8.73578 7.87693 8.58197 7.65766 8.49115C7.43839 8.40032 7.19711 8.37656 6.96433 8.42286C6.73155 8.46916 6.51773 8.58345 6.34991 8.75128C6.18209 8.9191 6.0678 9.13292 6.0215 9.3657C5.97519 9.59847 5.99896 9.83975 6.08978 10.059C6.18061 10.2783 6.33441 10.4657 6.53175 10.5976C6.72909 10.7294 6.9611 10.7998 7.19844 10.7998H8.39844V9.5998Z" fill="#FF6A00"/>
</svg>
