<svg width="24" height="24" viewBox="0 0 24 24" fill="none" xmlns="http://www.w3.org/2000/svg">
<path fill-rule="evenodd" clip-rule="evenodd" d="M9.76637 2.99783C10.0477 2.68357 10.3922 2.43219 10.7774 2.26008C11.1625 2.08798 11.5795 1.99902 12.0014 1.99902C12.4232 1.99902 12.8403 2.08798 13.2254 2.26008C13.6105 2.43219 13.955 2.68357 14.2364 2.99783L14.9364 3.77983C15.0364 3.89174 15.1603 3.97969 15.299 4.03716C15.4377 4.09463 15.5875 4.12015 15.7374 4.11183L16.7874 4.05383C17.2084 4.03071 17.6296 4.09661 18.0235 4.24723C18.4173 4.39785 18.775 4.62982 19.0732 4.928C19.3714 5.22617 19.6033 5.58386 19.754 5.97772C19.9046 6.37159 19.9705 6.79278 19.9474 7.21383L19.8894 8.26383C19.8812 8.41354 19.9068 8.56316 19.9643 8.70164C20.0217 8.84012 20.1096 8.9639 20.2214 9.06383L21.0044 9.76383C21.3188 10.0452 21.5703 10.3898 21.7425 10.775C21.9147 11.1602 22.0037 11.5774 22.0037 11.9993C22.0037 12.4213 21.9147 12.8385 21.7425 13.2237C21.5703 13.6089 21.3188 13.9534 21.0044 14.2348L20.2214 14.9348C20.1095 15.0349 20.0215 15.1588 19.964 15.2975C19.9066 15.4361 19.881 15.586 19.8894 15.7358L19.9474 16.7858C19.9705 17.2069 19.9046 17.6281 19.754 18.0219C19.6033 18.4158 19.3714 18.7735 19.0732 19.0717C18.775 19.3698 18.4173 19.6018 18.0235 19.7524C17.6296 19.9031 17.2084 19.969 16.7874 19.9458L15.7374 19.8878C15.5877 19.8797 15.438 19.9053 15.2996 19.9627C15.1611 20.0202 15.0373 20.1081 14.9374 20.2198L14.2374 21.0028C13.956 21.3173 13.6114 21.5688 13.2262 21.741C12.841 21.9132 12.4238 22.0022 12.0019 22.0022C11.5799 22.0022 11.1627 21.9132 10.7775 21.741C10.3923 21.5688 10.0478 21.3173 9.76637 21.0028L9.06636 20.2198C8.96633 20.1079 8.84238 20.02 8.70372 19.9625C8.56506 19.905 8.41524 19.8795 8.26537 19.8878L7.21537 19.9458C6.79432 19.969 6.37312 19.9031 5.97926 19.7524C5.58539 19.6018 5.22771 19.3698 4.92953 19.0717C4.63136 18.7735 4.39939 18.4158 4.24876 18.0219C4.09814 17.6281 4.03224 17.2069 4.05537 16.7858L4.11337 15.7358C4.12154 15.5861 4.09594 15.4365 4.03847 15.298C3.98101 15.1595 3.89314 15.0358 3.78137 14.9358L2.99937 14.2358C2.68494 13.9544 2.43342 13.6099 2.26121 13.2247C2.08901 12.8395 2 12.4223 2 12.0003C2 11.5784 2.08901 11.1612 2.26121 10.776C2.43342 10.3908 2.68494 10.0462 2.99937 9.76483L3.78137 9.06483C3.89327 8.96479 3.98122 8.84085 4.0387 8.70219C4.09617 8.56352 4.12169 8.4137 4.11337 8.26383L4.05537 7.21383C4.03224 6.79278 4.09814 6.37159 4.24876 5.97772C4.39939 5.58386 4.63136 5.22617 4.92953 4.928C5.22771 4.62982 5.58539 4.39785 5.97926 4.24723C6.37312 4.09661 6.79432 4.03071 7.21537 4.05383L8.26537 4.11183C8.41507 4.12 8.5647 4.09441 8.70318 4.03694C8.84165 3.97947 8.96544 3.8916 9.06537 3.77983L9.76537 2.99783H9.76637ZM15.7084 8.29283C15.8958 8.48036 16.0012 8.73467 16.0012 8.99983C16.0012 9.26499 15.8958 9.5193 15.7084 9.70683L9.70836 15.7068C9.51976 15.889 9.26716 15.9898 9.00496 15.9875C8.74277 15.9852 8.49195 15.8801 8.30655 15.6946C8.12114 15.5092 8.01597 15.2584 8.01369 14.9962C8.01141 14.734 8.11221 14.4814 8.29437 14.2928L14.2944 8.29283C14.4819 8.10536 14.7362 8.00004 15.0014 8.00004C15.2665 8.00004 15.5208 8.10536 15.7084 8.29283ZM9.50137 7.99983C9.10354 7.99983 8.72201 8.15787 8.4407 8.43917C8.1594 8.72047 8.00137 9.10201 8.00137 9.49983V9.50983C8.00137 9.90766 8.1594 10.2892 8.4407 10.5705C8.72201 10.8518 9.10354 11.0098 9.50137 11.0098H9.51137C9.90919 11.0098 10.2907 10.8518 10.572 10.5705C10.8533 10.2892 11.0114 9.90766 11.0114 9.50983V9.49983C11.0114 9.10201 10.8533 8.72047 10.572 8.43917C10.2907 8.15787 9.90919 7.99983 9.51137 7.99983H9.50137ZM14.5014 12.9998C14.1035 12.9998 13.722 13.1579 13.4407 13.4392C13.1594 13.7205 13.0014 14.102 13.0014 14.4998V14.5098C13.0014 14.9077 13.1594 15.2892 13.4407 15.5705C13.722 15.8518 14.1035 16.0098 14.5014 16.0098H14.5114C14.9092 16.0098 15.2907 15.8518 15.572 15.5705C15.8533 15.2892 16.0114 14.9077 16.0114 14.5098V14.4998C16.0114 14.102 15.8533 13.7205 15.572 13.4392C15.2907 13.1579 14.9092 12.9998 14.5114 12.9998H14.5014Z" fill="#FF6A00"/>
</svg>
