<svg width="20" height="20" viewBox="0 0 20 20" fill="none" xmlns="http://www.w3.org/2000/svg">
<path d="M9.3763 1.66699C5.86047 1.67033 4.04214 1.73366 2.88797 2.88699C1.73464 4.04199 1.6713 5.85949 1.66797 9.37533H5.76297C5.46332 9.00134 5.24812 8.56696 5.13214 8.10199C4.68464 6.30866 6.30964 4.68366 8.10297 5.13116C8.57964 5.25033 9.0113 5.46949 9.3763 5.76199V1.66699ZM1.66797 10.6253C1.6713 14.1403 1.73464 15.9587 2.88797 17.1128C4.04297 18.267 5.86047 18.3295 9.3763 18.3337V11.7695C9.0476 12.4274 8.54213 12.9807 7.91656 13.3674C7.29099 13.754 6.57006 13.9588 5.83464 13.9587C5.66888 13.9587 5.5099 13.8928 5.39269 13.7756C5.27548 13.6584 5.20964 13.4994 5.20964 13.3337C5.20964 13.1679 5.27548 13.0089 5.39269 12.8917C5.5099 12.7745 5.66888 12.7087 5.83464 12.7087C6.44432 12.7086 7.03618 12.503 7.5145 12.1249C7.99281 11.7469 8.32963 11.2185 8.47047 10.6253H1.66797ZM10.6263 18.3337C14.1413 18.3295 15.9596 18.267 17.1138 17.1128C18.268 15.9595 18.3305 14.1403 18.3346 10.6253H11.5321C11.673 11.2185 12.0098 11.7469 12.4881 12.1249C12.9664 12.503 13.5583 12.7086 14.168 12.7087C14.3337 12.7087 14.4927 12.7745 14.6099 12.8917C14.7271 13.0089 14.793 13.1679 14.793 13.3337C14.793 13.4994 14.7271 13.6584 14.6099 13.7756C14.4927 13.8928 14.3337 13.9587 14.168 13.9587C13.4325 13.9588 12.7116 13.754 12.086 13.3674C11.4605 12.9807 10.955 12.4274 10.6263 11.7695V18.3337ZM18.3346 9.37533C18.3305 5.85949 18.268 4.04116 17.1138 2.88699C15.9605 1.73366 14.1413 1.67033 10.6263 1.66699V5.76199C11.0001 5.46247 11.4341 5.24728 11.8988 5.13116C13.693 4.68283 15.3188 6.30783 14.8696 8.10199C14.7539 8.56689 14.539 9.00127 14.2396 9.37533H18.3346Z" fill="#FF6A00"/>
<path d="M7.79824 6.3443C8.24848 6.45673 8.6482 6.71645 8.93388 7.08215C9.21956 7.44786 9.3748 7.89857 9.37491 8.36263V9.37513H8.36241C7.89835 9.37502 7.44764 9.21978 7.08193 8.93411C6.71623 8.64843 6.45651 8.2487 6.34407 7.79846C6.29412 7.5976 6.29696 7.38724 6.35233 7.1878C6.4077 6.98837 6.51371 6.80664 6.66007 6.66029C6.80642 6.51393 6.98815 6.40792 7.18758 6.35255C7.38702 6.29718 7.59738 6.29434 7.79824 6.3443ZM10.6249 8.36263V9.37513H11.6374C12.5916 9.37513 13.4241 8.72513 13.6557 7.79846C13.7058 7.59752 13.7029 7.38705 13.6475 7.18752C13.5921 6.988 13.486 6.80621 13.3396 6.65982C13.1931 6.51344 13.0112 6.40745 12.8117 6.35216C12.6121 6.29687 12.4017 6.29416 12.2007 6.3443C11.7507 6.45689 11.3511 6.71668 11.0656 7.08237C10.7801 7.44806 10.625 7.89868 10.6249 8.36263Z" fill="#FF6A00"/>
</svg>
