<svg width="17" height="15" viewBox="0 0 17 15" fill="none" xmlns="http://www.w3.org/2000/svg">
<path d="M16.5 6.75C16.5 6.35218 16.342 5.97064 16.0607 5.68934C15.7794 5.40804 15.3978 5.25 15 5.25H10.26L10.98 1.8225C10.995 1.7475 11.0025 1.665 11.0025 1.5825C11.0025 1.275 10.875 0.99 10.6725 0.7875L9.8775 0L4.9425 4.935C4.665 5.2125 4.5 5.5875 4.5 6V13.5C4.5 13.8978 4.65804 14.2794 4.93934 14.5607C5.22064 14.842 5.60218 15 6 15H12.75C13.3725 15 13.905 14.625 14.13 14.085L16.395 8.7975C16.4625 8.625 16.5 8.445 16.5 8.25V6.75ZM0 15H3V6H0V15Z" fill="#A3A3A3"/>
</svg>
