<svg width="17" height="15" viewBox="0 0 17 15" fill="none" xmlns="http://www.w3.org/2000/svg">
<path d="M0 8.25C0 8.64782 0.158035 9.02936 0.439341 9.31066C0.720645 9.59196 1.10218 9.75 1.5 9.75H6.24L5.52 13.1775C5.505 13.2525 5.4975 13.335 5.4975 13.4175C5.4975 13.725 5.625 14.01 5.8275 14.2125L6.6225 15L11.5575 10.065C11.835 9.7875 12 9.4125 12 9V1.5C12 1.10218 11.842 0.720645 11.5607 0.439341C11.2794 0.158035 10.8978 0 10.5 0H3.75C3.1275 0 2.595 0.374999 2.37 0.914999L0.105 6.2025C0.0375004 6.375 0 6.555 0 6.75V8.25ZM16.5 0H13.5V9H16.5V0Z" fill="#A3A3A3"/>
</svg>
