<svg width="20" height="20" viewBox="0 0 20 20" fill="none" xmlns="http://www.w3.org/2000/svg">
<path d="M6.25 20.0001V13.3751C5.5 13.0001 5 12.1251 5 11.2501V6.25012C5 5.37512 5.5 4.62512 6.25 4.12512V3.75012C6.25 2.37512 5.125 1.25012 3.75 1.25012C2.375 1.25012 1.25 2.37512 1.25 3.75012C1.25 5.12512 2.375 6.25012 3.75 6.25012H1.25C0.625 6.25012 0 6.87512 0 7.50012V12.5001C0 13.1251 0.625 13.7501 1.25 13.7501V20.0001H6.25ZM18.75 6.25012H16.25C17.625 6.25012 18.75 5.12512 18.75 3.75012C18.75 2.37512 17.625 1.25012 16.25 1.25012C14.875 1.25012 13.75 2.37512 13.75 3.75012V4.12512C14.5 4.62512 15 5.37512 15 6.25012V11.2501C15 12.1251 14.5 13.0001 13.75 13.3751V20.0001H18.75V13.7501C19.375 13.7501 20 13.1251 20 12.5001V7.50012C20 6.87512 19.375 6.25012 18.75 6.25012ZM12.5 2.50012C12.5075 2.83305 12.4485 3.16412 12.3263 3.4739C12.2041 3.78369 12.0213 4.06594 11.7885 4.30409C11.5557 4.54224 11.2777 4.73148 10.9708 4.86071C10.6639 4.98994 10.3343 5.05656 10.0013 5.05664C9.66825 5.05672 9.33859 4.99028 9.03161 4.8612C8.72464 4.73212 8.44654 4.54301 8.21366 4.30498C7.98077 4.06695 7.79779 3.78479 7.67545 3.47506C7.55311 3.16534 7.49389 2.8343 7.50125 2.50137C7.51569 1.84817 7.78528 1.22658 8.2523 0.769658C8.71932 0.312739 9.34665 0.0568041 10 0.0566407C10.6534 0.0564773 11.2808 0.312099 11.7481 0.768784C12.2153 1.22547 12.4852 1.84693 12.5 2.50012Z" fill="#FF6A00"/>
<path d="M12.5 5H7.5C6.875 5 6.25 5.625 6.25 6.25V11.25C6.25 11.875 6.875 12.5 7.5 12.5V20H12.5V12.5C13.125 12.5 13.75 11.875 13.75 11.25V6.25C13.75 5.625 13.125 5 12.5 5Z" fill="#FF6A00"/>
</svg>
