<svg width="24" height="24" viewBox="0 0 24 24" fill="none" xmlns="http://www.w3.org/2000/svg">
<path d="M12 6.00195C13.1046 6.00195 14 5.10652 14 4.00195C14 2.89738 13.1046 2.00195 12 2.00195C10.8954 2.00195 10 2.89738 10 4.00195C10 5.10652 10.8954 6.00195 12 6.00195Z" fill="#FF6A00"/>
<path d="M14.9468 7.68205C14.8809 7.48276 14.7538 7.30935 14.5835 7.18653C14.4133 7.06371 14.2087 6.99775 13.9988 6.99805H9.99878C9.78891 6.9979 9.58434 7.06392 9.41415 7.18672C9.24396 7.30952 9.11681 7.48284 9.05078 7.68205L7.05078 13.682L8.82578 14.275L7.99878 17.998H9.99878V21.998H13.9988V17.998H15.9988L15.1718 14.274L16.9468 13.681L14.9468 7.68205Z" fill="#FF6A00"/>
</svg>
