<svg width="360" height="220" viewBox="0 0 360 220" fill="none" xmlns="http://www.w3.org/2000/svg">
<g clip-path="url(#clip0_4851_21282)">
<rect width="360" height="220" rx="10" fill="#02CAFD"/>
<g style="mix-blend-mode:color-burn">
<path d="M369.714 15.9025L369.816 203.911C369.827 215.999 359.656 225.814 347.117 225.825L13.0036 226C10.9195 226 8.89193 225.727 6.97766 225.213C-2.63898 222.677 -9.70703 214.196 -9.71836 204.108L-9.8203 16.0992C-9.83163 4.01121 0.328701 -5.81439 12.879 -5.81439L347.003 -5.98926C351.478 -5.98926 355.68 -4.73237 359.191 -2.54647C365.523 1.32256 369.714 8.13163 369.714 15.9025Z" fill="url(#paint0_linear_4851_21282)"/>
<path opacity="0.3" d="M253.328 225.879L13.0025 225.999C10.9184 225.999 8.89083 225.726 6.97656 225.213L113.586 122.235C116.769 119.153 120.655 117.164 124.744 116.322C132.061 114.726 140.069 116.694 145.778 122.224L253.328 225.879Z" fill="url(#paint1_linear_4851_21282)"/>
<path opacity="0.3" d="M94.3316 77.9274L-9.72969 178.446L-9.8203 16.1103C-9.83163 4.01133 0.340028 -5.80333 12.8677 -5.81426L39.6561 -5.8252L94.3203 46.8658C103.223 55.4236 103.235 69.3477 94.3316 77.9274Z" fill="url(#paint2_linear_4851_21282)"/>
<path opacity="0.7" d="M186.93 -5.91211L154.251 25.6631C145.371 34.2537 130.94 34.2646 122.06 25.685L89.3359 -5.85746L186.93 -5.91211Z" fill="url(#paint3_linear_4851_21282)"/>
<path opacity="0.7" d="M369.714 15.9027L369.805 183.812C363.699 184.042 357.504 181.921 352.837 177.408L214.591 44.1554C205.688 35.5867 205.676 21.6516 214.568 13.0719L234.254 -5.94535L346.992 -6C351.466 -6 355.669 -4.74311 359.18 -2.55721C365.523 1.32275 369.714 8.13181 369.714 15.9027Z" fill="url(#paint4_linear_4851_21282)"/>
</g>
<path d="M28.024 168.416H33.874V170H26.35V157.4H33.784V158.984H28.024V162.854H33.334V164.42H28.024V168.416ZM42.8249 170H40.9889L38.4689 166.598L35.9309 170H34.0949L37.5509 165.374L34.2929 161H36.1469L38.4689 164.132L40.7909 161H42.6269L39.3869 165.356L42.8249 170ZM48.5246 160.766C49.7846 160.766 50.8586 161.228 51.7466 162.152C52.6346 163.064 53.0786 164.18 53.0786 165.5C53.0786 166.82 52.6346 167.942 51.7466 168.866C50.8586 169.778 49.7846 170.234 48.5246 170.234C47.0366 170.234 45.9026 169.64 45.1226 168.452V173.6H43.5566V161H45.1226V162.548C45.9026 161.36 47.0366 160.766 48.5246 160.766ZM48.3266 168.722C49.2266 168.722 49.9826 168.416 50.5946 167.804C51.2066 167.18 51.5126 166.412 51.5126 165.5C51.5126 164.588 51.2066 163.826 50.5946 163.214C49.9826 162.59 49.2266 162.278 48.3266 162.278C47.4146 162.278 46.6526 162.59 46.0406 163.214C45.4286 163.826 45.1226 164.588 45.1226 165.5C45.1226 166.412 45.4286 167.18 46.0406 167.804C46.6526 168.416 47.4146 168.722 48.3266 168.722ZM54.2272 170V156.86H55.7932V170H54.2272ZM65.0583 168.866C64.1343 169.778 63.0123 170.234 61.6923 170.234C60.3723 170.234 59.2503 169.778 58.3263 168.866C57.4143 167.954 56.9583 166.832 56.9583 165.5C56.9583 164.168 57.4143 163.046 58.3263 162.134C59.2503 161.222 60.3723 160.766 61.6923 160.766C63.0123 160.766 64.1343 161.222 65.0583 162.134C65.9823 163.046 66.4443 164.168 66.4443 165.5C66.4443 166.832 65.9823 167.954 65.0583 168.866ZM61.6923 168.704C62.5923 168.704 63.3483 168.398 63.9603 167.786C64.5723 167.174 64.8783 166.412 64.8783 165.5C64.8783 164.588 64.5723 163.826 63.9603 163.214C63.3483 162.602 62.5923 162.296 61.6923 162.296C60.8043 162.296 60.0543 162.602 59.4423 163.214C58.8303 163.826 58.5243 164.588 58.5243 165.5C58.5243 166.412 58.8303 167.174 59.4423 167.786C60.0543 168.398 60.8043 168.704 61.6923 168.704ZM69.1364 162.512C69.6524 161.396 70.5884 160.838 71.9444 160.838V162.476C71.1764 162.44 70.5164 162.644 69.9644 163.088C69.4124 163.532 69.1364 164.246 69.1364 165.23V170H67.5704V161H69.1364V162.512ZM73.3625 166.22C73.5185 167.024 73.8845 167.648 74.4605 168.092C75.0485 168.536 75.7685 168.758 76.6205 168.758C77.8085 168.758 78.6725 168.32 79.2125 167.444L80.5445 168.2C79.6685 169.556 78.3485 170.234 76.5845 170.234C75.1565 170.234 73.9925 169.79 73.0925 168.902C72.2045 168.002 71.7605 166.868 71.7605 165.5C71.7605 164.144 72.1985 163.016 73.0745 162.116C73.9505 161.216 75.0845 160.766 76.4765 160.766C77.7965 160.766 78.8705 161.234 79.6985 162.17C80.5385 163.094 80.9585 164.21 80.9585 165.518C80.9585 165.746 80.9405 165.98 80.9045 166.22H73.3625ZM76.4765 162.242C75.6365 162.242 74.9405 162.482 74.3885 162.962C73.8365 163.43 73.4945 164.06 73.3625 164.852H79.3745C79.2425 164 78.9065 163.352 78.3665 162.908C77.8265 162.464 77.1965 162.242 76.4765 162.242ZM83.6046 162.512C84.1206 161.396 85.0566 160.838 86.4126 160.838V162.476C85.6446 162.44 84.9846 162.644 84.4326 163.088C83.8806 163.532 83.6046 164.246 83.6046 165.23V170H82.0386V161H83.6046V162.512Z" fill="#003064"/>
<path d="M33.368 178.8V180.208H30.056V190H28.584V180.208H25.288V178.8H33.368ZM39.2275 182H40.6195V190H39.2275V188.624C38.5342 189.68 37.5262 190.208 36.2035 190.208C35.0835 190.208 34.1288 189.803 33.3395 188.992C32.5502 188.171 32.1555 187.173 32.1555 186C32.1555 184.827 32.5502 183.835 33.3395 183.024C34.1288 182.203 35.0835 181.792 36.2035 181.792C37.5262 181.792 38.5342 182.32 39.2275 183.376V182ZM36.3795 188.864C37.1902 188.864 37.8675 188.592 38.4115 188.048C38.9555 187.493 39.2275 186.811 39.2275 186C39.2275 185.189 38.9555 184.512 38.4115 183.968C37.8675 183.413 37.1902 183.136 36.3795 183.136C35.5795 183.136 34.9075 183.413 34.3635 183.968C33.8195 184.512 33.5475 185.189 33.5475 186C33.5475 186.811 33.8195 187.493 34.3635 188.048C34.9075 188.592 35.5795 188.864 36.3795 188.864ZM43.4805 183.344C43.9392 182.352 44.7712 181.856 45.9765 181.856V183.312C45.2938 183.28 44.7072 183.461 44.2165 183.856C43.7258 184.251 43.4805 184.885 43.4805 185.76V190H42.0885V182H43.4805V183.344ZM52.2185 182H53.6105V190H52.2185V188.848C51.6532 189.755 50.7892 190.208 49.6265 190.208C48.6878 190.208 47.9358 189.915 47.3705 189.328C46.8052 188.731 46.5225 187.925 46.5225 186.912V182H47.9145V186.832C47.9145 187.483 48.0905 187.989 48.4425 188.352C48.7945 188.704 49.2798 188.88 49.8985 188.88C50.5918 188.88 51.1518 188.667 51.5785 188.24C52.0052 187.803 52.2185 187.136 52.2185 186.24V182ZM59.0738 181.792C60.0124 181.792 60.7644 182.091 61.3298 182.688C61.8951 183.275 62.1778 184.075 62.1778 185.088V190H60.7858V185.168C60.7858 184.517 60.6098 184.016 60.2578 183.664C59.9058 183.301 59.4204 183.12 58.8018 183.12C58.1084 183.12 57.5484 183.339 57.1218 183.776C56.6951 184.203 56.4818 184.864 56.4818 185.76V190H55.0898V182H56.4818V183.152C57.0471 182.245 57.9111 181.792 59.0738 181.792ZM70.601 190.208C69.5557 190.208 68.6597 189.963 67.913 189.472C67.177 188.981 66.6597 188.309 66.361 187.456L67.641 186.72C68.0783 188.075 69.0757 188.752 70.633 188.752C71.401 188.752 71.9877 188.597 72.393 188.288C72.7983 187.968 73.001 187.547 73.001 187.024C73.001 186.491 72.7983 186.091 72.393 185.824C71.9877 185.557 71.3103 185.275 70.361 184.976C69.8917 184.827 69.5343 184.709 69.289 184.624C69.0437 184.528 68.7343 184.389 68.361 184.208C67.9983 184.016 67.7263 183.824 67.545 183.632C67.3637 183.429 67.1983 183.168 67.049 182.848C66.9103 182.528 66.841 182.165 66.841 181.76C66.841 180.789 67.1823 180.021 67.865 179.456C68.5477 178.88 69.3797 178.592 70.361 178.592C71.2463 178.592 72.0143 178.816 72.665 179.264C73.3263 179.712 73.8223 180.304 74.153 181.04L72.905 181.76C72.425 180.608 71.577 180.032 70.361 180.032C69.753 180.032 69.2623 180.181 68.889 180.48C68.5157 180.779 68.329 181.184 68.329 181.696C68.329 182.187 68.505 182.56 68.857 182.816C69.209 183.072 69.817 183.339 70.681 183.616C70.9903 183.712 71.209 183.781 71.337 183.824C71.465 183.867 71.6623 183.941 71.929 184.048C72.2063 184.155 72.409 184.24 72.537 184.304C72.665 184.368 72.8357 184.459 73.049 184.576C73.273 184.693 73.4383 184.805 73.545 184.912C73.6517 185.019 73.7743 185.152 73.913 185.312C74.0623 185.461 74.169 185.616 74.233 185.776C74.297 185.936 74.3503 186.123 74.393 186.336C74.4463 186.539 74.473 186.757 74.473 186.992C74.473 187.973 74.1157 188.757 73.401 189.344C72.6863 189.92 71.753 190.208 70.601 190.208ZM76.155 180.544C75.8883 180.544 75.6643 180.453 75.483 180.272C75.3017 180.091 75.211 179.872 75.211 179.616C75.211 179.36 75.3017 179.141 75.483 178.96C75.6643 178.768 75.8883 178.672 76.155 178.672C76.411 178.672 76.6297 178.768 76.811 178.96C76.9923 179.141 77.083 179.36 77.083 179.616C77.083 179.872 76.9923 180.091 76.811 180.272C76.6297 180.453 76.411 180.544 76.155 180.544ZM75.451 190V182H76.843V190H75.451ZM82.3106 181.792C83.2493 181.792 84.0013 182.091 84.5666 182.688C85.132 183.275 85.4146 184.075 85.4146 185.088V190H84.0226V185.168C84.0226 184.517 83.8466 184.016 83.4946 183.664C83.1426 183.301 82.6573 183.12 82.0386 183.12C81.3453 183.12 80.7853 183.339 80.3586 183.776C79.932 184.203 79.7186 184.864 79.7186 185.76V190H78.3266V182H79.7186V183.152C80.284 182.245 81.148 181.792 82.3106 181.792ZM93.3579 182H94.7339V189.664C94.7339 190.848 94.3339 191.765 93.5339 192.416C92.7339 193.077 91.7739 193.408 90.6539 193.408C89.7579 193.408 88.9845 193.237 88.3339 192.896C87.6832 192.565 87.1925 192.085 86.8619 191.456L88.0779 190.768C88.5152 191.664 89.3845 192.112 90.6859 192.112C91.5179 192.112 92.1685 191.893 92.6379 191.456C93.1179 191.019 93.3579 190.421 93.3579 189.664V188.528C92.6539 189.595 91.6512 190.128 90.3499 190.128C89.2085 190.128 88.2432 189.723 87.4539 188.912C86.6645 188.101 86.2699 187.115 86.2699 185.952C86.2699 184.789 86.6645 183.808 87.4539 183.008C88.2432 182.197 89.2085 181.792 90.3499 181.792C91.6619 181.792 92.6645 182.32 93.3579 183.376V182ZM88.4779 187.984C89.0219 188.528 89.6992 188.8 90.5099 188.8C91.3205 188.8 91.9979 188.528 92.5419 187.984C93.0859 187.44 93.3579 186.763 93.3579 185.952C93.3579 185.152 93.0859 184.48 92.5419 183.936C91.9979 183.392 91.3205 183.12 90.5099 183.12C89.6992 183.12 89.0219 183.392 88.4779 183.936C87.9339 184.48 87.6619 185.152 87.6619 185.952C87.6619 186.763 87.9339 187.44 88.4779 187.984ZM100.187 181.792C101.126 181.792 101.878 182.091 102.443 182.688C103.008 183.275 103.291 184.075 103.291 185.088V190H101.899V185.168C101.899 184.517 101.723 184.016 101.371 183.664C101.019 183.301 100.534 183.12 99.9149 183.12C99.2215 183.12 98.6615 183.339 98.2349 183.776C97.8082 184.203 97.5949 184.864 97.5949 185.76V190H96.2029V178.8H97.5949V183.152C98.1602 182.245 99.0242 181.792 100.187 181.792Z" fill="white"/>
<path d="M30.904 28.4C32.092 28.4 33.082 28.796 33.874 29.588C34.678 30.38 35.08 31.364 35.08 32.54C35.08 33.704 34.678 34.688 33.874 35.492C33.082 36.284 32.092 36.68 30.904 36.68H28.33V41H26.26V28.4H30.904ZM30.904 34.736C31.516 34.736 32.02 34.532 32.416 34.124C32.812 33.704 33.01 33.176 33.01 32.54C33.01 31.904 32.812 31.382 32.416 30.974C32.02 30.554 31.516 30.344 30.904 30.344H28.33V34.736H30.904ZM41.1252 31.766C42.1572 31.766 42.9912 32.096 43.6272 32.756C44.2632 33.416 44.5812 34.322 44.5812 35.474V41H42.6372V35.672C42.6372 35 42.4572 34.484 42.0972 34.124C41.7372 33.764 41.2452 33.584 40.6212 33.584C39.9372 33.584 39.3852 33.8 38.9652 34.232C38.5452 34.652 38.3352 35.3 38.3352 36.176V41H36.3912V28.4H38.3352V33.152C38.9232 32.228 39.8532 31.766 41.1252 31.766ZM50.5624 41.234C49.2424 41.234 48.1204 40.778 47.1964 39.866C46.2724 38.954 45.8104 37.832 45.8104 36.5C45.8104 35.168 46.2724 34.046 47.1964 33.134C48.1204 32.222 49.2424 31.766 50.5624 31.766C51.8944 31.766 53.0164 32.222 53.9284 33.134C54.8524 34.046 55.3144 35.168 55.3144 36.5C55.3144 37.832 54.8524 38.954 53.9284 39.866C53.0164 40.778 51.8944 41.234 50.5624 41.234ZM48.5644 38.534C49.1044 39.074 49.7704 39.344 50.5624 39.344C51.3544 39.344 52.0204 39.074 52.5604 38.534C53.1004 37.994 53.3704 37.316 53.3704 36.5C53.3704 35.684 53.1004 35.006 52.5604 34.466C52.0204 33.926 51.3544 33.656 50.5624 33.656C49.7704 33.656 49.1044 33.926 48.5644 34.466C48.0244 35.006 47.7544 35.684 47.7544 36.5C47.7544 37.316 48.0244 37.994 48.5644 38.534ZM58.2422 37.328C58.3862 38.012 58.7162 38.54 59.2322 38.912C59.7482 39.272 60.3782 39.452 61.1222 39.452C62.1542 39.452 62.9282 39.08 63.4442 38.336L65.0462 39.272C64.1582 40.58 62.8442 41.234 61.1042 41.234C59.6402 41.234 58.4582 40.79 57.5582 39.902C56.6582 39.002 56.2082 37.868 56.2082 36.5C56.2082 35.156 56.6522 34.034 57.5402 33.134C58.4282 32.222 59.5682 31.766 60.9602 31.766C62.2802 31.766 63.3602 32.228 64.2002 33.152C65.0522 34.076 65.4782 35.198 65.4782 36.518C65.4782 36.722 65.4542 36.992 65.4062 37.328H58.2422ZM58.2242 35.744H63.5162C63.3842 35.012 63.0782 34.46 62.5982 34.088C62.1302 33.716 61.5782 33.53 60.9422 33.53C60.2222 33.53 59.6222 33.728 59.1422 34.124C58.6622 34.52 58.3562 35.06 58.2242 35.744ZM71.5628 31.766C72.5948 31.766 73.4288 32.096 74.0648 32.756C74.7008 33.416 75.0188 34.322 75.0188 35.474V41H73.0748V35.672C73.0748 35 72.8948 34.484 72.5348 34.124C72.1748 33.764 71.6828 33.584 71.0588 33.584C70.3748 33.584 69.8228 33.8 69.4028 34.232C68.9828 34.652 68.7728 35.3 68.7728 36.176V41H66.8288V32H68.7728V33.152C69.3608 32.228 70.2908 31.766 71.5628 31.766ZM78.588 30.29C78.348 30.53 78.06 30.65 77.724 30.65C77.388 30.65 77.094 30.53 76.842 30.29C76.602 30.038 76.482 29.744 76.482 29.408C76.482 29.072 76.602 28.784 76.842 28.544C77.082 28.292 77.376 28.166 77.724 28.166C78.072 28.166 78.366 28.292 78.606 28.544C78.846 28.784 78.966 29.072 78.966 29.408C78.966 29.744 78.84 30.038 78.588 30.29ZM76.752 41V32H78.696V41H76.752ZM88.6391 41H86.3891L84.1571 37.922L81.9071 41H79.6391L83.0231 36.374L79.8191 32H82.0691L84.1391 34.844L86.2091 32H88.4771L85.2731 36.392L88.6391 41ZM101.231 30.38H95.9207V33.908H101.051V35.888H95.9207V41H93.8507V28.4H101.231V30.38ZM102.681 41V27.86H104.625V41H102.681ZM112.588 32H114.658L111.202 41.288C110.338 43.616 108.874 44.72 106.81 44.6V42.782C107.422 42.818 107.914 42.686 108.286 42.386C108.658 42.098 108.964 41.642 109.204 41.018L109.294 40.838L105.478 32H107.602L110.284 38.534L112.588 32Z" fill="#003064"/>
<path d="M261.17 60.007L258.524 55.8346L254.076 53.8938L255.115 52.5866L258.854 52.8871L261.778 49.1867L253.447 46.3927L254.779 44.7176L264.664 45.527L267.654 41.7205C267.922 41.3801 268.273 41.1891 268.706 41.1477C269.139 41.1062 269.52 41.2272 269.848 41.5106C270.177 41.7938 270.364 42.1603 270.407 42.61C270.45 43.0598 270.337 43.4549 270.068 43.7954L267.05 47.5888L269.688 57.5647L268.351 59.256L264.157 51.2437L261.233 54.9441L262.207 58.6943L261.17 60.007Z" fill="#22B1EF"/>
<path d="M294.881 11.214L287.667 12.5328M294.881 11.214C298.281 10.5923 299.982 10.2813 301.231 11.1452C302.481 12.0076 302.792 13.7089 303.414 17.109L303.963 20.1149C304.585 23.515 304.896 25.2163 304.032 26.4652C303.17 27.715 301.468 28.026 298.068 28.6477L290.854 29.9665C287.454 30.5881 285.753 30.8992 284.504 30.0353C283.254 29.1729 282.943 27.4716 282.321 24.0714L281.772 21.0656C281.15 17.6655 280.839 15.9642 281.703 14.7153C282.565 13.4655 284.267 13.1544 287.667 12.5328M294.881 11.214L294.771 10.6128C294.46 8.91151 294.304 8.06147 293.679 7.63157C293.055 7.19905 292.206 7.35423 290.505 7.66526C288.803 7.97629 287.953 8.1317 287.523 8.757C287.091 9.38154 287.246 10.2316 287.557 11.9317L287.667 12.5328M302.974 14.7044C301.698 14.9376 300.383 14.6545 299.316 13.9175C298.249 13.1805 297.519 12.0498 297.285 10.7743M282.761 26.4761C284.036 26.2429 285.352 26.526 286.419 27.263C287.486 28 288.216 29.1306 288.449 30.4061M281.332 18.661C282.608 18.4278 283.738 17.6975 284.475 16.6307C285.212 15.5638 285.495 14.248 285.262 12.9724M304.403 22.5195C303.127 22.7527 301.997 23.483 301.26 24.5498C300.523 25.6166 300.24 26.9325 300.473 28.208M295.269 16.7343L295.271 16.7463M289.176 19.0907L288.44 20.1573L289.506 20.8941L290.243 19.8275L289.176 19.0907ZM295.943 23.8177L294.073 23.7867L295.252 22.0802L295.943 23.8177Z" stroke="#22B1EF" stroke-width="1.8" stroke-linecap="round" stroke-linejoin="round"/>
<path d="M299.027 70.5427C299.349 70.6545 299.587 70.8723 299.741 71.1899C299.895 71.5075 299.918 71.8297 299.806 72.1512L298.636 75.5172L301.809 76.6201C302.468 76.8493 302.953 77.2822 303.258 77.9148C303.564 78.5473 303.604 79.1963 303.376 79.8549L298.526 93.8066C298.297 94.466 297.863 94.9509 297.231 95.2564C296.629 95.547 296.013 95.5937 295.387 95.4015L294.889 96.8341L293.272 96.272L293.769 94.8441L284.29 91.5494L283.794 92.9773L282.177 92.4156L282.675 90.983C282.063 90.7459 281.609 90.3275 281.318 89.7254C281.012 89.0928 280.973 88.4443 281.201 87.7865L286.05 73.8348C286.279 73.1755 286.712 72.6911 287.345 72.3856C287.977 72.0801 288.626 72.0402 289.285 72.267L292.459 73.3703L293.629 70.0044C293.741 69.683 293.959 69.4443 294.276 69.2905C294.594 69.1369 294.916 69.114 295.237 69.2253L299.027 70.5427ZM299.942 84.5193C298.797 84.6636 297.663 84.691 296.541 84.5976C295.399 84.5024 294.262 84.3044 293.13 84.0061L292.625 85.4589L291.008 84.8969L291.512 83.444C290.44 82.976 289.425 82.426 288.469 81.7918C287.531 81.1691 286.659 80.4453 285.851 79.6224L282.818 88.3467C282.737 88.5804 282.746 88.7918 282.841 88.9872C282.935 89.1827 283.096 89.322 283.331 89.4036L295.853 93.7561C296.087 93.8374 296.298 93.8275 296.494 93.7328C296.689 93.6381 296.828 93.4783 296.909 93.2446L299.942 84.5193ZM288.723 73.8841C288.489 73.8029 288.278 73.8118 288.083 73.9064C287.887 74.0011 287.749 74.162 287.667 74.3968L286.486 77.7951C287.342 78.7932 288.303 79.6554 289.371 80.3786C290.455 81.1124 291.623 81.6969 292.875 82.1331C294.128 82.5687 295.407 82.8349 296.713 82.9304C297.999 83.0246 299.287 82.9441 300.577 82.6929L301.759 79.2928C301.84 79.0592 301.83 78.8475 301.735 78.652C301.641 78.4566 301.481 78.3184 301.247 78.2371L288.723 73.8841ZM294.076 73.9324L297.018 74.9548L298.04 72.0132L295.099 70.9907L294.076 73.9324Z" fill="#22B1EF" stroke="#22B1EF" stroke-width="0.2"/>
<path d="M333.743 27.6118C330.979 24.1008 329.058 20.9743 327.98 18.2324C326.902 15.4904 326.593 12.9698 327.054 10.6706C327.618 7.85834 329.056 5.75095 331.366 4.34843C333.677 2.94592 336.117 2.48937 338.687 2.9788C341.258 3.46822 343.337 4.81325 344.925 7.01388C346.513 9.21451 346.997 11.8538 346.378 14.9318L349.448 12.8319L350.802 14.8806L344.223 19.3804L339.87 12.7954L341.917 11.3954L343.948 14.4684C344.397 12.2309 344.062 10.2649 342.941 8.57038C341.821 6.87584 340.238 5.83308 338.193 5.4421C336.148 5.05112 334.284 5.40964 332.602 6.51767C330.92 7.6257 329.878 9.17473 329.477 11.1648C329.135 12.8685 329.368 14.7991 330.175 16.9566C330.982 19.114 332.39 21.5778 334.398 24.3479C334.877 24.0557 335.324 23.7679 335.738 23.4845L336.98 22.6346C336.925 22.3895 336.889 22.1482 336.874 21.9108C336.858 21.6734 336.875 21.4316 336.925 21.1853C337.098 20.3231 337.537 19.6504 338.244 19.167C338.951 18.6837 339.729 18.5232 340.579 18.6853C341.43 18.8475 342.089 19.2823 342.556 19.9895C343.024 20.6968 343.171 21.4815 342.998 22.3437C342.825 23.2058 342.385 23.8786 341.678 24.3619C340.972 24.8452 340.193 25.0058 339.343 24.8436C339.181 24.8127 339.036 24.7744 338.908 24.7287C338.781 24.683 338.65 24.6262 338.518 24.5582C337.807 25.0621 337.059 25.5694 336.272 26.0802C335.486 26.591 334.643 27.1015 333.743 27.6118Z" fill="#22B1EF"/>
<path d="M348.361 80.6116L348.728 81.6324M350.194 85.7156L350.56 86.7364M352.026 90.8195L352.393 91.8403M353.859 95.9235L354.225 96.9443M339.286 94.2414L346.504 91.6498M340.385 97.3038L344.51 95.8229M329.949 86.0697C329.095 86.3762 328.649 87.311 328.952 88.1562L330.431 92.2747C331.187 92.4072 331.894 92.7354 332.48 93.2262C333.065 93.717 333.509 94.3531 333.767 95.0704C334.024 95.7877 334.086 96.561 333.947 97.3122C333.807 98.0634 333.47 98.7661 332.971 99.3495L334.449 103.468C334.753 104.313 335.692 104.75 336.546 104.444L360.263 95.9289C361.117 95.6223 361.564 94.6876 361.26 93.8423L359.782 89.7238C359.025 89.5913 358.318 89.2632 357.733 88.7724C357.147 88.2816 356.703 87.6455 356.446 86.9281C356.188 86.2108 356.126 85.4376 356.266 84.6863C356.405 83.9351 356.742 83.2324 357.241 82.649L355.763 78.5305C355.459 77.6852 354.52 77.2481 353.666 77.5546L329.949 86.0697Z" stroke="#22B1EF" stroke-width="2" stroke-linecap="round" stroke-linejoin="round"/>
<path d="M330.512 42.4176C331.333 42.0062 332.285 41.9376 333.157 42.2275C334.029 42.5176 334.75 43.1424 335.161 43.9639L340.435 54.4933C340.847 55.3149 340.915 56.2666 340.625 57.1385C340.335 58.0104 339.711 58.7323 338.889 59.1439L322.342 67.4319C321.52 67.8434 320.568 67.9111 319.696 67.6211C318.824 67.3311 318.103 66.7063 317.692 65.8847L312.418 55.3553C312.006 54.5336 311.938 53.5821 312.228 52.7101C312.518 51.8381 313.143 51.1172 313.964 50.7056L330.512 42.4176ZM314.807 52.3882C314.432 52.5762 314.147 52.9059 314.014 53.3041C313.882 53.7024 313.913 54.1373 314.101 54.5125L319.374 65.042C319.562 65.4172 319.892 65.7024 320.29 65.8349C320.689 65.9673 321.124 65.9364 321.499 65.7484L338.046 57.4604C338.421 57.2725 338.707 56.9427 338.839 56.5445C338.971 56.1464 338.94 55.7117 338.752 55.3365L333.478 44.8071C333.29 44.432 332.961 44.1462 332.563 44.0138C332.165 43.8813 331.73 43.9123 331.354 44.1002L314.807 52.3882ZM326.74 48.0375C328.201 47.3061 329.892 47.1847 331.442 47.7001C332.991 48.2155 334.273 49.3255 335.004 50.7858C335.736 52.2462 335.858 53.938 335.342 55.4878C334.827 57.0375 333.717 58.3192 332.257 59.0507C330.796 59.782 329.105 59.9032 327.555 59.388C326.005 58.8726 324.724 57.7619 323.992 56.3015C323.261 54.8412 323.139 53.1501 323.655 51.6003C324.17 50.0505 325.28 48.7689 326.74 48.0375ZM327.584 49.7209C326.57 50.2288 325.799 51.1183 325.441 52.1943C325.083 53.2704 325.167 54.4448 325.675 55.4587C326.183 56.4727 327.073 57.243 328.149 57.6009C329.225 57.9588 330.399 57.8751 331.413 57.3672C332.427 56.8593 333.198 55.969 333.556 54.8929C333.913 53.8169 333.83 52.6424 333.322 51.6285C332.814 50.6146 331.924 49.8442 330.848 49.4863C329.771 49.1285 328.597 49.2131 327.584 49.7209ZM319.607 51.642C319.73 51.5802 319.874 51.57 320.005 51.6133C320.135 51.6569 320.245 51.7505 320.306 51.8738L321.44 54.1379C321.502 54.2614 321.512 54.4048 321.468 54.5358C321.425 54.6667 321.331 54.7751 321.207 54.8369L317.447 56.7205C317.323 56.7822 317.18 56.7927 317.049 56.7492C316.918 56.7055 316.81 56.6115 316.748 56.4882L315.614 54.2241C315.552 54.1007 315.542 53.9576 315.585 53.8267C315.629 53.6958 315.723 53.5875 315.846 53.5256L319.607 51.642Z" fill="#22B1EF" stroke="#22B1EF" stroke-width="0.2"/>
<path d="M340.109 130.697L345.385 143.813M340.109 130.697C339.14 129.34 337.994 128.307 336.822 127.733C335.651 127.158 334.507 127.07 333.54 127.478C332.871 127.747 332.337 128.271 332.054 128.934C331.771 129.598 331.763 130.346 332.032 131.015C332.302 131.684 332.825 132.219 333.489 132.501C334.152 132.784 334.9 132.792 335.569 132.523M340.109 130.697C339.87 129.046 339.981 127.508 340.429 126.282C340.877 125.056 341.641 124.201 342.621 123.826C343.29 123.557 344.038 123.565 344.701 123.848C345.365 124.13 345.888 124.665 346.157 125.334C346.426 126.003 346.419 126.751 346.136 127.415C345.853 128.078 345.319 128.602 344.65 128.871M348.795 131.892L351.635 138.954C351.851 139.49 351.845 140.088 351.618 140.619C351.392 141.15 350.964 141.569 350.429 141.784L340.34 145.842C339.805 146.057 339.206 146.051 338.675 145.825C338.145 145.598 337.726 145.171 337.511 144.635L334.67 137.573M331.435 135.358C331.327 135.09 331.33 134.791 331.443 134.525C331.557 134.26 331.77 134.051 332.038 133.943L348.181 127.451C348.448 127.343 348.748 127.346 349.013 127.459C349.278 127.572 349.488 127.786 349.596 128.054L350.407 130.072C350.515 130.339 350.512 130.638 350.398 130.904C350.285 131.169 350.072 131.379 349.804 131.486L333.661 137.979C333.394 138.086 333.094 138.083 332.829 137.97C332.564 137.857 332.354 137.643 332.246 137.376L331.435 135.358Z" stroke="#22B1EF" stroke-width="2" stroke-linecap="round" stroke-linejoin="round"/>
<path d="M238 18C238 16.6167 238.263 15.3167 238.788 14.1C239.313 12.8833 240.026 11.825 240.925 10.925C241.824 10.025 242.883 9.31267 244.1 8.788C245.317 8.26333 246.617 8.00067 248 8C250.117 8 252.004 8.58333 253.663 9.75C255.322 10.9167 256.526 12.425 257.275 14.275C257.392 14.5583 257.396 14.8417 257.288 15.125C257.18 15.4083 256.984 15.6 256.7 15.7C256.433 15.7833 256.179 15.7583 255.938 15.625C255.697 15.4917 255.526 15.2917 255.425 15.025C255.025 14.025 254.45 13.1417 253.7 12.375C252.95 11.6083 252.05 11.0167 251 10.6V11C251 11.55 250.804 12.021 250.413 12.413C250.022 12.805 249.551 13.0007 249 13H247V15C247 15.2833 246.904 15.521 246.712 15.713C246.52 15.905 246.283 16.0007 246 16H244V18H245C245.283 18 245.521 18.096 245.713 18.288C245.905 18.48 246.001 18.7173 246 19V21H245L240.2 16.2C240.15 16.5 240.104 16.8 240.063 17.1C240.022 17.4 240.001 17.7 240 18C240 20.0333 240.671 21.8083 242.013 23.325C243.355 24.8417 245.042 25.7167 247.075 25.95C247.342 25.9833 247.563 26.096 247.738 26.288C247.913 26.48 248.001 26.7173 248 27C247.999 27.2827 247.903 27.5203 247.712 27.713C247.521 27.9057 247.292 27.9847 247.025 27.95C244.475 27.7 242.333 26.6333 240.6 24.75C238.867 22.8667 238 20.6167 238 18ZM256.4 26.8L253.9 24.3C253.55 24.5 253.175 24.6667 252.775 24.8C252.375 24.9333 251.95 25 251.5 25C250.25 25 249.188 24.5627 248.313 23.688C247.438 22.8133 247.001 21.7507 247 20.5C246.999 19.2493 247.437 18.187 248.313 17.313C249.189 16.439 250.251 16.0013 251.5 16C252.749 15.9987 253.811 16.4363 254.688 17.313C255.565 18.1897 256.002 19.252 256 20.5C256 20.95 255.933 21.375 255.8 21.775C255.667 22.175 255.5 22.55 255.3 22.9L257.8 25.4C257.983 25.5833 258.075 25.8167 258.075 26.1C258.075 26.3833 257.983 26.6167 257.8 26.8C257.617 26.9833 257.383 27.075 257.1 27.075C256.817 27.075 256.583 26.9833 256.4 26.8ZM251.5 23C252.2 23 252.792 22.7583 253.275 22.275C253.758 21.7917 254 21.2 254 20.5C254 19.8 253.758 19.2083 253.275 18.725C252.792 18.2417 252.2 18 251.5 18C250.8 18 250.208 18.2417 249.725 18.725C249.242 19.2083 249 19.8 249 20.5C249 21.2 249.242 21.7917 249.725 22.275C250.208 22.7583 250.8 23 251.5 23Z" fill="#22B1EF"/>
</g>
<defs>
<linearGradient id="paint0_linear_4851_21282" x1="31.788" y1="253.173" x2="317.614" y2="-43.3736" gradientUnits="userSpaceOnUse">
<stop stop-color="#00252E"/>
<stop offset="1" stop-color="#83F8A6"/>
</linearGradient>
<linearGradient id="paint1_linear_4851_21282" x1="6.94935" y1="170.928" x2="253.296" y2="170.788" gradientUnits="userSpaceOnUse">
<stop stop-color="#02CAFD"/>
<stop offset="1" stop-color="#83F8A6"/>
</linearGradient>
<linearGradient id="paint2_linear_4851_21282" x1="-54.1641" y1="135.617" x2="61.6944" y2="15.4132" gradientUnits="userSpaceOnUse">
<stop stop-color="#02CAFD"/>
<stop offset="1" stop-color="#83F8A6"/>
</linearGradient>
<linearGradient id="paint3_linear_4851_21282" x1="113.745" y1="17.6734" x2="160.775" y2="-31.1208" gradientUnits="userSpaceOnUse">
<stop stop-color="#66CB95"/>
<stop offset="1" stop-color="#83F8A6"/>
</linearGradient>
<linearGradient id="paint4_linear_4851_21282" x1="581.194" y1="216.265" x2="165.672" y2="-38.3013" gradientUnits="userSpaceOnUse">
<stop stop-color="#02CAFD"/>
<stop offset="1" stop-color="#83F8A6"/>
</linearGradient>
<clipPath id="clip0_4851_21282">
<rect width="360.001" height="220" rx="20" fill="white"/>
</clipPath>
</defs>
</svg>
